<svg width="34" height="24" viewBox="0 0 34 24" fill="none" xmlns="http://www.w3.org/2000/svg">
<path fill-rule="evenodd" clip-rule="evenodd" d="M32.8563 5.17939C32.8563 5.17939 28.4521 2.9751 16.7534 2.9751C5.05462 2.9751 0.650452 5.17939 0.650452 5.17939C0.650452 5.17939 3.7124 11.2043 6.81245 14.7012C6.82619 14.7167 6.83939 14.7314 6.85313 14.7467V15.4657C6.85313 16.4412 6.79068 16.73 6.31793 16.9018L6.4518 17.2359C7.26303 17.1459 7.78898 16.7354 8.02638 16.0458C13.7733 22.292 16.7534 23.8015 16.7534 23.8015C16.7534 23.8015 18.945 23.1449 25.2289 16.3196C25.4813 16.2102 25.6934 16.0183 25.9166 15.6882L25.9343 15.6792V16.3656C26.2021 16.3386 26.4697 16.3115 26.7103 16.3115C26.9689 16.3115 27.2367 16.3386 27.504 16.3656V16.1942C27.2187 16.1942 27.0405 16.0677 27.0405 15.7605V14.3032C31.0308 9.68165 32.8563 5.17939 32.8563 5.17939Z" fill="#FEFEFE"/>
<path fill-rule="evenodd" clip-rule="evenodd" d="M32.8563 5.17939C32.8563 5.17939 28.4521 2.9751 16.7534 2.9751C5.05462 2.9751 0.650452 5.17939 0.650452 5.17939C0.650452 5.17939 3.7124 11.2043 6.81245 14.7012C6.82619 14.7167 6.83939 14.7314 6.85313 14.7467V15.4657C6.85313 16.4412 6.79068 16.73 6.31793 16.9018L6.4518 17.2359C7.26303 17.1459 7.78898 16.7354 8.02638 16.0458C13.7733 22.292 16.7534 23.8015 16.7534 23.8015C16.7534 23.8015 18.945 23.1449 25.2289 16.3196C25.4813 16.2102 25.6934 16.0183 25.9166 15.6882L25.9343 15.6792V16.3656C26.2021 16.3386 26.4697 16.3115 26.7103 16.3115C26.9689 16.3115 27.2367 16.3386 27.504 16.3656V16.1942C27.2187 16.1942 27.0405 16.0677 27.0405 15.7605V14.3032C31.0308 9.68165 32.8563 5.17939 32.8563 5.17939Z" stroke="#29B4B4" stroke-width="0.212"/>
<path fill-rule="evenodd" clip-rule="evenodd" d="M16.7533 23.8015C16.7533 23.8015 13.3534 22.0794 6.81248 14.7014C3.71228 11.2043 0.650452 5.17939 0.650452 5.17939C0.650452 5.17939 5.05464 2.9751 16.7533 2.9751C28.4521 2.9751 32.8563 5.17939 32.8563 5.17939C32.8563 5.17939 30.9334 9.92288 26.7198 14.6701C19.2869 23.0438 16.7533 23.8015 16.7533 23.8015Z" fill="#27B4B5"/>
<mask id="mask0" mask-type="alpha" maskUnits="userSpaceOnUse" x="0" y="2" width="34" height="22">
<path fill-rule="evenodd" clip-rule="evenodd" d="M0 2.45068H33.0725V23.9999H0V2.45068Z" fill="white"/>
</mask>
<g mask="url(#mask0)">
<path fill-rule="evenodd" clip-rule="evenodd" d="M16.5505 2.45068C13.2116 2.45068 8.33886 2.64252 4.08794 3.55696C1.51859 4.10955 0.396237 4.66323 0.349783 4.68642L-0.000183105 4.86166L0.178321 5.21322C0.303599 5.45994 3.28467 11.2987 6.36841 14.7792C12.854 22.0988 16.2379 23.8599 16.3787 23.9313L16.514 23.9999L16.6592 23.9564C16.7665 23.9243 19.3706 23.0747 26.7577 14.7482C27.9662 13.386 29.7583 11.1412 31.4329 8.18199C32.4369 6.408 32.9166 5.23202 32.9364 5.18289L33.0724 4.84725L32.7513 4.68642C32.7048 4.66323 31.5825 4.10955 29.0131 3.55696C24.7622 2.64252 19.8895 2.45068 16.5505 2.45068ZM16.5505 2.83955C28.1969 2.83955 32.5814 5.03508 32.5814 5.03508C32.5814 5.03508 30.6671 9.75987 26.4724 14.4882C19.0728 22.8285 16.5505 23.5832 16.5505 23.5832C16.5505 23.5832 13.1659 21.868 6.65426 14.5192C3.56795 11.0362 0.519836 5.03508 0.519836 5.03508C0.519836 5.03508 4.9043 2.83955 16.5505 2.83955Z" fill="#FEFEFE"/>
</g>
<path fill-rule="evenodd" clip-rule="evenodd" d="M17.8346 10.4056C17.667 10.4797 17.3992 10.5785 17.0021 10.5785C15.9256 10.5785 15.2895 9.82267 15.2895 8.77526C15.2895 7.75253 15.8683 6.94214 16.9591 6.94214C17.38 6.94214 17.6717 7.0459 17.8441 7.12004L17.8682 7.14993C17.8489 7.40183 17.8346 7.5745 17.8201 7.82666L17.782 7.84154C17.6433 7.72786 17.4279 7.59943 17.1026 7.59943C16.3994 7.59943 16.184 8.22669 16.184 8.76065C16.184 9.62493 16.7106 9.89667 17.1122 9.89667C17.5092 9.89667 17.7866 9.67949 17.8586 9.62011L17.892 9.63981C17.8774 9.91155 17.8682 10.1042 17.8586 10.3759L17.8346 10.4056Z" fill="#FEFEFE"/>
<path fill-rule="evenodd" clip-rule="evenodd" d="M20.7515 10.5633H20.0273C19.4975 10.5633 19.1198 10.5682 18.5898 10.5785L18.5639 10.548C18.5687 10.216 18.5741 9.98107 18.5741 9.64917V8.16802C18.5741 7.72858 18.5741 7.42246 18.5425 6.98801L18.5741 6.95766H18.7894C19.0569 6.95766 19.2459 6.95239 19.508 6.94214L19.5395 6.97304C19.5134 7.22831 19.4975 9.0056 19.4975 9.25075C19.4975 9.49078 19.5028 9.78179 19.5028 9.89931C19.9801 9.89931 20.3159 9.88906 20.7934 9.8637L20.8197 9.88906C20.8038 10.0883 20.7934 10.2927 20.7776 10.5326L20.7515 10.5633Z" fill="#FEFEFE"/>
<path fill-rule="evenodd" clip-rule="evenodd" d="M25.1281 8.41297C25.3693 8.41297 25.7054 8.33648 25.7054 7.93807C25.7054 7.51944 25.3173 7.50904 25.2132 7.50904C25.1092 7.50904 25.0052 7.51417 24.9056 7.51944V8.40798C24.9056 8.40798 25.0144 8.41297 25.1281 8.41297ZM24.9056 9.99637H25.0808C25.374 9.99637 25.7999 9.97586 25.7999 9.50082C25.7999 9.18445 25.6295 9.01054 25.2512 9.01054C25.1468 9.01054 25.0052 9.01054 24.9007 9.01567C24.9007 9.19942 24.9056 9.66947 24.9056 9.99637ZM24.0822 10.5479C24.1012 9.22503 24.1012 8.82662 24.1012 8.43349C24.1012 7.95346 24.0916 7.47344 24.0729 6.99313L24.1012 6.96265C24.3284 6.96265 25.2226 6.94214 25.3647 6.94214C25.7904 6.94214 26.0508 6.96778 26.2778 7.17204C26.4055 7.28955 26.5332 7.48868 26.5332 7.79493C26.5332 8.27011 26.2351 8.49986 25.9845 8.59701C26.3299 8.63775 26.6754 8.89328 26.6754 9.45479C26.6754 9.81744 26.5286 10.1953 26.136 10.3997C25.8237 10.5631 25.4734 10.5785 25.1422 10.5785H24.1154L24.0822 10.5479Z" fill="#FEFEFE"/>
<path fill-rule="evenodd" clip-rule="evenodd" d="M6.18073 10.2478C6.52139 10.2742 6.9608 10.301 7.38216 10.301C7.7138 10.301 8.06349 10.2742 8.4579 10.2478V10.4165C8.15334 10.4253 8.04571 10.5407 8.04571 10.7892V15.059C8.04571 16.32 7.46271 17.0655 6.3153 17.1899L6.18073 16.8614C6.65596 16.6926 6.71874 16.4086 6.71874 15.45V10.9667C6.71874 10.6383 6.58416 10.4341 6.18073 10.4165V10.2478Z" fill="#FEFEFE"/>
<path fill-rule="evenodd" clip-rule="evenodd" d="M6.21876 17.1709L6.34167 17.4885C7.44185 17.3576 8.02341 16.5951 8.02341 15.2825V10.8292C8.02341 10.556 8.14134 10.4383 8.42962 10.426V10.2804L8.30832 10.2893C7.98122 10.3128 7.67218 10.3351 7.38389 10.3351C7.05073 10.3351 6.65732 10.3167 6.21417 10.2806V10.4262C6.57564 10.4474 6.74411 10.6345 6.74411 11.0144V15.69C6.74411 16.6899 6.67848 16.9927 6.21876 17.1709ZM6.32278 17.5205L6.18073 17.1529L6.19461 17.1477C6.65392 16.9748 6.71538 16.6982 6.71538 15.6897V11.0141C6.71538 10.6439 6.55608 10.4715 6.19879 10.4553L6.18531 10.4545V10.2478L6.20054 10.2494C6.64921 10.2861 7.0472 10.3049 7.3836 10.3049C7.67095 10.3049 7.97945 10.2825 8.30601 10.259L8.4579 10.2482V10.4547L8.44416 10.4553C8.1618 10.4639 8.05169 10.5685 8.05169 10.8289V15.2822C8.05169 16.6167 7.45759 17.3903 6.33356 17.5192L6.32278 17.5205Z" fill="#28B4B4"/>
<path fill-rule="evenodd" clip-rule="evenodd" d="M11.3203 14.0672C9.99712 14.2768 9.68214 14.4864 9.68214 14.897C9.68214 15.2465 9.96101 15.4298 10.3212 15.4298C10.7531 15.4298 11.3203 15.0281 11.3203 14.4778V14.0672ZM8.97984 12.1892C9.46589 12.0231 9.98806 11.9009 10.6002 11.9009C11.6443 11.9009 12.5444 12.163 12.5444 13.4207V15.526C12.5444 15.823 12.7244 15.9452 13.0123 15.9452V16.1111C12.7425 16.085 12.4723 16.0589 12.2113 16.0589C11.9684 16.0589 11.6983 16.085 11.4282 16.1111V15.4474L11.4102 15.4559C10.9602 16.0937 10.5551 16.1984 9.781 16.1984C9.00702 16.1984 8.45795 15.7356 8.45795 14.9757C8.45795 13.7966 9.63697 13.6655 10.4291 13.5693C11.2573 13.4732 11.3203 13.4471 11.3203 13.1762C11.3203 12.7309 10.9331 12.5649 10.501 12.5649C9.781 12.5649 9.43898 12.7394 9.11494 13.3773H8.944L8.97984 12.1892Z" fill="#FEFEFE"/>
<path d="M11.4263 13.9432H11.5323V13.8191L11.4097 13.8385L11.4263 13.9432ZM11.052 15.2404L11.1213 15.3206L11.052 15.2404ZM9.80138 15.3781L9.86659 15.2945L9.80138 15.3781ZM9.66204 14.5676L9.57204 14.5116L9.66204 14.5676ZM9.95523 14.3132L10.005 14.4068L9.95523 14.3132ZM11.3037 13.9626L11.3203 14.0673L11.3037 13.9626ZM9.84202 14.6797L9.93201 14.7357H9.93201L9.84202 14.6797ZM9.9318 15.2109L9.86659 15.2945L9.9318 15.2109ZM10.9134 15.08L10.8441 14.9998L10.9134 15.08ZM11.2143 14.1919H11.3203V14.0668L11.1969 14.0873L11.2143 14.1919ZM10.0548 14.5004L10.1046 14.5939L10.0548 14.5004ZM9.05333 13.2661L8.94737 13.2629L9.14676 13.3161L9.05333 13.2661ZM9.08349 12.2662L9.05024 12.1656L8.97977 12.1889L8.97753 12.263L9.08349 12.2662ZM9.60684 12.6399L9.55427 12.5478L9.60684 12.6399ZM11.13 12.6145L11.1874 12.5254V12.5254L11.13 12.6145ZM11.3942 13.3818L11.2974 13.3384V13.3384L11.3942 13.3818ZM11.2278 13.5354L11.1852 13.4383L11.2278 13.5354ZM10.9349 13.61L10.9522 13.7146L10.9349 13.61ZM10.4415 13.6746L10.4293 13.5693L10.4292 13.5693L10.4415 13.6746ZM10.4412 13.6746L10.429 13.5693L10.4284 13.5694L10.4412 13.6746ZM10.4257 13.6765L10.4385 13.7817L10.4385 13.7817L10.4257 13.6765ZM9.19289 13.9617L9.14639 13.8664L9.14639 13.8664L9.19289 13.9617ZM8.74194 14.332L8.65447 14.2721L8.74194 14.332ZM8.90008 15.7933L8.82915 15.8721L8.90008 15.7933ZM10.6763 15.9685L10.6356 15.8706L10.6356 15.8706L10.6763 15.9685ZM11.3236 15.3949L11.4102 15.456L11.4102 15.456L11.3236 15.3949ZM11.3396 15.3721L11.2942 15.2763L11.2691 15.2883L11.253 15.311L11.3396 15.3721ZM11.3648 15.3602L11.4102 15.456L11.3648 15.3602ZM11.3827 15.3517L11.3373 15.2559H11.3373L11.3827 15.3517ZM11.5342 15.2799H11.6402V15.1123L11.4887 15.1841L11.5342 15.2799ZM11.5342 15.9945H11.4282V16.111L11.5442 16.1L11.5342 15.9945ZM12.6672 15.9734L12.6589 16.0791L12.7198 15.8814L12.6672 15.9734ZM12.6023 15.9284L12.5344 16.0097L12.6023 15.9284ZM11.9075 12.279L11.9638 12.1892L11.9075 12.279ZM8.94547 12.089L8.97976 12.1893L8.94547 12.089ZM12.02 12.0994L12.0763 12.0095L12.02 12.0994ZM12.7383 15.7657L12.6703 15.847V15.847L12.7383 15.7657ZM13.1182 15.8393H13.2242V15.7333H13.1182V15.8393ZM13.1182 16.2279L13.108 16.3334L13.2242 16.3447V16.2279H13.1182ZM13.002 16.2167L12.9918 16.3222L13.002 16.2167ZM11.4384 16.2167L11.4486 16.3222L11.4384 16.2167ZM11.3222 16.2279H11.2162V16.3446L11.3324 16.3334L11.3222 16.2279ZM11.3222 15.7411H11.4282V15.4582L11.2423 15.6715L11.3222 15.7411ZM10.7578 16.1642L10.7986 16.2621L10.7578 16.1642ZM8.75823 15.9508L8.82915 15.8721H8.82915L8.75823 15.9508ZM8.56699 14.2122L8.47951 14.1524H8.47951L8.56699 14.2122ZM9.0999 13.7712L9.0534 13.6759H9.0534L9.0999 13.7712ZM10.3856 13.4678L10.3984 13.573H10.3984L10.3856 13.4678ZM10.4162 13.4641L10.4037 13.3588L10.4034 13.3589L10.4162 13.4641ZM10.4168 13.464L10.4046 13.3587L10.4043 13.3588L10.4168 13.464ZM10.9004 13.4009L10.8831 13.2963L10.8831 13.2963L10.9004 13.4009ZM11.1426 13.3413L11.1852 13.4383L11.1852 13.4383L11.1426 13.3413ZM11.2007 13.2951L11.2974 13.3384L11.2974 13.3384L11.2007 13.2951ZM11.0152 12.7927L10.9578 12.8818L10.9578 12.8818L11.0152 12.7927ZM9.71198 12.824L9.65941 12.7319L9.71198 12.824ZM9.20937 13.4253L9.11487 13.3773L9.11486 13.3773L9.20937 13.4253ZM9.17991 13.4833V13.5893H9.24495L9.27441 13.5313L9.17991 13.4833ZM8.83468 13.4833L8.72872 13.4801L8.72543 13.5893H8.83468V13.4833ZM8.83797 13.3741L8.94392 13.3773L8.83797 13.3741ZM8.87381 12.1861L8.76785 12.1829L8.87381 12.1861ZM8.87602 12.1127L8.84173 12.0124L8.77228 12.0362L8.77007 12.1095L8.87602 12.1127ZM11.5323 14.0673V13.9432H11.3203V14.0673H11.5323ZM11.5323 14.4778V14.0673H11.3203V14.4778H11.5323ZM11.1213 15.3206C11.351 15.1221 11.5323 14.8296 11.5323 14.4778H11.3203C11.3203 14.7529 11.1785 14.9909 10.9827 15.1602L11.1213 15.3206ZM10.3211 15.6419C10.5966 15.6419 10.894 15.5171 11.1213 15.3206L10.9827 15.1602C10.7869 15.3294 10.5371 15.4299 10.3211 15.4299V15.6419ZM9.73617 15.4616C9.89798 15.5879 10.108 15.6419 10.3211 15.6419V15.4299C10.141 15.4299 9.9813 15.384 9.86659 15.2945L9.73617 15.4616ZM9.47014 14.897C9.47014 15.1347 9.5681 15.3305 9.73617 15.4616L9.86659 15.2945C9.75187 15.205 9.68214 15.0718 9.68214 14.897H9.47014ZM9.57204 14.5116C9.49557 14.6345 9.47014 14.7663 9.47014 14.897H9.68214C9.68214 14.7944 9.70183 14.7043 9.75203 14.6236L9.57204 14.5116ZM9.90543 14.2196C9.76135 14.2963 9.64762 14.3902 9.57204 14.5116L9.75203 14.6236C9.80223 14.543 9.88294 14.4718 10.005 14.4068L9.90543 14.2196ZM11.2871 13.8579C10.6266 13.9625 10.1845 14.0712 9.90543 14.2196L10.005 14.4068C10.2492 14.2769 10.6587 14.1721 11.3203 14.0673L11.2871 13.8579ZM11.4097 13.8385L11.2871 13.8579L11.3203 14.0673L11.4429 14.0479L11.4097 13.8385ZM9.89414 14.897C9.89414 14.8225 9.90806 14.7742 9.93201 14.7357L9.75203 14.6236C9.70184 14.7043 9.68214 14.7943 9.68214 14.897H9.89414ZM9.997 15.1274C9.93557 15.0794 9.89414 15.0088 9.89414 14.897H9.68214C9.68214 15.0718 9.75187 15.205 9.86659 15.2945L9.997 15.1274ZM10.3211 15.2179C10.1742 15.2179 10.0647 15.1802 9.997 15.1274L9.86659 15.2945C9.9813 15.384 10.141 15.4299 10.3211 15.4299V15.2179ZM10.8441 14.9998C10.6799 15.1418 10.4777 15.2179 10.3211 15.2179V15.4299C10.5371 15.4299 10.7869 15.3295 10.9827 15.1602L10.8441 14.9998ZM11.1083 14.4778C11.1083 14.6764 11.0059 14.8599 10.8441 14.9998L10.9827 15.1602C11.1786 14.9909 11.3203 14.7529 11.3203 14.4778H11.1083ZM11.1083 14.1919V14.4778H11.3203V14.1919H11.1083ZM10.1046 14.5939C10.3002 14.4899 10.6432 14.3945 11.2317 14.2964L11.1969 14.0873C10.608 14.1854 10.2341 14.2849 10.005 14.4068L10.1046 14.5939ZM9.93201 14.7357C9.95686 14.6958 10.0046 14.6472 10.1046 14.5939L10.005 14.4068C9.88293 14.4718 9.80222 14.543 9.75203 14.6236L9.93201 14.7357ZM9.15928 13.2693L9.18944 12.2694L8.97753 12.263L8.94737 13.2629L9.15928 13.2693ZM9.55427 12.5478C9.30526 12.69 9.1226 12.9123 8.95989 13.216L9.14676 13.3161C9.29891 13.0321 9.45755 12.8472 9.65941 12.7319L9.55427 12.5478ZM10.5009 12.3529C10.1277 12.3529 9.81799 12.3972 9.55427 12.5478L9.65941 12.7319C9.87543 12.6085 10.1409 12.5649 10.5009 12.5649V12.3529ZM11.1874 12.5254C10.9894 12.3978 10.7389 12.3529 10.5009 12.3529V12.5649C10.717 12.5649 10.9218 12.6064 11.0726 12.7036L11.1874 12.5254ZM11.5322 13.1762C11.5322 12.8802 11.3977 12.6608 11.1874 12.5254L11.0726 12.7036C11.2234 12.8008 11.3202 12.9536 11.3202 13.1762H11.5322ZM11.4909 13.4252C11.5301 13.3377 11.5322 13.244 11.5322 13.1762H11.3202C11.3202 13.2437 11.3163 13.2963 11.2974 13.3384L11.4909 13.4252ZM11.2705 13.6324C11.3639 13.5914 11.4449 13.5277 11.4909 13.4252L11.2974 13.3384C11.2786 13.3804 11.245 13.4121 11.1852 13.4383L11.2705 13.6324ZM10.9522 13.7146C11.0772 13.694 11.185 13.67 11.2705 13.6324L11.1852 13.4383C11.1255 13.4645 11.04 13.4853 10.9177 13.5055L10.9522 13.7146ZM10.4537 13.7799C10.6601 13.7559 10.8241 13.7358 10.9522 13.7146L10.9177 13.5055C10.7953 13.5256 10.6362 13.5453 10.4293 13.5693L10.4537 13.7799ZM10.4535 13.7799C10.4535 13.7799 10.4535 13.7799 10.4535 13.7799C10.4536 13.7799 10.4537 13.7799 10.4537 13.7799L10.4292 13.5693C10.4292 13.5693 10.4292 13.5693 10.4292 13.5693C10.4291 13.5693 10.4291 13.5693 10.429 13.5693L10.4535 13.7799ZM10.4385 13.7817L10.454 13.7798L10.4284 13.5694L10.4129 13.5713L10.4385 13.7817ZM9.23938 14.057C9.59002 13.8858 10.037 13.8305 10.4385 13.7817L10.413 13.5713C10.02 13.619 9.53507 13.6767 9.14639 13.8664L9.23938 14.057ZM8.82942 14.3918C8.9264 14.2501 9.06609 14.1415 9.23938 14.057L9.14639 13.8664C8.9495 13.9625 8.77737 14.0925 8.65447 14.2721L8.82942 14.3918ZM8.66987 14.9758C8.66987 14.7182 8.73357 14.5319 8.82942 14.3918L8.65447 14.2721C8.53156 14.4517 8.45787 14.681 8.45787 14.9758H8.66987ZM8.971 15.7145C8.78582 15.5478 8.66987 15.3015 8.66987 14.9758H8.45787C8.45787 15.3557 8.59515 15.6614 8.82915 15.8721L8.971 15.7145ZM9.78092 15.9864C9.43541 15.9864 9.15867 15.8835 8.971 15.7145L8.82915 15.8721C9.06316 16.0827 9.39391 16.1984 9.78092 16.1984V15.9864ZM10.6356 15.8706C10.4224 15.9594 10.1635 15.9864 9.78092 15.9864V16.1984C10.168 16.1984 10.4628 16.1723 10.7171 16.0664L10.6356 15.8706ZM11.237 15.3337C11.0267 15.6316 10.8417 15.7848 10.6356 15.8706L10.7171 16.0664C10.9713 15.9605 11.1851 15.7748 11.4102 15.456L11.237 15.3337ZM11.253 15.311L11.237 15.3337L11.4102 15.456L11.4262 15.4332L11.253 15.311ZM11.3193 15.2644L11.2942 15.2763L11.385 15.4679L11.4102 15.456L11.3193 15.2644ZM11.3373 15.2559L11.3193 15.2644L11.4102 15.456L11.4282 15.4474L11.3373 15.2559ZM11.4887 15.1841L11.3373 15.2559L11.4282 15.4474L11.5796 15.3757L11.4887 15.1841ZM11.6402 15.4474V15.2799H11.4282V15.4474H11.6402ZM11.6402 15.9945V15.4474H11.4282V15.9945H11.6402ZM12.2112 15.8469C11.9924 15.8469 11.7553 15.867 11.5241 15.889L11.5442 16.1C11.7754 16.078 12.0036 16.0589 12.2112 16.0589V15.8469ZM12.6755 15.8677C12.5211 15.8556 12.3652 15.8469 12.2112 15.8469V16.0589C12.3576 16.0589 12.5075 16.0672 12.6589 16.0791L12.6755 15.8677ZM12.5344 16.0097C12.5597 16.0309 12.5865 16.0494 12.6145 16.0654L12.7198 15.8814C12.7022 15.8713 12.6856 15.8599 12.6703 15.847L12.5344 16.0097ZM12.3323 15.5261C12.3323 15.7189 12.3926 15.8913 12.5344 16.0097L12.6703 15.847C12.5894 15.7794 12.5443 15.6747 12.5443 15.5261H12.3323ZM12.3323 13.4207V15.5261H12.5443V13.4207H12.3323ZM11.8512 12.3688C12.1338 12.5459 12.3323 12.8509 12.3323 13.4207H12.5443C12.5443 12.7918 12.3192 12.4119 11.9638 12.1892L11.8512 12.3688ZM10.6001 12.1129C11.1133 12.1129 11.5485 12.1792 11.8512 12.3688L11.9638 12.1892C11.6082 11.9664 11.1222 11.9009 10.6001 11.9009V12.1129ZM9.11673 12.3669C9.56768 12.2179 10.0459 12.1129 10.6001 12.1129V11.9009C10.0175 11.9009 9.51641 12.0116 9.05024 12.1656L9.11673 12.3669ZM10.6001 11.6889C9.95812 11.6889 9.41214 11.8174 8.91118 11.9887L8.97976 12.1893C9.46581 12.0231 9.98798 11.9009 10.6001 11.9009V11.6889ZM12.0763 12.0095C11.668 11.7537 11.1311 11.6889 10.6001 11.6889V11.9009C11.1222 11.9009 11.6082 11.9664 11.9638 12.1892L12.0763 12.0095ZM12.7563 13.4207C12.7563 12.733 12.5048 12.278 12.0763 12.0095L11.9638 12.1892C12.3192 12.4119 12.5443 12.7918 12.5443 13.4207H12.7563ZM12.7563 15.5261V13.4207H12.5443V15.5261H12.7563ZM12.8062 15.6844C12.7858 15.6673 12.7563 15.6298 12.7563 15.5261H12.5443C12.5443 15.6748 12.5894 15.7795 12.6703 15.847L12.8062 15.6844ZM13.0122 15.7333C12.8934 15.7333 12.8337 15.7073 12.8062 15.6844L12.6703 15.847C12.7512 15.9147 12.8682 15.9453 13.0122 15.9453V15.7333ZM13.1182 15.7333H13.0122V15.9453H13.1182V15.7333ZM13.2242 15.9453V15.8393H13.0122V15.9453H13.2242ZM13.2242 16.1112V15.9453H13.0122V16.1112H13.2242ZM13.2242 16.2279V16.1112H13.0122V16.2279H13.2242ZM12.9918 16.3222L13.108 16.3334L13.1284 16.1224L13.0122 16.1112L12.9918 16.3222ZM12.2112 16.2709C12.4602 16.2709 12.72 16.2959 12.9918 16.3222L13.0122 16.1112C12.7424 16.085 12.4722 16.0589 12.2112 16.0589V16.2709ZM11.4486 16.3222C11.7212 16.2958 11.9805 16.2709 12.2112 16.2709V16.0589C11.9683 16.0589 11.6982 16.085 11.4282 16.1112L11.4486 16.3222ZM11.3324 16.3334L11.4486 16.3222L11.4282 16.1112L11.312 16.1224L11.3324 16.3334ZM11.2162 16.1112V16.2279H11.4282V16.1112H11.2162ZM11.2162 15.7411V16.1112H11.4282V15.7411H11.2162ZM10.7986 16.2621C11.0247 16.1679 11.218 16.0219 11.4021 15.8108L11.2423 15.6715C11.0759 15.8623 10.9082 15.9867 10.7171 16.0664L10.7986 16.2621ZM9.78092 16.4104C10.1725 16.4104 10.5032 16.3851 10.7986 16.2621L10.7171 16.0664C10.4628 16.1723 10.168 16.1984 9.78092 16.1984V16.4104ZM8.68731 16.0296C8.96769 16.282 9.3525 16.4104 9.78092 16.4104V16.1984C9.39392 16.1984 9.06316 16.0827 8.82915 15.8721L8.68731 16.0296ZM8.24587 14.9758C8.24587 15.4099 8.40442 15.7749 8.68731 16.0296L8.82915 15.8721C8.59515 15.6614 8.45787 15.3557 8.45787 14.9758H8.24587ZM8.47951 14.1524C8.32953 14.3715 8.24587 14.6438 8.24587 14.9758H8.45787C8.45787 14.681 8.53156 14.4517 8.65447 14.2721L8.47951 14.1524ZM9.0534 13.6759C8.83294 13.7835 8.62836 13.9348 8.47951 14.1524L8.65447 14.2721C8.77737 14.0925 8.9495 13.9625 9.14639 13.8664L9.0534 13.6759ZM10.3729 13.3626C9.9893 13.4091 9.47448 13.4704 9.0534 13.6759L9.14639 13.8664C9.52976 13.6793 10.0075 13.6204 10.3984 13.573L10.3729 13.3626ZM10.4034 13.3589C10.3933 13.3601 10.3832 13.3613 10.3729 13.3626L10.3984 13.573C10.4087 13.5718 10.4189 13.5705 10.429 13.5693L10.4034 13.3589ZM10.4043 13.3588L10.4037 13.3588L10.4287 13.5694L10.4293 13.5693L10.4043 13.3588ZM10.8831 13.2963C10.7665 13.3155 10.6122 13.3346 10.4046 13.3587L10.429 13.5693C10.636 13.5453 10.7953 13.5257 10.9177 13.5055L10.8831 13.2963ZM11.0999 13.2442C11.0661 13.2591 11.0029 13.2765 10.8831 13.2963L10.9177 13.5055C11.04 13.4853 11.1255 13.4645 11.1852 13.4383L11.0999 13.2442ZM11.104 13.2517C11.1044 13.2508 11.1058 13.2478 11.1082 13.2444C11.1106 13.2409 11.1129 13.2384 11.1145 13.237C11.1171 13.2347 11.1148 13.2377 11.0999 13.2442L11.1852 13.4383C11.213 13.4261 11.2371 13.412 11.2568 13.3942C11.2786 13.3744 11.2902 13.3545 11.2974 13.3384L11.104 13.2517ZM11.1082 13.1762C11.1082 13.2082 11.1071 13.2283 11.1055 13.241C11.104 13.2537 11.1025 13.2551 11.104 13.2517L11.2974 13.3384C11.3164 13.2962 11.3202 13.2435 11.3202 13.1762H11.1082ZM10.9578 12.8818C11.0491 12.9406 11.1082 13.0269 11.1082 13.1762H11.3202C11.3202 12.9536 11.2234 12.8008 11.0726 12.7036L10.9578 12.8818ZM10.5009 12.7769C10.6951 12.7769 10.8542 12.815 10.9578 12.8818L11.0726 12.7036C10.9218 12.6064 10.717 12.5649 10.5009 12.5649V12.7769ZM9.76455 12.916C9.93285 12.8199 10.1541 12.7769 10.5009 12.7769V12.5649C10.1409 12.5649 9.87543 12.6085 9.65941 12.7319L9.76455 12.916ZM9.30387 13.4733C9.45651 13.1729 9.59902 13.0105 9.76455 12.916L9.65941 12.7319C9.4434 12.8553 9.27689 13.0584 9.11487 13.3773L9.30387 13.4733ZM9.27441 13.5313L9.30387 13.4733L9.11486 13.3773L9.08541 13.4353L9.27441 13.5313ZM9.11487 13.5893H9.17991V13.3773H9.11487V13.5893ZM8.94392 13.5893H9.11487V13.3773H8.94392V13.5893ZM8.83468 13.5893H8.94392V13.3773H8.83468V13.5893ZM8.73202 13.3709L8.72872 13.4801L8.94063 13.4865L8.94392 13.3773L8.73202 13.3709ZM8.76785 12.1829L8.73202 13.3709L8.94392 13.3773L8.97976 12.1893L8.76785 12.1829ZM8.77007 12.1095L8.76785 12.1829L8.97976 12.1893L8.98197 12.1159L8.77007 12.1095ZM8.91118 11.9887L8.84173 12.0124L8.91031 12.213L8.97976 12.1893L8.91118 11.9887Z" fill="#29B4B4"/>
<path fill-rule="evenodd" clip-rule="evenodd" d="M15.4876 11.958C15.8271 11.985 16.1754 12.0119 16.515 12.0119C16.8542 12.0119 17.2029 11.985 17.5427 11.958L15.9278 13.5392L17.1477 15.4526C17.4143 15.866 17.561 16.0276 17.8919 16.0276V16.1982C17.6164 16.1711 17.3315 16.1443 17.0558 16.1443C16.7806 16.1443 16.5056 16.1711 16.2213 16.1982L14.7175 13.8356L15.7446 12.6857C15.8913 12.5151 15.9461 12.4341 15.9461 12.3083C15.9461 12.1825 15.7446 12.1288 15.4876 12.1288V11.958ZM13.0123 16.0276C13.2779 16.0276 13.4339 15.9557 13.4339 15.4706V10.9969C13.4339 10.3412 13.2871 10.3141 13.0123 10.2512V10.0807C13.5716 10.0178 14.1399 9.83813 14.7084 9.58667C14.7084 9.82004 14.6808 10.0716 14.6808 10.3323V15.4706C14.6808 15.9557 14.8368 16.0276 15.2128 16.0276V16.1982C14.7726 16.1711 14.4517 16.1444 14.0574 16.1444C13.663 16.1444 13.3421 16.1711 13.0123 16.1982V16.0276Z" fill="#FEFEFE"/>
<path d="M17.6168 12.034L17.5427 11.9582L17.6168 12.034ZM17.8258 11.8294L17.8999 11.9052L18.1089 11.7006L17.8174 11.7237L17.8258 11.8294ZM16.0634 13.5549L15.9893 13.4792L15.9278 13.5394L15.9741 13.6119L16.0634 13.5549ZM17.2368 15.3953L17.1474 15.4523L17.1477 15.4529L17.2368 15.3953ZM17.2369 15.3955L17.1477 15.4529L17.1478 15.453L17.2369 15.3955ZM17.5632 15.8136L17.6308 15.7319L17.5632 15.8136ZM17.9979 15.9218H18.1039V15.8158H17.9979V15.9218ZM17.9979 16.3153L17.9876 16.4208L18.1039 16.4323V16.3153H17.9979ZM17.8816 16.3039L17.8919 16.1984H17.8919L17.8816 16.3039ZM16.2441 16.3027L16.2341 16.1972L16.2341 16.1972L16.2441 16.3027ZM16.2313 16.3039L16.2414 16.4094L16.2414 16.4094L16.2313 16.3039ZM16.1667 16.3101L16.0773 16.367L16.1122 16.4218L16.1768 16.4156L16.1667 16.3101ZM16.1319 16.2553L16.0424 16.3122L16.0424 16.3122L16.1319 16.2553ZM14.6281 13.8927L14.7175 13.8358L14.6281 13.8927ZM14.585 13.825L14.5059 13.7544L14.4525 13.8142L14.4956 13.8819L14.585 13.825ZM14.6384 13.7652L14.5594 13.6945H14.5594L14.6384 13.7652ZM15.6649 12.616L15.7439 12.6867L15.7452 12.6851L15.6649 12.616ZM15.8401 12.3077L15.9455 12.2962L15.9429 12.2726L15.9304 12.2522L15.8401 12.3077ZM15.8394 12.3065L15.9299 12.2509L15.9258 12.2452L15.8394 12.3065ZM15.836 12.3026L15.7613 12.3779L15.7613 12.3779L15.836 12.3026ZM15.7779 12.2715L15.7426 12.3715H15.7426L15.7779 12.2715ZM15.3816 12.235H15.2756V12.341H15.3816V12.235ZM15.3816 11.8435L15.39 11.7378L15.2756 11.7287V11.8435H15.3816ZM15.496 11.8526L15.4876 11.9582L15.496 11.8526ZM17.5343 11.8526L17.5259 11.7469L17.5343 11.8526ZM17.2604 12.0862L17.3346 12.162L17.5412 11.9597L17.2528 11.9805L17.2604 12.0862ZM15.9045 12.0955L15.9113 11.9897L15.8563 12.1899L15.9045 12.0955ZM15.825 12.755L15.7446 12.6859L15.7446 12.6859L15.825 12.755ZM15.8237 12.7565L15.753 12.8356L15.8336 12.9075L15.904 12.8256L15.8237 12.7565ZM15.8236 12.7565L15.8942 12.6775L15.8152 12.6069L15.7446 12.6859L15.8236 12.7565ZM14.85 13.8465L14.7709 13.7759L14.7175 13.8358L14.7606 13.9035L14.85 13.8465ZM16.2758 16.0867L16.1864 16.1436L16.2213 16.1984L16.2859 16.1922L16.2758 16.0867ZM17.5552 16.0612L17.5468 16.1668L17.6032 15.9667L17.5552 16.0612ZM17.4281 15.977L17.4957 15.8953H17.4957L17.4281 15.977ZM17.0586 15.5102L16.9694 15.5675L16.9695 15.5677L17.0586 15.5102ZM17.0583 15.5098L16.9689 15.5668L16.9691 15.567L17.0583 15.5098ZM15.8384 13.5963L15.9278 13.5394L15.8384 13.5963ZM15.7922 13.5238L15.718 13.4481L15.6566 13.5082L15.7028 13.5808L15.7922 13.5238ZM15.8537 13.4636L15.9278 13.5394V13.5394L15.8537 13.4636ZM14.8143 9.42407H14.9203V9.26127L14.7714 9.32713L14.8143 9.42407ZM14.801 9.94374L14.6952 9.93789L14.6952 9.93789L14.801 9.94374ZM14.8004 9.9553L14.6945 9.94945L14.6945 9.94945L14.8004 9.9553ZM14.8773 15.853L14.9488 15.7747V15.7747L14.8773 15.853ZM15.3187 15.9218H15.4247V15.8158H15.3187V15.9218ZM15.3187 16.3112L15.3122 16.417L15.4247 16.4239V16.3112H15.3187ZM15.2062 16.3042L15.1997 16.41H15.1997L15.2062 16.3042ZM14.967 16.289L14.9601 16.3948L14.967 16.289ZM13.0294 16.3034L13.0207 16.1977H13.0207L13.0294 16.3034ZM13.0209 16.3041L13.0296 16.4097H13.0296L13.0209 16.3041ZM12.9062 16.3135H12.8002V16.4286L12.9149 16.4191L12.9062 16.3135ZM12.9062 15.9218V15.8158H12.8002V15.9218H12.9062ZM13.2445 15.8595L13.1664 15.7878L13.1664 15.7878L13.2445 15.8595ZM13.2407 10.4647L13.1553 10.5275H13.1553L13.2407 10.4647ZM12.9885 10.3547L12.9649 10.458H12.9649L12.9885 10.3547ZM12.9062 10.3358H12.8002V10.4203L12.8825 10.4392L12.9062 10.3358ZM12.9062 9.98614L12.8943 9.8808L12.8002 9.89139V9.98614H12.9062ZM13.0003 9.97555L13.0122 10.0809H13.0122L13.0003 9.97555ZM14.6654 9.48993L14.7083 9.58687L14.6654 9.48993ZM13.4114 10.3391L13.4968 10.2763H13.4968L13.4114 10.3391ZM13.137 10.172L13.1224 10.067L13.1098 10.2745L13.137 10.172ZM13.4007 16.0029L13.4787 16.0746H13.4787L13.4007 16.0029ZM13.3216 16.0676L13.2668 15.9768L13.3293 16.1733L13.3216 16.0676ZM14.8169 16.0669L14.8103 16.1727L14.8658 15.9729L14.8169 16.0669ZM14.7342 16.0094L14.8057 15.9312H14.8057L14.7342 16.0094ZM14.5887 9.9436L14.4829 9.93775L14.4829 9.93775L14.5887 9.9436ZM14.5892 9.93463L14.4834 9.92878V9.92878L14.5892 9.93463ZM14.5986 9.74959L14.7045 9.75394L14.7113 9.58735L14.5576 9.65185L14.5986 9.74959ZM17.691 12.1097L17.8999 11.9052L17.7516 11.7537L17.5427 11.9582L17.691 12.1097ZM16.1376 13.6307L17.691 12.1097L17.5427 11.9582L15.9893 13.4792L16.1376 13.6307ZM17.3261 15.3384L16.1528 13.4979L15.9741 13.6119L17.1474 15.4523L17.3261 15.3384ZM17.326 15.3382C17.326 15.3381 17.3259 15.338 17.3258 15.3378L17.1477 15.4529L17.1477 15.4529L17.326 15.3382ZM17.6308 15.7319C17.5482 15.6637 17.4608 15.5472 17.326 15.3381L17.1478 15.453C17.281 15.6595 17.3843 15.8033 17.4957 15.8953L17.6308 15.7319ZM17.8919 15.8158C17.769 15.8158 17.6992 15.7885 17.6308 15.7319L17.4957 15.8953C17.607 15.9874 17.7264 16.0278 17.8919 16.0278V15.8158ZM17.9979 15.8158H17.8919V16.0278H17.9979V15.8158ZM18.1039 16.0278V15.9218H17.8919V16.0278H18.1039ZM18.1039 16.1984V16.0278H17.8919V16.1984H18.1039ZM18.1039 16.3153V16.1984H17.8919V16.3153H18.1039ZM17.8712 16.4094L17.9876 16.4208L18.0083 16.2099L17.8919 16.1984L17.8712 16.4094ZM17.0558 16.3565C17.3196 16.3565 17.5947 16.3822 17.8712 16.4094L17.8919 16.1984C17.6164 16.1713 17.3315 16.1445 17.0558 16.1445V16.3565ZM16.2542 16.4082C16.5359 16.3813 16.7965 16.3565 17.0558 16.3565V16.1445C16.7847 16.1445 16.5139 16.1705 16.2341 16.1972L16.2542 16.4082ZM16.2414 16.4094L16.2542 16.4082L16.2341 16.1972L16.2213 16.1984L16.2414 16.4094ZM16.1768 16.4156L16.2414 16.4094L16.2213 16.1984L16.1566 16.2046L16.1768 16.4156ZM16.0424 16.3122L16.0773 16.367L16.2561 16.2532L16.2213 16.1984L16.0424 16.3122ZM14.5386 13.9496L16.0424 16.3122L16.2213 16.1984L14.7175 13.8358L14.5386 13.9496ZM14.4956 13.8819L14.5386 13.9496L14.7175 13.8358L14.6744 13.7681L14.4956 13.8819ZM14.5594 13.6945L14.5059 13.7544L14.664 13.8956L14.7175 13.8358L14.5594 13.6945ZM15.5858 12.5454L14.5594 13.6945L14.7175 13.8358L15.7439 12.6866L15.5858 12.5454ZM15.7341 12.3085C15.7341 12.3324 15.7315 12.3482 15.7155 12.3766C15.696 12.4114 15.6587 12.4606 15.5845 12.5469L15.7452 12.6851C15.819 12.5994 15.8693 12.5358 15.9004 12.4803C15.9352 12.4184 15.9461 12.3665 15.9461 12.3085H15.7341ZM15.7347 12.3192C15.7343 12.3151 15.7341 12.3115 15.7341 12.3085H15.9461C15.9461 12.3048 15.946 12.3006 15.9455 12.2962L15.7347 12.3192ZM15.749 12.362L15.7498 12.3632L15.9304 12.2522L15.9297 12.251L15.749 12.362ZM15.7613 12.3779C15.7591 12.3757 15.7561 12.3723 15.7529 12.3678L15.9258 12.2452C15.9214 12.239 15.9164 12.2331 15.9106 12.2274L15.7613 12.3779ZM15.7426 12.3715C15.7541 12.3755 15.7608 12.3789 15.764 12.3807C15.7675 12.3827 15.7657 12.3822 15.7613 12.3779L15.9106 12.2274C15.8877 12.2047 15.8545 12.1861 15.8132 12.1716L15.7426 12.3715ZM15.4876 12.341C15.606 12.341 15.693 12.3539 15.7426 12.3715L15.8132 12.1716C15.7307 12.1424 15.6161 12.129 15.4876 12.129V12.341ZM15.3816 12.341H15.4876V12.129H15.3816V12.341ZM15.2756 12.129V12.235H15.4876V12.129H15.2756ZM15.2756 11.9582V12.129H15.4876V11.9582H15.2756ZM15.2756 11.8435V11.9582H15.4876V11.8435H15.2756ZM15.5044 11.7469L15.39 11.7378L15.3732 11.9491L15.4876 11.9582L15.5044 11.7469ZM16.515 11.8001C16.1851 11.8001 15.8449 11.774 15.5044 11.7469L15.4876 11.9582C15.8271 11.9852 16.1754 12.0121 16.515 12.0121V11.8001ZM17.5259 11.7469C17.1851 11.774 16.8445 11.8001 16.515 11.8001V12.0121C16.8542 12.0121 17.2029 11.9852 17.5427 11.9582L17.5259 11.7469ZM17.8174 11.7237L17.5259 11.7469L17.5427 11.9582L17.8342 11.9351L17.8174 11.7237ZM16.515 12.2241C16.7655 12.2241 17.0196 12.2099 17.2681 12.192L17.2528 11.9805C17.0063 11.9983 16.758 12.0121 16.515 12.0121V12.2241ZM15.8976 12.2013C16.1022 12.2146 16.3096 12.2241 16.515 12.2241V12.0121C16.3159 12.0121 16.1135 12.0029 15.9113 11.9897L15.8976 12.2013ZM16.1581 12.3085C16.1581 12.1436 16.0459 12.0487 15.9527 12.0011L15.8563 12.1899C15.9158 12.2203 15.9461 12.2579 15.9461 12.3085H16.1581ZM15.9053 12.8241C16.0486 12.6575 16.1581 12.5217 16.1581 12.3085H15.9461C15.9461 12.4344 15.8911 12.5155 15.7446 12.6859L15.9053 12.8241ZM15.904 12.8256L15.9053 12.8241L15.7446 12.6859L15.7433 12.6874L15.904 12.8256ZM15.753 12.8356L15.753 12.8356L15.8943 12.6775L15.8942 12.6775L15.753 12.8356ZM14.929 13.9172L15.9027 12.8271L15.7446 12.6859L14.7709 13.7759L14.929 13.9172ZM16.3653 16.0298L14.9394 13.7896L14.7606 13.9035L16.1864 16.1436L16.3653 16.0298ZM17.0558 15.9325C16.7904 15.9325 16.5268 15.9564 16.2658 15.9812L16.2859 16.1922C16.5475 16.1673 16.8018 16.1445 17.0558 16.1445V15.9325ZM17.5636 15.9555C17.3959 15.9421 17.2248 15.9325 17.0558 15.9325V16.1445C17.2171 16.1445 17.3821 16.1537 17.5468 16.1668L17.5636 15.9555ZM17.3606 16.0587C17.4071 16.0971 17.4556 16.1295 17.5072 16.1557L17.6032 15.9667C17.5667 15.9481 17.5311 15.9246 17.4957 15.8953L17.3606 16.0587ZM16.9695 15.5677C17.1013 15.772 17.2205 15.9429 17.3606 16.0587L17.4957 15.8953C17.3843 15.8032 17.2809 15.6594 17.1477 15.4528L16.9695 15.5677ZM16.9691 15.567L16.9694 15.5675L17.1478 15.453L17.1475 15.4525L16.9691 15.567ZM15.7491 13.6533L16.9689 15.5668L17.1477 15.4528L15.9278 13.5394L15.7491 13.6533ZM15.7028 13.5808L15.7491 13.6533L15.9278 13.5394L15.8816 13.4668L15.7028 13.5808ZM15.7795 13.3879L15.718 13.4481L15.8664 13.5995L15.9278 13.5394L15.7795 13.3879ZM17.1863 12.0105L15.7795 13.3879L15.9278 13.5394L17.3346 12.162L17.1863 12.0105ZM14.9203 9.58687V9.42407H14.7083V9.58687H14.9203ZM14.9068 9.9496C14.9135 9.8301 14.9203 9.70676 14.9203 9.58687H14.7083C14.7083 9.69988 14.7018 9.81727 14.6952 9.93789L14.9068 9.9496ZM14.9062 9.96115L14.9068 9.9496L14.6952 9.93789L14.6945 9.94945L14.9062 9.96115ZM14.8928 10.3325C14.8928 10.2088 14.8993 10.0864 14.9062 9.96115L14.6945 9.94945C14.6876 10.0741 14.6808 10.2022 14.6808 10.3325H14.8928ZM14.8928 15.4708V10.3325H14.6808V15.4708H14.8928ZM14.9488 15.7747C14.9347 15.7619 14.8928 15.7071 14.8928 15.4708H14.6808C14.6808 15.7133 14.7197 15.8526 14.8057 15.9312L14.9488 15.7747ZM15.2127 15.8158C15.1199 15.8158 15.0576 15.8106 15.0148 15.8016C14.973 15.7928 14.9565 15.7818 14.9488 15.7747L14.8057 15.9312C14.8503 15.9719 14.906 15.9953 14.9712 16.009C15.0352 16.0225 15.1146 16.0278 15.2127 16.0278V15.8158ZM15.3187 15.8158H15.2127V16.0278H15.3187V15.8158ZM15.4247 16.0278V15.9218H15.2127V16.0278H15.4247ZM15.4247 16.1984V16.0278H15.2127V16.1984H15.4247ZM15.4247 16.3112V16.1984H15.2127V16.3112H15.4247ZM15.1997 16.41L15.3122 16.417L15.3252 16.2054L15.2127 16.1984L15.1997 16.41ZM14.9601 16.3948C15.0362 16.3997 15.1157 16.4048 15.1997 16.41L15.2127 16.1984C15.1291 16.1933 15.05 16.1881 14.9738 16.1832L14.9601 16.3948ZM14.0573 16.3566C14.3696 16.3566 14.634 16.3737 14.9601 16.3948L14.9738 16.1832C14.6483 16.1621 14.3775 16.1446 14.0573 16.1446V16.3566ZM13.0381 16.409C13.3652 16.3821 13.676 16.3566 14.0573 16.3566V16.1446C13.6663 16.1446 13.3476 16.1708 13.0207 16.1977L13.0381 16.409ZM13.0296 16.4097L13.0381 16.409L13.0207 16.1977L13.0122 16.1984L13.0296 16.4097ZM12.9149 16.4191L13.0296 16.4097L13.0122 16.1984L12.8975 16.2079L12.9149 16.4191ZM12.8002 16.1984V16.3135H13.0122V16.1984H12.8002ZM12.8002 16.0278V16.1984H13.0122V16.0278H12.8002ZM12.8002 15.9218V16.0278H13.0122V15.9218H12.8002ZM13.0122 15.8158H12.9062V16.0278H13.0122V15.8158ZM13.1664 15.7878C13.1596 15.7953 13.1377 15.8158 13.0122 15.8158V16.0278C13.145 16.0278 13.2504 16.0098 13.3226 15.9312L13.1664 15.7878ZM13.2218 15.4708C13.2218 15.7046 13.1811 15.7719 13.1664 15.7878L13.3226 15.9312C13.3948 15.8526 13.4338 15.7133 13.4338 15.4708H13.2218ZM13.2218 10.9971V15.4708H13.4338V10.9971H13.2218ZM13.1553 10.5275C13.1666 10.5429 13.1841 10.5768 13.1982 10.652C13.2122 10.7268 13.2218 10.8363 13.2218 10.9971H13.4338C13.4338 10.8294 13.424 10.7056 13.4066 10.6129C13.3892 10.5205 13.3632 10.4524 13.3261 10.4019L13.1553 10.5275ZM12.9649 10.458C13.1235 10.4943 13.1396 10.5062 13.1553 10.5275L13.3261 10.4019C13.2548 10.305 13.1483 10.2825 13.0122 10.2514L12.9649 10.458ZM12.8825 10.4392L12.9649 10.458L13.0122 10.2514L12.9298 10.2325L12.8825 10.4392ZM12.8002 10.2514V10.3358H13.0122V10.2514H12.8002ZM12.8002 10.0809V10.2514H13.0122V10.0809H12.8002ZM12.8002 9.98614V10.0809H13.0122V9.98614H12.8002ZM12.9885 9.87021L12.8943 9.8808L12.918 10.0915L13.0122 10.0809L12.9885 9.87021ZM14.6225 9.39299C14.0668 9.63885 13.5199 9.81045 12.9885 9.87021L13.0122 10.0809C13.5715 10.018 14.1399 9.83833 14.7083 9.58687L14.6225 9.39299ZM14.7714 9.32713L14.6225 9.39299L14.7083 9.58687L14.8572 9.52101L14.7714 9.32713ZM13.4968 10.2763C13.4021 10.1474 13.272 10.0982 13.1641 10.0695L13.1098 10.2745C13.2012 10.2987 13.2742 10.3313 13.3261 10.4019L13.4968 10.2763ZM13.6458 10.9971C13.6458 10.6704 13.613 10.4343 13.4968 10.2763L13.3261 10.4019C13.3971 10.4986 13.4338 10.6694 13.4338 10.9971H13.6458ZM13.6458 15.4708V10.9971H13.4338V15.4708H13.6458ZM13.4787 16.0746C13.6085 15.9333 13.6458 15.7221 13.6458 15.4708H13.4338C13.4338 15.7133 13.3948 15.8526 13.3226 15.9312L13.4787 16.0746ZM13.3763 16.1584C13.4129 16.1363 13.4474 16.1088 13.4787 16.0746L13.3226 15.9312C13.3053 15.95 13.2867 15.9649 13.2668 15.9768L13.3763 16.1584ZM14.0573 15.9326C13.7826 15.9326 13.5429 15.9452 13.3139 15.9619L13.3293 16.1733C13.5551 16.1569 13.7894 16.1446 14.0573 16.1446V15.9326ZM14.8236 15.9611C14.5653 15.9449 14.3281 15.9326 14.0573 15.9326V16.1446C14.3214 16.1446 14.5534 16.1566 14.8103 16.1727L14.8236 15.9611ZM14.6627 16.0877C14.6953 16.1175 14.7308 16.1416 14.7681 16.161L14.8658 15.9729C14.8437 15.9614 14.8237 15.9476 14.8057 15.9312L14.6627 16.0877ZM14.4688 15.4708C14.4688 15.7196 14.5048 15.9433 14.6627 16.0877L14.8057 15.9312C14.7197 15.8526 14.6808 15.7133 14.6808 15.4708H14.4688ZM14.4688 10.3325V15.4708H14.6808V10.3325H14.4688ZM14.4829 9.93775C14.476 10.0618 14.4688 10.1955 14.4688 10.3325H14.6808C14.6808 10.2022 14.6876 10.0741 14.6945 9.94945L14.4829 9.93775ZM14.4834 9.92878L14.4829 9.93775L14.6945 9.94945L14.695 9.94048L14.4834 9.92878ZM14.4927 9.74525C14.4902 9.80439 14.4869 9.8652 14.4834 9.92878L14.695 9.94048C14.6985 9.87719 14.702 9.81485 14.7045 9.75394L14.4927 9.74525ZM13.1516 10.277C13.6486 10.2078 14.1468 10.054 14.6396 9.84734L14.5576 9.65185C14.0767 9.85356 13.5965 10.001 13.1224 10.067L13.1516 10.277Z" fill="#29B4B4"/>
<path fill-rule="evenodd" clip-rule="evenodd" d="M17.5667 12.4382V11.8848H18.0189V11.2851C18.3285 11.151 18.6967 10.8645 18.9394 10.5784H19.1567V11.8848H19.9266V12.4382H19.1567V14.7487C19.1567 15.2138 19.3493 15.4106 19.6672 15.4106C19.8679 15.4106 20.0354 15.3302 20.1691 15.2138L20.0771 15.9925C19.8262 16.1268 19.5334 16.1982 19.2069 16.1982C18.1945 16.1982 18.0189 15.5092 18.0189 14.8471V12.4382H17.5667Z" fill="#FEFEFE"/>
<path fill-rule="evenodd" clip-rule="evenodd" d="M17.5667 12.4382V11.8848H18.0189V11.2851C18.3285 11.151 18.6967 10.8645 18.9394 10.5784H19.1567V11.8848H19.9266V12.4382H19.1567V14.7487C19.1567 15.2138 19.3493 15.4106 19.6672 15.4106C19.8679 15.4106 20.0354 15.3302 20.1691 15.2138L20.0771 15.9925C19.8262 16.1268 19.5334 16.1982 19.2069 16.1982C18.1945 16.1982 18.0189 15.5092 18.0189 14.8471V12.4382H17.5667Z" stroke="#29B4B4" stroke-width="0.212"/>
<path fill-rule="evenodd" clip-rule="evenodd" d="M8.40685 6.13272C8.40685 6.13272 8.46008 6.20436 8.53699 6.22342C8.43503 6.27211 8.40685 6.13272 8.40685 6.13272ZM8.23346 6.306C8.23346 6.306 8.38334 6.24173 8.32317 6.03055C8.5241 6.34258 8.23346 6.306 8.23346 6.306ZM8.16375 5.92612C8.16375 5.92612 8.21684 5.99776 8.29403 6.01654C8.19193 6.06523 8.16375 5.92612 8.16375 5.92612ZM7.96116 5.74817C7.96116 5.74817 8.01438 5.81981 8.09143 5.83845C7.98934 5.88728 7.96116 5.74817 7.96116 5.74817ZM7.78517 5.93222C7.78517 5.93222 7.95452 5.86683 7.88999 5.6704C8.09092 5.98285 7.78517 5.93222 7.78517 5.93222ZM7.77383 5.55105C7.77383 5.55105 7.8031 5.62576 7.88137 5.67125C7.74619 5.66499 7.77383 5.55105 7.77383 5.55105ZM7.58136 5.72011C7.58136 5.72011 7.73111 5.64971 7.66917 5.42866C7.87009 5.74056 7.58136 5.72011 7.58136 5.72011ZM7.29473 5.53856C7.29473 5.53856 7.42228 5.21025 7.28084 4.82476C7.56468 5.27619 7.29473 5.53856 7.29473 5.53856ZM6.95326 5.33262C6.95326 5.33262 7.08109 4.98734 7.02732 4.6063C7.22689 5.0804 6.95326 5.33262 6.95326 5.33262ZM6.52317 5.0299C6.52317 5.0299 6.76845 4.77838 6.79764 4.41099C6.90337 4.87785 6.52317 5.0299 6.52317 5.0299ZM6.10449 4.66894C6.10449 4.66894 6.40816 4.53734 6.58714 4.20598C6.51211 4.66588 6.10449 4.66894 6.10449 4.66894ZM5.70655 4.26061C5.70655 4.26061 6.15401 4.1841 6.39806 3.95303C6.23804 4.31222 5.70655 4.26061 5.70655 4.26061ZM5.35596 3.76179C5.35596 3.76179 5.915 3.79852 6.21595 3.69933C5.97271 3.92108 5.35596 3.76179 5.35596 3.76179ZM5.17246 3.34817C5.17246 3.34817 5.76657 3.48965 6.11021 3.45974C5.80408 3.61067 5.17246 3.34817 5.17246 3.34817ZM5.03725 2.93514C5.03725 2.93514 5.64569 3.15508 6.01525 3.1797C5.66628 3.27194 5.03725 2.93514 5.03725 2.93514ZM4.96987 2.5718C4.96987 2.5718 5.58157 2.85045 5.96682 2.91722C5.58935 2.96243 4.96987 2.5718 4.96987 2.5718ZM8.73575 6.51995C8.70915 6.50159 8.67381 6.43273 8.6584 6.40519C8.61597 6.49853 8.48174 6.49951 8.48174 6.49951C8.48174 6.49951 8.65049 6.46737 8.576 6.26162C8.59073 6.28291 8.60274 6.30224 8.61283 6.32005C8.61638 6.27386 8.63193 6.22893 8.6599 6.19192C8.58773 6.09802 8.54162 5.96308 8.59987 5.87711C8.52416 5.78877 8.49197 5.65439 8.5494 5.56313C8.48269 5.48133 8.44927 5.35057 8.49961 5.26821C8.43467 5.19323 8.42758 5.08917 8.48419 5.01572C8.42894 4.9374 8.43917 4.83014 8.50056 4.75126C8.39879 4.67447 8.31462 4.54273 8.34818 4.45885C8.21122 4.34644 8.14273 4.16393 8.2591 4.04957C8.1561 3.97431 8.05815 3.86692 8.03278 3.74839C7.92296 3.68287 7.82065 3.60942 7.73456 3.52832C7.29216 3.11167 6.89981 2.91148 6.8372 2.92025C6.77485 2.92901 6.90295 2.99871 6.94347 3.10471C6.8035 3.05936 6.8286 3.08065 6.54294 2.91371C6.22795 2.72883 5.59605 2.51139 5.46386 2.46757C4.83756 2.2596 4.15164 1.81527 4.23595 1.99208C4.31425 2.15638 4.61083 2.37409 4.89963 2.53184C4.6669 2.4755 4.20716 2.30453 4.24208 2.38564C4.31343 2.55215 4.77439 2.86697 5.01668 2.91705C4.85475 2.93249 4.34876 2.75123 4.42543 2.88005C4.51833 3.03613 4.822 3.24466 5.14682 3.33954C5.12185 3.36653 4.68709 3.27221 4.71901 3.35901C4.76157 3.47559 5.11967 3.69275 5.3258 3.76467C5.16237 3.80905 5.04614 3.75966 5.10699 3.87012C5.15828 3.96374 5.41366 4.14514 5.65976 4.25463C5.59428 4.29984 5.47982 4.33754 5.54203 4.41906C5.6468 4.55609 5.88417 4.63371 6.07488 4.66835C5.98335 4.74236 5.95606 4.81637 6.03969 4.88746C6.11472 4.95103 6.3304 5.05398 6.49246 5.03853C6.34636 5.21354 6.73638 5.38242 6.94156 5.34681C6.87457 5.5431 7.17797 5.6306 7.29175 5.60027C7.20935 5.69139 7.49569 5.79128 7.57291 5.72882C7.54644 5.83691 7.69186 5.98687 7.77385 5.95168C7.74575 6.02429 7.87235 6.1641 7.97998 6.11625C7.97998 6.11625 8.14833 6.0549 8.09553 5.85666C8.29689 6.16897 7.97998 6.11625 7.97998 6.11625C7.93906 6.19165 8.12472 6.3469 8.21722 6.31434C8.19239 6.37945 8.36973 6.55042 8.49115 6.51717C8.45186 6.58951 8.63398 6.6695 8.75676 6.67827C8.71392 6.62958 8.69359 6.55612 8.73575 6.51995ZM11.5367 9.44349C11.4899 9.4485 11.4757 9.35279 11.4757 9.35279C11.4757 9.35279 11.3771 9.21382 11.2409 9.10823C11.1457 9.03464 10.9816 9.00793 10.8917 8.99833C10.8852 9.0025 10.8786 9.0064 10.8723 9.01029C10.8066 9.05119 10.647 9.17779 10.5654 9.2895C10.6844 9.28644 10.8719 9.29005 10.9356 9.33346C11.0485 9.40997 11.0648 9.53948 11.14 9.57774C11.2152 9.616 11.18 9.52474 11.2362 9.52474C11.2831 9.52474 11.4457 9.72729 11.5038 9.80728C11.5403 9.65439 11.569 9.4403 11.5367 9.44349ZM16.0655 5.25187C16.0353 5.31808 15.8698 5.31294 15.8329 5.37401C15.8136 5.40559 15.8064 5.45998 15.8048 5.55166C15.8048 5.55166 15.7678 5.39376 15.8064 5.34006C15.8451 5.28595 16.0143 5.28595 16.0459 5.22307C16.0725 5.17007 16.0519 5.14169 16.0449 5.1339C16.0549 5.14475 16.0929 5.19121 16.0655 5.25187ZM15.669 4.94118C15.6552 4.94118 15.566 4.97081 15.5388 4.90877C15.5159 4.8566 15.4367 4.83685 15.4367 4.83685C15.4367 4.83685 15.5095 4.83754 15.5405 4.83351C15.5669 4.82975 15.611 4.80638 15.6392 4.82085C15.6673 4.83532 15.6822 4.87455 15.6849 4.90168C15.6866 4.91962 15.7361 4.96275 15.7361 4.96275C15.7361 4.96275 15.6832 4.94118 15.669 4.94118ZM10.1927 7.0027C10.2927 7.06099 10.5519 6.8302 10.5519 6.8302C10.5519 6.8302 10.2772 7.15308 10.1572 7.05292C10.0598 6.9714 10.1903 6.8398 10.2349 6.79918C10.2072 6.8053 10.1808 6.80446 10.1572 6.79417C10.0335 6.74047 10.1922 6.53542 10.2796 6.43595C10.232 6.45765 10.1853 6.46628 10.1469 6.44958C9.98139 6.37766 10.5306 5.81397 10.5306 5.81397C10.5306 5.81397 10.1345 6.31061 10.1892 6.38476C10.2418 6.45668 10.5413 6.22686 10.5413 6.22686C10.5413 6.22686 10.4227 6.36069 10.3023 6.42496C10.2527 6.50509 10.1589 6.67383 10.1998 6.72962C10.2525 6.80154 10.5519 6.57172 10.5519 6.57172C10.5519 6.57172 10.3812 6.7644 10.2411 6.79806C10.2144 6.8359 10.1297 6.96597 10.1927 7.0027ZM10.1046 9.54889C10.1046 9.54889 10.2595 9.02693 10.2737 8.69654C10.344 9.10359 10.1046 9.54889 10.1046 9.54889ZM9.8039 9.86973C9.8039 9.86973 10.0061 9.34291 10.0201 9.01252C10.0907 9.41943 9.8039 9.86973 9.8039 9.86973ZM9.55058 10.0706C9.55058 10.0706 9.79477 9.60634 9.79941 9.22322C9.86994 9.63041 9.55058 10.0706 9.55058 10.0706ZM9.32044 10.1905C9.32044 10.1905 9.57404 9.75476 9.58795 9.37178C9.65862 9.77883 9.32044 10.1905 9.32044 10.1905ZM9.11853 10.3197C9.11853 10.3197 9.38155 9.86971 9.38619 9.51052C9.45672 9.91784 9.11853 10.3197 9.11853 10.3197ZM8.91663 10.4154C8.91663 10.4154 9.21225 9.96096 9.20297 9.61109C9.2735 10.018 8.91663 10.4154 8.91663 10.4154ZM9.42547 0.907147C9.42547 0.907147 9.75575 1.51327 10.0842 1.82585C9.63883 1.58978 9.42547 0.907147 9.42547 0.907147ZM9.09165 1.18496C9.09165 1.18496 9.48386 1.75143 9.84346 2.02632C9.37582 1.84032 9.09165 1.18496 9.09165 1.18496ZM8.77381 1.54234C8.77381 1.54234 9.23859 2.04858 9.63175 2.27046C9.14337 2.15166 8.77381 1.54234 8.77381 1.54234ZM8.5063 1.93326C8.5063 1.93326 9.05075 2.34866 9.47584 2.49695C8.97463 2.46718 8.5063 1.93326 8.5063 1.93326ZM8.31858 2.49594C8.31858 2.49594 8.8719 2.76096 9.38429 2.78544C8.81706 2.90146 8.31858 2.49594 8.31858 2.49594ZM8.5599 4.42078C8.5599 4.42078 9.05851 4.30198 9.33885 3.95781C9.13477 4.44387 8.5599 4.42078 8.5599 4.42078ZM9.21346 6.32367C9.21346 6.32367 9.217 6.41006 9.29446 6.45291C9.12919 6.46738 9.21346 6.32367 9.21346 6.32367ZM8.99834 6.72669C8.99834 6.72669 9.21225 6.69623 9.28032 6.50355C9.30311 6.81948 8.99834 6.72669 8.99834 6.72669ZM8.84733 6.46473C8.84733 6.46473 9.05155 6.49547 9.1877 6.27943C9.14227 6.6343 8.84733 6.46473 8.84733 6.46473ZM9.19738 6.24383C9.03647 6.20321 9.16157 6.09484 9.16157 6.09484C9.16157 6.09484 9.13775 6.17775 9.19738 6.24383ZM8.8019 6.18695C8.8019 6.18695 9.00599 6.23049 9.13954 6.02238C9.05632 6.37712 8.8019 6.18695 8.8019 6.18695ZM8.73386 5.86282C8.73386 5.86282 8.94586 5.96089 9.09701 5.77824C8.97587 6.12546 8.73386 5.86282 8.73386 5.86282ZM9.09874 5.72665C8.93797 5.68603 9.06321 5.5778 9.06321 5.5778C9.06321 5.5778 9.03925 5.66057 9.09874 5.72665ZM9.1376 5.98915C8.9767 5.94825 9.1018 5.83988 9.1018 5.83988C9.1018 5.83988 9.07798 5.92266 9.1376 5.98915ZM8.6888 5.56607C8.6888 5.56607 8.91772 5.6309 9.08919 5.45408C8.95318 5.79352 8.6888 5.56607 8.6888 5.56607ZM9.03838 5.27588C9.03838 5.27588 9.01456 5.35879 9.07432 5.42515C8.91327 5.38452 9.03838 5.27588 9.03838 5.27588ZM9.02431 5.02105C9.02431 5.02105 9.00049 5.10396 9.06011 5.17004C8.89907 5.12928 9.02431 5.02105 9.02431 5.02105ZM8.65839 4.73685C8.65839 4.73685 8.89303 4.79722 9.07433 4.61359C8.93819 4.95289 8.65839 4.73685 8.65839 4.73685ZM9.02635 4.91657C8.89198 4.81794 9.04717 4.76466 9.04717 4.76466C9.04717 4.76466 8.99504 4.83254 9.02635 4.91657ZM8.63563 5.01465C8.63563 5.01465 8.8861 5.09186 9.0363 4.92228C8.90015 5.26172 8.63563 5.01465 8.63563 5.01465ZM8.43125 4.05028C8.43125 4.05028 8.94951 3.92104 9.31621 3.6417C8.99862 4.08255 8.43125 4.05028 8.43125 4.05028ZM8.28118 3.0342C8.28118 3.0342 8.74501 3.16344 9.30105 3.07872C8.71104 3.31785 8.28118 3.0342 8.28118 3.0342ZM8.31805 3.55701C8.31805 3.55701 8.85432 3.56926 9.29345 3.35655C8.88528 3.72687 8.31805 3.55701 8.31805 3.55701ZM16.2091 5.24403C15.8498 4.90766 15.854 4.68076 15.4248 4.56391C14.7325 4.37583 14.3167 4.69342 14.0915 4.77466C13.931 4.83281 13.5159 5.01422 13.084 4.88011C12.652 4.74601 12.3633 4.85159 12.1379 4.81292C11.9124 4.77466 11.255 4.02776 11.255 3.45322C11.255 2.87855 11.0672 2.47623 10.9921 2.43783C10.917 2.39986 10.9733 2.53368 10.8983 2.62939C10.8021 2.50266 10.8043 2.53368 10.6915 2.22735C10.5673 1.88917 10.1477 1.30809 10.0581 1.18762C9.63367 0.616279 9.40981 -0.14676 9.30176 0.0244893C9.20095 0.183774 9.26889 0.529889 9.39616 0.832879C9.21514 0.633946 8.92415 0.202555 8.87013 0.278928C8.7599 0.434457 8.8925 0.957803 9.09045 1.15966C8.90369 1.0556 8.57574 0.585674 8.51285 0.721171C8.43645 0.885603 8.5224 1.23088 8.75677 1.51857C8.70056 1.51857 8.35064 1.15381 8.28735 1.23116C8.20249 1.33508 8.33564 1.7239 8.47151 1.91435C8.25078 1.82782 8.18462 1.71486 8.12528 1.8274C8.07494 1.92297 8.14042 2.21706 8.27616 2.45954C8.15734 2.44201 7.99582 2.38567 7.97058 2.4811C7.92747 2.64177 8.08967 2.8574 8.25078 3.01293C8.07276 2.99582 7.96185 3.02364 7.97058 3.12756C7.97795 3.22035 8.08967 3.43681 8.27616 3.54059C7.92829 3.54935 8.14888 3.93024 8.40357 4.05127C8.11505 4.12932 8.33564 4.39725 8.48843 4.45818C8.30058 4.45818 8.48925 4.72222 8.63944 4.73641C8.49157 4.78663 8.47683 4.98389 8.60207 5.01895C8.4917 5.04538 8.46892 5.22289 8.63481 5.2681C8.63481 5.2681 8.879 5.34712 9.04393 5.18449C8.90778 5.52365 8.63481 5.2681 8.63481 5.2681C8.50794 5.28716 8.52976 5.51614 8.66305 5.56024C8.56441 5.58403 8.55991 5.8169 8.72402 5.8809C8.59729 5.89995 8.63481 6.11071 8.76645 6.19696C8.60684 6.26388 8.69592 6.4955 8.81324 6.49856C8.63481 6.72379 8.96358 6.74757 8.96358 6.74757C8.96358 6.74757 8.89796 6.90102 8.94462 7.02052C8.98704 7.12861 9.49534 6.75537 9.63967 6.61375C10.0196 6.24092 10.1406 6.13297 10.5186 5.54675C10.2918 6.15606 9.53095 6.78625 9.55277 6.78625C9.59779 6.78569 9.82752 6.77178 9.84867 6.90102C9.86422 6.9952 9.68906 7.22891 9.54595 8.20354C9.4963 8.53978 9.26657 8.8091 9.05757 9.7164C8.94516 10.2041 8.74162 10.3606 8.73821 10.5018C8.73617 10.5767 8.80151 10.5401 8.8719 10.4861C8.86481 10.5726 9.04789 10.5006 9.07612 10.3677C9.07612 10.5209 9.22782 10.3713 9.29099 10.2742C9.28034 10.3999 9.47079 10.2706 9.52713 10.1187C9.51662 10.2706 9.72098 10.0732 9.77118 9.94622C9.8896 10.0806 10.0907 9.62069 10.0907 9.62069C10.0907 9.62069 10.1433 9.72169 10.2457 9.67341C10.3676 9.61596 10.4368 9.40089 10.4662 9.29516C10.5085 9.14269 10.5519 8.98146 10.5662 8.66929C10.5743 8.59612 10.5657 8.37103 10.693 8.12327C10.6152 8.37451 10.6209 8.57817 10.6224 8.66192C10.6253 8.8468 10.5977 9.01388 10.5343 9.29029C10.5448 9.2366 10.6353 9.08802 10.8278 8.99343L11.1329 8.79714L10.9029 8.49039C10.9029 8.49039 11.4947 9.05116 11.5228 9.07954C11.5509 9.10819 11.5367 9.29029 11.5273 9.34775C11.518 9.40534 11.6028 9.41939 11.6028 9.41939C11.6028 9.41939 11.5745 9.7598 11.5367 9.8697C11.5367 9.8697 11.4923 10.109 11.5932 10.157C11.6871 10.0037 11.8726 10.2742 11.8562 10.5018C11.9077 10.4826 12.0064 10.389 12.0064 10.389C12.0064 10.389 12.1262 10.4609 12.1754 10.5785C12.2881 10.4061 11.9711 9.16078 11.8752 8.96964C11.7827 8.78601 11.2504 8.50138 11.1681 8.36741C11.3161 8.47871 11.3794 8.50402 11.4571 8.54687C12.1344 8.15012 12.8998 6.52305 12.9644 6.44139C13.091 6.28057 13.6549 6.30241 14.204 5.72036C14.3917 5.52157 14.6827 5.65094 15.1479 5.66277C15.4226 5.67042 15.6503 5.5793 15.8195 5.61755C15.9885 5.65595 16.8969 5.8713 16.9158 5.75653C16.9295 5.67292 16.4087 5.43086 16.2091 5.24403Z" fill="#FEFEFE"/>
<path fill-rule="evenodd" clip-rule="evenodd" d="M10.9146 8.92387L11.1458 8.77588L11.1725 8.75878L11.1535 8.7334L11.1319 8.70471C11.296 8.85988 11.483 9.03669 11.4979 9.05186C11.5116 9.07352 11.5066 9.21199 11.4956 9.2855L11.4949 9.28468C11.4908 9.27902 11.3928 9.14234 11.2555 9.03628C11.1664 8.96773 11.0249 8.93725 10.9146 8.92387ZM10.2145 7.01153C10.1996 7.01153 10.1876 7.00753 10.1775 6.99912C10.1721 6.9947 10.1676 6.99001 10.1642 6.98519C10.1689 6.99001 10.1739 6.99401 10.1798 6.99746C10.1937 7.00546 10.2099 7.00988 10.2279 7.01056C10.2233 7.01125 10.2189 7.01153 10.2145 7.01153ZM10.2032 6.74483C10.191 6.74483 10.1805 6.74276 10.1706 6.73834C10.1507 6.72993 10.1459 6.71848 10.1439 6.70952C10.139 6.68676 10.1484 6.65283 10.1705 6.6109C10.1584 6.65918 10.1608 6.69531 10.1782 6.7189C10.1854 6.72869 10.1984 6.74 10.2206 6.74345C10.2145 6.74441 10.2088 6.74483 10.2032 6.74483ZM9.15245 6.67557C9.18185 6.65888 9.21221 6.63667 9.23958 6.60785C9.23402 6.61916 9.22725 6.62922 9.21952 6.63777C9.20286 6.65612 9.18036 6.66881 9.15245 6.67557ZM9.00023 6.44953C9.0402 6.43602 9.08424 6.41354 9.1272 6.37699C9.09928 6.42526 9.05728 6.44953 9.00226 6.44953H9.00023ZM10.1932 6.403C10.1811 6.403 10.17 6.40093 10.1601 6.39666C10.1527 6.39335 10.149 6.38907 10.1477 6.38135C10.144 6.36342 10.1505 6.3379 10.1646 6.30715C10.1563 6.33776 10.1566 6.3619 10.1679 6.37693C10.1752 6.38686 10.1882 6.39831 10.211 6.40162C10.2047 6.40245 10.1988 6.403 10.1932 6.403ZM8.33169 6.24402C8.34862 6.2214 8.36367 6.19189 8.37139 6.15437C8.37722 6.17989 8.37654 6.20058 8.36854 6.21547C8.36109 6.22954 8.34713 6.23851 8.33169 6.24402ZM8.94861 6.18428C8.98208 6.17545 9.01813 6.16069 9.05431 6.13655C9.02721 6.16828 8.99374 6.18441 8.95457 6.18441C8.95281 6.18441 8.95064 6.18441 8.94861 6.18428ZM8.08723 6.06236C8.10972 6.03794 8.12897 6.00595 8.13899 5.96609C8.14645 5.99367 8.14645 6.0156 8.13845 6.03077C8.12897 6.04843 8.1085 6.05767 8.08723 6.06236ZM8.87526 5.89744C8.92337 5.8973 8.96849 5.88737 9.00996 5.86806C8.98475 5.89385 8.95657 5.90696 8.9254 5.90696C8.9086 5.90696 8.89166 5.90337 8.87526 5.89744ZM7.89224 5.87849C7.91216 5.85601 7.9291 5.82773 7.93832 5.79325C7.94482 5.82249 7.94089 5.83973 7.93561 5.84925C7.92748 5.86484 7.91054 5.87366 7.89224 5.87849ZM7.6843 5.65574C7.70042 5.63188 7.71465 5.6014 7.72156 5.56306C7.72766 5.59312 7.72373 5.61298 7.71668 5.62622C7.70964 5.6396 7.69798 5.64898 7.6843 5.65574ZM8.83807 5.58695C8.88523 5.58309 8.93957 5.57164 8.99418 5.54544C8.96192 5.57674 8.9248 5.59233 8.88279 5.59233C8.86761 5.59233 8.85243 5.5904 8.83807 5.58695ZM8.78225 5.30064C8.84662 5.30064 8.90596 5.28892 8.95893 5.26602C8.92729 5.29829 8.89089 5.31457 8.84961 5.31457C8.82489 5.31457 8.80072 5.30905 8.77818 5.30064H8.78225ZM7.38434 5.31703C7.39112 5.25896 7.3941 5.19124 7.38935 5.11676C7.40263 5.19497 7.39762 5.26213 7.38434 5.31703ZM8.78076 5.04765C8.83971 5.04723 8.89351 5.03675 8.94134 5.01675C8.91153 5.04406 8.87793 5.05771 8.84066 5.05771C8.81993 5.05771 8.79987 5.05371 8.78076 5.04765ZM7.04771 5.14215C7.06424 5.06437 7.07969 4.96658 7.08429 4.8579C7.09663 4.97651 7.07603 5.0714 7.04771 5.14215ZM15.5199 4.85073C15.5204 4.85073 15.5211 4.8506 15.5218 4.85046C15.5319 4.84908 15.5426 4.84577 15.5539 4.84232C15.5676 4.83832 15.5829 4.83363 15.5942 4.83363C15.598 4.83363 15.6012 4.83418 15.6029 4.83501C15.6188 4.84315 15.6306 4.87101 15.6326 4.89197C15.6329 4.89459 15.6334 4.89735 15.6345 4.90011C15.6325 4.90039 15.6306 4.9008 15.6281 4.90108C15.6176 4.90314 15.6025 4.9059 15.5876 4.9059C15.5562 4.9059 15.547 4.89432 15.5425 4.88425C15.5369 4.87142 15.5289 4.86025 15.5199 4.85073ZM8.82106 4.76068C8.86863 4.75502 8.92175 4.74178 8.97554 4.71544C8.94099 4.74744 8.90061 4.76357 8.85494 4.76357C8.84342 4.76357 8.83204 4.76247 8.82106 4.76068ZM6.67835 4.88467C6.72117 4.8164 6.76751 4.72744 6.80058 4.62248C6.78648 4.74164 6.7335 4.8266 6.67835 4.88467ZM6.30271 4.58548C6.36776 4.53804 6.4434 4.47239 6.51469 4.38563C6.45766 4.49183 6.37632 4.55183 6.30271 4.58548ZM8.86006 4.3397C8.95973 4.29488 9.07326 4.23323 9.17973 4.15144C9.08304 4.25033 8.96585 4.30715 8.86006 4.3397ZM6.03721 4.1989C6.11095 4.17201 6.19012 4.13767 6.26535 4.09463C6.19704 4.1476 6.11543 4.17973 6.03721 4.1989ZM8.71926 3.98733C8.83794 3.94361 8.98216 3.88292 9.12339 3.80348C8.99031 3.90623 8.84351 3.95975 8.71926 3.98733ZM8.64986 3.56502C8.76759 3.55054 8.90733 3.52585 9.04923 3.48378C8.90665 3.54571 8.76338 3.56364 8.64986 3.56502ZM8.83356 3.14738C8.74163 3.14738 8.6592 3.1362 8.58804 3.12034C8.68242 3.13124 8.79472 3.13952 8.91939 3.13952C8.93704 3.13952 8.95469 3.13938 8.97235 3.13896C8.92604 3.14462 8.87973 3.14738 8.83356 3.14738ZM9.04665 2.7739C8.91289 2.75749 8.78972 2.71873 8.68489 2.67446C8.79271 2.71032 8.91683 2.74646 9.04665 2.7739ZM9.12853 2.37668C9.05384 2.34095 8.98309 2.29875 8.91804 2.25475C8.98472 2.29572 9.05588 2.33737 9.12853 2.37668ZM9.31049 2.09091C9.24368 2.04292 9.18176 1.98913 9.12567 1.93465C9.18393 1.98651 9.24626 2.03974 9.31049 2.09091ZM9.55 1.80555C9.49037 1.74859 9.4359 1.68653 9.38779 1.62432C9.43847 1.68404 9.49308 1.74583 9.55 1.80555ZM9.81617 1.57604C9.76278 1.51274 9.71508 1.44474 9.67361 1.37757C9.71792 1.44267 9.76589 1.51012 9.81617 1.57604ZM9.34227 0C9.32625 0 9.30316 0.00648234 9.2832 0.0377907C9.18937 0.185505 9.23133 0.458867 9.31511 0.708368C9.28863 0.675818 9.26147 0.641889 9.23486 0.608236C9.05031 0.376803 8.95661 0.267845 8.89509 0.267707C8.8788 0.267707 8.86413 0.275155 8.85449 0.288671C8.76323 0.417076 8.82393 0.774433 8.95457 1.02462C8.92157 0.992212 8.88749 0.957455 8.85395 0.923113C8.7134 0.779122 8.62377 0.690852 8.55709 0.690852C8.53007 0.690852 8.50848 0.705334 8.49612 0.731815C8.42333 0.887529 8.48784 1.16655 8.64332 1.4148C8.63803 1.41053 8.63287 1.40625 8.62784 1.40212C8.49028 1.28957 8.38816 1.20999 8.32325 1.20999C8.29826 1.20999 8.2836 1.22158 8.27558 1.23123C8.1865 1.34019 8.29392 1.6632 8.40568 1.86195C8.37241 1.8454 8.34375 1.82912 8.31863 1.81492C8.2673 1.78595 8.23023 1.76499 8.19546 1.76499C8.144 1.76499 8.11915 1.81188 8.111 1.82719C8.0579 1.9276 8.11358 2.19338 8.23281 2.42853C8.22846 2.4277 8.22398 2.42674 8.21923 2.42577C8.17034 2.41626 8.11969 2.40633 8.07637 2.40633C8.00888 2.40633 7.96787 2.43157 7.95442 2.48149C7.90852 2.65238 8.07243 2.86188 8.18677 2.98257C8.18188 2.98257 8.17727 2.98243 8.17265 2.98243C8.07895 2.98243 8.01675 3.00105 7.9824 3.03898C7.96013 3.06353 7.95035 3.09497 7.95347 3.13262C7.9604 3.21717 8.0488 3.40254 8.20443 3.5206C8.12064 3.54198 8.09117 3.59232 8.08234 3.63576C8.05546 3.76596 8.1918 3.94499 8.34335 4.04057C8.26771 4.07767 8.2472 4.13104 8.24489 4.17311C8.23946 4.272 8.33167 4.38054 8.4217 4.44095C8.39549 4.46081 8.39142 4.48936 8.39088 4.50109C8.38735 4.57929 8.47887 4.68673 8.5738 4.73266C8.52002 4.77528 8.49653 4.83845 8.49788 4.89265C8.49911 4.93899 8.51771 4.9783 8.5484 5.00464C8.51622 5.03112 8.49598 5.07167 8.49558 5.11663C8.49476 5.16325 8.51622 5.21856 8.57461 5.25456C8.5503 5.27759 8.53509 5.31124 8.53156 5.3522C8.52599 5.41868 8.55343 5.49923 8.61399 5.54419C8.59159 5.5686 8.57733 5.60488 8.57461 5.64819C8.56986 5.72018 8.59783 5.80542 8.66817 5.85755C8.64903 5.8741 8.63586 5.89727 8.62988 5.92582C8.61318 6.00389 8.65364 6.10512 8.72277 6.16953C8.67687 6.20484 8.65419 6.26001 8.66098 6.32304L8.6455 6.35724L8.65039 6.2978C8.65405 6.2556 8.66804 6.21711 8.69153 6.18622L8.70525 6.16815L8.6914 6.15022C8.62811 6.06802 8.58262 5.94624 8.6326 5.87286L8.64536 5.8541L8.63069 5.83686C8.56864 5.76459 8.53075 5.64336 8.58289 5.56061L8.5943 5.54254L8.58072 5.52612C8.52423 5.45716 8.49014 5.33869 8.53346 5.26807L8.54501 5.24945L8.53061 5.23304C8.47507 5.16904 8.46923 5.08146 8.51649 5.02023L8.5298 5.00299L8.5173 4.98506C8.4714 4.92009 8.47752 4.82893 8.53251 4.75817L8.55112 4.73445L8.52708 4.71638C8.42523 4.63984 8.36032 4.52288 8.38517 4.46095L8.39332 4.44068L8.37662 4.42702C8.29568 4.3611 8.24326 4.27131 8.23987 4.19269C8.23756 4.14277 8.2544 4.10001 8.28971 4.06539L8.31469 4.04084L8.28645 4.02043C8.17088 3.9363 8.09307 3.83382 8.07243 3.73934L8.06985 3.72679L8.05899 3.72031C7.94397 3.65204 7.84592 3.57991 7.76716 3.50598C7.33953 3.1049 6.9483 2.89498 6.85881 2.89498C6.85555 2.89498 6.85283 2.89512 6.85039 2.89554C6.82432 2.89912 6.81454 2.91264 6.81074 2.9234C6.80137 2.95015 6.82174 2.97195 6.85243 3.00505C6.86628 3.01994 6.88271 3.03773 6.89765 3.05732C6.82717 3.03553 6.79716 3.0216 6.57567 2.89264C6.23156 2.69141 5.52582 2.45763 5.49608 2.44784C5.21444 2.35474 4.92396 2.21517 4.69026 2.10276C4.46062 1.99242 4.33786 1.93477 4.28015 1.93477C4.25408 1.93477 4.24145 1.94636 4.23534 1.95615C4.22094 1.97973 4.23452 2.00787 4.23873 2.01711C4.30486 2.15489 4.50992 2.31861 4.71674 2.45019C4.70275 2.44605 4.68863 2.44177 4.67491 2.4375C4.51521 2.3895 4.36475 2.34399 4.29807 2.34399H4.2978C4.28816 2.34399 4.25991 2.34412 4.24647 2.36536C4.24199 2.37212 4.23588 2.3866 4.24471 2.40646C4.29902 2.53308 4.56641 2.7401 4.80406 2.86106C4.78613 2.85747 4.7682 2.85375 4.75028 2.84988C4.65088 2.82906 4.55704 2.80933 4.49797 2.80933C4.47271 2.80933 4.43767 2.81237 4.4226 2.8394C4.41622 2.85113 4.41174 2.8714 4.42885 2.89995C4.51168 3.03842 4.73493 3.198 4.9791 3.30213C4.92953 3.2973 4.87793 3.29303 4.83529 3.29303C4.77214 3.29303 4.73874 3.30254 4.72312 3.32503C4.71443 3.33799 4.71266 3.35385 4.7185 3.36985C4.76142 3.48667 5.0455 3.66142 5.24526 3.75107C5.23032 3.75286 5.21607 3.75396 5.20303 3.75507C5.14857 3.75962 5.10933 3.76307 5.09276 3.79465C5.07823 3.82224 5.09249 3.8552 5.10661 3.88071C5.15862 3.97505 5.39084 4.14125 5.6202 4.25117C5.57457 4.27765 5.52867 4.30565 5.51971 4.35144C5.51482 4.37668 5.52229 4.40261 5.54212 4.42854C5.65306 4.57308 5.89234 4.64453 6.03357 4.67515C5.99921 4.71225 5.98223 4.74852 5.98156 4.78493C5.98115 4.82534 6.00138 4.86313 6.04199 4.89748C6.11559 4.95968 6.30272 5.04864 6.45902 5.05526C6.44313 5.09691 6.45142 5.13374 6.46337 5.16008C6.51796 5.28049 6.73632 5.36448 6.89819 5.36448C6.90593 5.36448 6.9134 5.3642 6.92087 5.36379C6.91611 5.40668 6.92644 5.44723 6.95169 5.48337C7.01253 5.56998 7.15322 5.61674 7.25466 5.61674C7.25751 5.61674 7.26036 5.61674 7.26308 5.6166C7.26335 5.62612 7.26539 5.63577 7.2696 5.64529C7.29961 5.71494 7.4316 5.7577 7.51295 5.7577C7.52843 5.7577 7.54268 5.75645 7.55559 5.75383C7.55966 5.79218 7.57718 5.833 7.60665 5.87121C7.64929 5.92665 7.70551 5.96196 7.75453 5.96444C7.75711 5.98734 7.76661 6.01202 7.78277 6.03602C7.81238 6.0803 7.87308 6.13229 7.94587 6.13229C7.94994 6.13229 7.95415 6.13202 7.95823 6.1316C7.9604 6.14567 7.96597 6.16181 7.97642 6.17974C8.01567 6.24746 8.1167 6.32276 8.19913 6.32331C8.20293 6.34 8.21149 6.35793 8.22425 6.37697C8.27273 6.44924 8.37703 6.52399 8.4676 6.52427C8.46923 6.5324 8.47208 6.5404 8.47616 6.5484C8.51595 6.62261 8.67116 6.67322 8.7631 6.67971L8.78157 6.68095C8.82434 6.71984 8.88966 6.73653 8.93149 6.7437C8.91383 6.79901 8.88871 6.90755 8.92538 7.00051C8.93094 7.01458 8.94629 7.0383 8.98757 7.0383C9.13057 7.0383 9.55072 6.71819 9.66398 6.60757L9.71585 6.55682C9.78362 6.49075 9.84282 6.43296 9.89741 6.37821C9.77316 6.5102 9.66208 6.61488 9.59852 6.67502C9.52207 6.74687 9.52207 6.74687 9.53022 6.76784L9.53728 6.78646L9.55751 6.78673L9.56851 6.78646C9.5768 6.78632 9.58752 6.78604 9.59975 6.78604C9.69521 6.78604 9.81132 6.80177 9.82354 6.87597C9.82748 6.89983 9.8105 6.94907 9.78511 7.02341C9.72644 7.19402 9.6174 7.51165 9.52193 8.15809C9.5017 8.29601 9.4505 8.4207 9.37948 8.5931C9.28537 8.82205 9.15664 9.13555 9.03619 9.65579C8.97087 9.93936 8.87472 10.1062 8.80452 10.2283C8.75509 10.3142 8.71923 10.3763 8.71774 10.4404C8.71706 10.4658 8.72263 10.4841 8.73485 10.497C8.74164 10.5041 8.75373 10.5126 8.77301 10.5126C8.7961 10.5126 8.82461 10.5003 8.86535 10.4723L8.86576 10.4726C8.87404 10.4815 8.88912 10.4923 8.91533 10.4923C8.96381 10.4923 9.03673 10.4534 9.07991 10.388C9.09363 10.4006 9.10952 10.4028 9.11916 10.4028C9.17388 10.4028 9.2426 10.3327 9.28646 10.2786C9.2942 10.2866 9.30751 10.2952 9.32829 10.2952C9.38722 10.2952 9.47454 10.2215 9.5275 10.1349C9.53674 10.1418 9.54774 10.1453 9.55982 10.1453C9.62799 10.1453 9.73622 10.0261 9.78565 9.93522C9.79978 9.94211 9.81308 9.94405 9.8234 9.94405C9.93299 9.94405 10.0501 9.72613 10.0993 9.62255C10.1204 9.64255 10.1519 9.66227 10.1936 9.66227C10.215 9.66227 10.2372 9.65689 10.259 9.64655C10.3549 9.60172 10.4341 9.46918 10.4944 9.25278C10.5332 9.11375 10.5772 8.9568 10.5935 8.65875C10.5915 8.8306 10.5611 8.99528 10.5074 9.22837C10.5069 9.2303 10.5065 9.23237 10.5061 9.23416L10.5293 9.2394L10.5067 9.27002L10.5662 9.2685C10.585 9.26795 10.6057 9.26768 10.6273 9.26768C10.7751 9.26768 10.881 9.28216 10.9181 9.30726C10.9724 9.34395 11.0019 9.39374 11.0302 9.44187C11.0567 9.48697 11.082 9.52959 11.1246 9.55124C11.1412 9.55966 11.155 9.56366 11.1675 9.56366C11.2035 9.56366 11.2153 9.53373 11.2218 9.51759C11.2281 9.50187 11.2288 9.50187 11.2334 9.50187C11.2635 9.50918 11.3928 9.65551 11.4765 9.77013L11.5043 9.80819L11.504 9.80902C11.4991 9.83564 11.459 10.0702 11.5763 10.126L11.5995 10.1369L11.6132 10.1148C11.6256 10.0945 11.6396 10.0842 11.6545 10.0842C11.6728 10.0842 11.6956 10.098 11.7187 10.1232C11.7752 10.1849 11.8304 10.3167 11.8217 10.439L11.8183 10.4843L11.8602 10.4687C11.9036 10.4527 11.9708 10.3951 12.0027 10.3664C12.0358 10.3901 12.1077 10.4483 12.1416 10.5287L12.1627 10.5785L12.1923 10.5334C12.316 10.3447 11.9839 9.08548 11.8949 8.9088C11.8404 8.80109 11.6565 8.67089 11.4788 8.54469C11.4729 8.54055 11.467 8.53627 11.461 8.53214L11.4674 8.52841C12.0305 8.20002 12.651 7.03692 12.8848 6.59902C12.9305 6.51351 12.9663 6.44593 12.9761 6.43393C13.0153 6.38428 13.1141 6.35062 13.2391 6.30787C13.4822 6.22498 13.8497 6.09947 14.2083 5.72115C14.2747 5.65108 14.3584 5.62115 14.4879 5.62115C14.5641 5.62115 14.6495 5.63095 14.7484 5.64226C14.859 5.65494 14.9847 5.66943 15.1264 5.67287C15.1377 5.67329 15.149 5.67329 15.1601 5.67329C15.2773 5.67329 15.3868 5.65674 15.4832 5.64212C15.5622 5.63012 15.6366 5.61867 15.7018 5.61867C15.7348 5.61867 15.7635 5.62157 15.7893 5.62736L15.8246 5.63536C16.0015 5.67591 16.5405 5.79893 16.7761 5.79893C16.8365 5.79893 16.9069 5.79231 16.9153 5.74128C16.9252 5.68211 16.8334 5.62019 16.5886 5.47068C16.4495 5.38558 16.2916 5.28931 16.2029 5.20697C16.0797 5.09208 16.0002 4.9903 15.9299 4.90065C15.8001 4.73487 15.6975 4.6037 15.4101 4.52578C15.2652 4.48661 15.1215 4.46674 14.9832 4.46674C14.6382 4.46674 14.3893 4.58563 14.2076 4.67252C14.1532 4.69859 14.1059 4.72107 14.0657 4.73556C14.0531 4.74011 14.0391 4.74535 14.0234 4.75114C13.8973 4.79845 13.6628 4.88617 13.3995 4.88617C13.2883 4.88617 13.1811 4.87058 13.0811 4.83955C12.9238 4.791 12.7702 4.76838 12.5976 4.76838C12.5273 4.76838 12.4636 4.77183 12.4019 4.77528C12.3496 4.77817 12.3004 4.78079 12.2543 4.78079C12.2076 4.78079 12.1699 4.77804 12.1355 4.7721C11.9275 4.73693 11.2808 4.00319 11.2808 3.45288C11.2808 2.90023 11.1011 2.47018 11.0032 2.42012C10.9904 2.4135 10.9792 2.41046 10.9686 2.41046C10.9236 2.41046 10.9183 2.45722 10.914 2.49474C10.911 2.52232 10.9072 2.55473 10.8939 2.58507C10.89 2.58025 10.8863 2.5757 10.8829 2.57114C10.823 2.4957 10.8123 2.48218 10.7182 2.2273C10.5829 1.86084 10.1037 1.21633 10.0833 1.18903C9.89307 0.933733 9.74491 0.642303 9.62596 0.408111C9.48201 0.125233 9.41533 0 9.34227 0ZM10.5355 9.23528L10.5343 9.23997C10.5347 9.23845 10.535 9.23707 10.5355 9.23528ZM10.8901 8.95041C10.9797 8.96007 11.1432 8.98655 11.238 9.05951C11.3734 9.16419 11.4717 9.30184 11.4717 9.30184C11.4717 9.30184 11.4849 9.39204 11.5288 9.39204C11.53 9.39204 11.5312 9.3919 11.5326 9.39177H11.5332C11.5641 9.39177 11.5355 9.6021 11.4997 9.75271C11.4417 9.67327 11.28 9.47259 11.2334 9.47259C11.187 9.47259 11.2028 9.53438 11.1675 9.53438C11.1602 9.53438 11.1504 9.53162 11.1377 9.525C11.0626 9.48693 11.0464 9.35866 10.9342 9.28295C10.8807 9.24667 10.741 9.2384 10.6273 9.2384C10.6055 9.2384 10.5846 9.23867 10.5655 9.23909C10.6467 9.12847 10.8054 9.00282 10.8711 8.96228C10.8773 8.95841 10.8839 8.95469 10.8901 8.95041ZM8.50597 6.20969C8.5179 6.20969 8.53131 6.20666 8.54649 6.19949C8.46952 6.18045 8.41667 6.10956 8.41667 6.10956C8.41667 6.10956 8.43713 6.20969 8.50597 6.20969ZM8.26995 6.28259C8.33635 6.28259 8.49544 6.25887 8.33324 6.00813C8.39354 6.21749 8.24394 6.28135 8.24394 6.28135C8.24394 6.28135 8.25437 6.28259 8.26995 6.28259ZM8.26357 6.00459C8.27563 6.00459 8.28918 6.0017 8.30436 5.99439C8.22752 5.97577 8.17468 5.9046 8.17468 5.9046C8.17468 5.9046 8.195 6.00459 8.26357 6.00459ZM8.06192 5.82802C8.07398 5.82802 8.08767 5.82485 8.10271 5.81767C8.02601 5.79919 7.97316 5.7283 7.97316 5.7283C7.97316 5.7283 7.99335 5.82802 8.06192 5.82802ZM7.84066 5.91382C7.91668 5.91382 8.05354 5.88527 7.90218 5.65108C7.96654 5.84596 7.79811 5.91078 7.79811 5.91078C7.79811 5.91078 7.81626 5.91382 7.84066 5.91382ZM7.89362 5.65191C7.81583 5.60695 7.78683 5.53288 7.78683 5.53288C7.78683 5.53288 7.75919 5.64584 7.89362 5.65191ZM7.60568 5.70076C7.65514 5.70076 7.85922 5.6849 7.68224 5.41153C7.74404 5.63069 7.59511 5.70048 7.59511 5.70048C7.59511 5.70048 7.59891 5.70076 7.60568 5.70076ZM7.30964 5.52034C7.30964 5.52034 7.57849 5.26036 7.29595 4.8128C7.43675 5.19499 7.30964 5.52034 7.30964 5.52034ZM6.96961 5.31634C6.96961 5.31634 7.24212 5.06629 7.04347 4.59625C7.09713 4.97402 6.96961 5.31634 6.96961 5.31634ZM6.54171 5.01621C6.54171 5.01621 6.9199 4.86532 6.81493 4.40259C6.78587 4.76671 6.54171 5.01621 6.54171 5.01621ZM6.12498 4.65831C6.12498 4.65831 6.53074 4.65528 6.60556 4.19931C6.42699 4.5277 6.12498 4.65831 6.12498 4.65831ZM5.79782 4.25601C5.94652 4.25601 6.29335 4.22512 6.41719 3.94859C6.17439 4.17768 5.72883 4.25353 5.72883 4.25353C5.72883 4.25353 5.75504 4.25601 5.79782 4.25601ZM5.61938 3.76543C5.48046 3.76543 5.37956 3.75895 5.37956 3.75895C5.37956 3.75895 5.59304 3.81371 5.81805 3.81371C5.97449 3.81371 6.1365 3.78723 6.2359 3.69702C6.06371 3.75343 5.80705 3.76543 5.61938 3.76543ZM5.88866 3.50601C5.97842 3.50601 6.06275 3.49304 6.13065 3.45953C6.09792 3.46229 6.06302 3.46367 6.02649 3.46367C5.68089 3.46367 5.19704 3.34891 5.19704 3.34891C5.19704 3.34891 5.57646 3.50601 5.88866 3.50601ZM5.89994 3.19772C5.94842 3.19772 5.99432 3.19289 6.03601 3.18186C5.668 3.15745 5.06234 2.93939 5.06234 2.93939C5.06234 2.93939 5.547 3.19772 5.89994 3.19772ZM5.92428 2.92533C5.94614 2.92533 5.96746 2.92409 5.9881 2.9216C5.60447 2.8554 4.99542 2.57901 4.99542 2.57901C4.99542 2.57901 5.54649 2.92533 5.92428 2.92533ZM4.2801 1.96401C4.39784 1.96401 4.96357 2.30274 5.48694 2.47584C5.61866 2.51914 6.24781 2.73472 6.56137 2.91815C6.84545 3.08366 6.82074 3.06256 6.96007 3.10738C6.91946 3.00242 6.79222 2.93319 6.85442 2.92463C6.8555 2.92436 6.857 2.92422 6.85876 2.92422C6.93291 2.92422 7.31626 3.1231 7.74756 3.52749C7.83325 3.60804 7.93523 3.68072 8.04428 3.74568C8.06981 3.86306 8.16717 3.96967 8.26956 4.04429C8.15386 4.15766 8.2219 4.33861 8.35851 4.44991C8.3251 4.53322 8.40876 4.66397 8.50979 4.73996C8.44909 4.81817 8.4389 4.9245 8.49377 5.00202C8.43755 5.07498 8.44447 5.17801 8.50897 5.25248C8.45887 5.33413 8.492 5.46378 8.55854 5.54474C8.50137 5.63536 8.53342 5.76845 8.60892 5.85617C8.55094 5.94127 8.59697 6.07519 8.66867 6.16829C8.6407 6.20497 8.62549 6.24952 8.62155 6.29531C8.61164 6.27752 8.59969 6.25835 8.58516 6.23725C8.6593 6.44137 8.49119 6.47323 8.49119 6.47323C8.49119 6.47323 8.62508 6.47213 8.66691 6.37972C8.68252 6.40689 8.71756 6.4753 8.74431 6.49351C8.70194 6.52923 8.72231 6.60219 8.76509 6.65032C8.64287 6.64177 8.46158 6.56247 8.50083 6.49075C8.4901 6.49364 8.47923 6.49502 8.46796 6.49502C8.3505 6.49502 8.20547 6.34855 8.22815 6.28966C8.21932 6.29255 8.20995 6.29393 8.20017 6.29393C8.10335 6.29393 7.95478 6.16111 7.99186 6.09326C7.99186 6.09326 8.01196 6.09643 8.03884 6.09643C8.11828 6.09643 8.25666 6.06733 8.10674 5.83589C8.1593 6.03243 7.99186 6.09326 7.99186 6.09326C7.97665 6.09988 7.96117 6.10291 7.94582 6.10291C7.85212 6.10291 7.76263 5.99188 7.7868 5.93009C7.77838 5.93368 7.76942 5.93534 7.76019 5.93534C7.67721 5.93534 7.56287 5.80555 7.5865 5.70914C7.5698 5.72252 7.54345 5.72845 7.5129 5.72845C7.40331 5.72845 7.24239 5.65246 7.30689 5.5817C7.29209 5.58557 7.2743 5.5875 7.25461 5.5875C7.12153 5.5875 6.90004 5.49978 6.95803 5.33027C6.93956 5.33358 6.91919 5.3351 6.89814 5.3351C6.68752 5.3351 6.37885 5.18256 6.51098 5.02464C6.49985 5.02574 6.48871 5.02629 6.47717 5.02629C6.321 5.02629 6.12994 4.93361 6.06041 4.87485C5.9773 4.80451 6.00419 4.731 6.09544 4.65763C5.90546 4.62328 5.66918 4.54646 5.56488 4.41047C5.5031 4.32965 5.61689 4.29227 5.68221 4.24758C5.4371 4.13904 5.18288 3.95919 5.13169 3.86637C5.07153 3.75686 5.18696 3.80582 5.34978 3.76182C5.14459 3.69065 4.78812 3.47522 4.74562 3.35964C4.73502 3.33109 4.77549 3.32226 4.83524 3.32226C4.93179 3.32226 5.07859 3.3453 5.14174 3.3453C5.15749 3.3453 5.16822 3.34378 5.17134 3.34033C4.84801 3.24613 4.54613 3.03952 4.45352 2.88477C4.43315 2.85098 4.45379 2.83871 4.49792 2.83871C4.61349 2.83871 4.8901 2.92243 5.02033 2.92243C5.02794 2.92243 5.03527 2.92201 5.04206 2.92132C4.80089 2.87181 4.34216 2.55969 4.27087 2.39474C4.26435 2.3797 4.27494 2.37336 4.29803 2.37336C4.39892 2.37336 4.73706 2.49404 4.92555 2.53956C4.63779 2.38315 4.34284 2.1673 4.26476 2.00442C4.25145 1.97628 4.25756 1.96401 4.2801 1.96401ZM8.92429 10.3555C8.92429 10.3555 9.2794 9.96158 9.2092 9.55816C9.2187 9.90503 8.92429 10.3555 8.92429 10.3555ZM9.12513 10.2607C9.12513 10.2607 9.46191 9.86211 9.39156 9.45827C9.38681 9.81453 9.12513 10.2607 9.12513 10.2607ZM9.32624 10.1325C9.32624 10.1325 9.66261 9.72448 9.59268 9.32078C9.57842 9.70048 9.32624 10.1325 9.32624 10.1325ZM9.55522 10.0137C9.55522 10.0137 9.87298 9.57719 9.80291 9.17377C9.7983 9.55346 9.55522 10.0137 9.55522 10.0137ZM9.80767 9.81455C9.80767 9.81455 10.0928 9.36796 10.0228 8.96468C10.0085 9.2921 9.80767 9.81455 9.80767 9.81455ZM10.1069 9.49632C10.1069 9.49632 10.3451 9.05497 10.2749 8.65127C10.2612 8.97897 10.1069 9.49632 10.1069 9.49632ZM9.09825 6.71104C9.18556 6.71104 9.30059 6.67449 9.28646 6.47713C9.2187 6.66829 9.00563 6.69849 9.00563 6.69849C9.00563 6.69849 9.04705 6.71104 9.09825 6.71104ZM9.27814 6.42797C9.28491 6.42797 9.29236 6.42769 9.30009 6.427C9.22325 6.38452 9.21987 6.29887 9.21987 6.29887C9.21987 6.29887 9.14357 6.42797 9.27814 6.42797ZM8.88219 6.44017C8.86522 6.44017 8.85517 6.43879 8.85517 6.43879C8.85517 6.43879 8.92538 6.47892 9.00224 6.47892C9.0829 6.47892 9.17076 6.43493 9.19399 6.25508C9.08847 6.42182 8.94195 6.44017 8.88219 6.44017ZM9.2037 6.21972C9.14435 6.15407 9.1682 6.07201 9.1682 6.07201C9.1682 6.07201 9.04367 6.17945 9.2037 6.21972ZM8.856 6.16702C8.82789 6.16702 8.80997 6.16315 8.80997 6.16315C8.80997 6.16315 8.87773 6.21363 8.95459 6.21363C9.02656 6.21363 9.10628 6.16977 9.1462 6.00013C9.05237 6.1455 8.92377 6.16702 8.856 6.16702ZM9.14411 5.96721C9.08476 5.90115 9.10847 5.81922 9.10847 5.81922C9.10847 5.81922 8.98394 5.92653 9.14411 5.96721ZM10.5311 5.79354C10.5311 5.79354 9.98407 6.35226 10.1489 6.42356C10.1628 6.42963 10.1777 6.43225 10.1933 6.43225C10.221 6.43225 10.2506 6.42398 10.2809 6.41019C10.1939 6.5088 10.0358 6.7121 10.1594 6.76534C10.173 6.77127 10.1878 6.77416 10.2034 6.77416C10.214 6.77416 10.2251 6.77278 10.2364 6.7703C10.1921 6.81058 10.0624 6.94105 10.1594 7.02173C10.1754 7.03525 10.194 7.0409 10.2147 7.0409C10.3471 7.0409 10.552 6.80106 10.552 6.80106C10.552 6.80106 10.3487 6.98146 10.2333 6.98146C10.2187 6.98146 10.2056 6.97856 10.1943 6.97208C10.1318 6.93553 10.216 6.80671 10.2429 6.7692C10.382 6.73568 10.552 6.54466 10.552 6.54466C10.552 6.54466 10.3291 6.71513 10.2349 6.71513C10.2202 6.71513 10.2087 6.711 10.2013 6.70134C10.1606 6.6459 10.2544 6.4786 10.3035 6.39929C10.4236 6.33557 10.5415 6.20275 10.5415 6.20275C10.5415 6.20275 10.3187 6.37322 10.2244 6.37322C10.2098 6.37322 10.1982 6.36909 10.191 6.35943C10.1367 6.28592 10.5311 5.79354 10.5311 5.79354ZM8.87432 5.86807C8.79882 5.86807 8.74219 5.84214 8.74219 5.84214C8.74219 5.84214 8.82965 5.93634 8.92552 5.93634C8.98866 5.93634 9.05588 5.89524 9.10368 5.75814C9.03117 5.84545 8.94453 5.86807 8.87432 5.86807ZM9.10569 5.70678C9.0462 5.6414 9.06992 5.55934 9.06992 5.55934C9.06992 5.55934 8.94538 5.6665 9.10569 5.70678ZM8.79815 5.55923C8.73826 5.55923 8.69752 5.54764 8.69752 5.54764C8.69752 5.54764 8.78389 5.62171 8.88289 5.62171C8.9569 5.62171 9.03824 5.58061 9.09609 5.43662C8.99764 5.53785 8.88017 5.55923 8.79815 5.55923ZM9.08108 5.40789C9.02186 5.34224 9.04531 5.26004 9.04531 5.26004C9.04531 5.26004 8.92091 5.36762 9.08108 5.40789ZM16.02 5.11922C16.027 5.12694 16.0474 5.15522 16.0211 5.20777C15.9894 5.26997 15.821 5.26997 15.7826 5.32348C15.744 5.37672 15.7808 5.5334 15.7808 5.5334C15.7826 5.44265 15.7897 5.38872 15.8087 5.35727C15.8459 5.29673 16.0105 5.30183 16.0402 5.23618C16.0675 5.17618 16.03 5.13025 16.02 5.11922V5.11908V5.11922ZM9.06714 5.15498C9.00751 5.08961 9.0315 5.00741 9.0315 5.00741C9.0315 5.00741 8.90683 5.11457 9.06714 5.15498ZM8.77696 5.01845C8.70105 5.01845 8.64429 5.00094 8.64429 5.00094C8.64429 5.00094 8.7369 5.08714 8.84078 5.08714C8.91181 5.08714 8.98812 5.04659 9.04353 4.90963C8.96531 4.99749 8.85952 5.01845 8.77696 5.01845ZM15.4261 4.82496H15.4146C15.4146 4.82496 15.4936 4.84441 15.5163 4.89613C15.53 4.92758 15.5599 4.9353 15.5877 4.9353C15.6143 4.9353 15.6391 4.92827 15.6458 4.92827C15.6598 4.92827 15.7124 4.94965 15.7124 4.94965C15.7124 4.94965 15.6635 4.90689 15.6616 4.8891C15.659 4.8622 15.6441 4.82331 15.6161 4.80896C15.6096 4.80565 15.6024 4.80428 15.5944 4.80428C15.5686 4.80428 15.538 4.81862 15.5178 4.82138C15.4948 4.82455 15.448 4.82496 15.4261 4.82496ZM9.03348 4.90382C9.00231 4.82051 9.05435 4.75307 9.05435 4.75307C9.05435 4.75307 8.8996 4.80589 9.03348 4.90382ZM8.75943 4.73502C8.70389 4.73502 8.66696 4.72564 8.66696 4.72564C8.66696 4.72564 8.75455 4.79281 8.85504 4.79281C8.93421 4.79281 9.02152 4.7513 9.081 4.60331C8.97223 4.71323 8.84404 4.73502 8.75943 4.73502ZM8.58142 4.41225C8.66588 4.41225 9.15896 4.39322 9.34446 3.95325C9.06567 4.29447 8.56919 4.41225 8.56919 4.41225H8.58142ZM8.46718 4.04551C8.58165 4.04551 9.04635 4.02109 9.32189 3.63974C8.95686 3.91682 8.44097 4.04482 8.44097 4.04482C8.44097 4.04482 8.45034 4.04551 8.46718 4.04551ZM8.34486 3.55608C8.334 3.55608 8.32816 3.55581 8.32816 3.55581C8.32816 3.55581 8.45744 3.59443 8.63696 3.59443C8.83238 3.59443 9.0874 3.5485 9.29938 3.35706C8.90774 3.54615 8.43843 3.55608 8.34486 3.55608ZM8.83356 3.17678C8.97248 3.17678 9.13273 3.15196 9.30682 3.08162C9.17021 3.10244 9.03916 3.1103 8.91939 3.1103C8.55355 3.1103 8.29187 3.03762 8.29187 3.03762C8.29187 3.03762 8.50344 3.17678 8.83356 3.17678ZM9.18175 2.81165C9.24951 2.81165 9.31904 2.80531 9.38979 2.79096C8.87974 2.76655 8.32881 2.50395 8.32881 2.50395C8.32881 2.50395 8.7085 2.81165 9.18175 2.81165ZM9.48079 2.50478C9.05751 2.35775 8.51568 1.94606 8.51568 1.94606C8.51568 1.94606 8.982 2.47526 9.48079 2.50478ZM9.63586 2.28058C9.24449 2.06045 8.78197 1.55856 8.78197 1.55856C8.78197 1.55856 9.14998 2.16265 9.63586 2.28058ZM9.84693 2.03836C9.48869 1.76569 9.09841 1.20421 9.09841 1.20421C9.09841 1.20421 9.38128 1.85396 9.84693 2.03836ZM10.0866 1.8395C9.75942 1.52973 9.43051 0.928662 9.43051 0.928662C9.43051 0.928662 9.64317 1.60545 10.0866 1.8395ZM9.34225 0.029231C9.4604 0.0293689 9.67903 0.695533 10.0604 1.20667C10.1494 1.32625 10.5673 1.90221 10.6911 2.2375C10.8033 2.54134 10.8009 2.51059 10.8967 2.63623C10.9627 2.55265 10.9269 2.4397 10.9686 2.4397C10.9743 2.4397 10.9813 2.44176 10.9904 2.44632C11.0648 2.48452 11.252 2.88325 11.252 3.45287C11.252 4.02263 11.9064 4.76313 12.1307 4.80106C12.1698 4.80768 12.211 4.81002 12.2543 4.81002C12.3547 4.81002 12.4672 4.79761 12.5976 4.79761C12.7343 4.79761 12.8908 4.8114 13.0727 4.86754C13.1841 4.90202 13.2944 4.91553 13.3995 4.91553C13.6999 4.91553 13.9572 4.80575 14.0753 4.76313C14.25 4.70051 14.539 4.49598 14.9831 4.49598C15.1103 4.49598 15.2497 4.51266 15.4029 4.55418C15.8298 4.67003 15.8255 4.89498 16.1836 5.22848C16.3821 5.41371 16.9005 5.65356 16.8869 5.73659C16.883 5.76003 16.8414 5.76955 16.7761 5.76955C16.5258 5.76955 15.9291 5.62887 15.7955 5.5988C15.7662 5.59218 15.7348 5.58942 15.7018 5.58942C15.5539 5.58942 15.3714 5.6439 15.1601 5.6439C15.1492 5.6439 15.1382 5.6439 15.1272 5.64349C14.8613 5.63687 14.6528 5.59177 14.4879 5.59177C14.3655 5.59177 14.2671 5.61659 14.1876 5.70073C13.6407 6.27779 13.0795 6.25614 12.9535 6.41544C12.8891 6.49654 12.1275 8.10967 11.453 8.50303C11.3758 8.46055 11.3128 8.43531 11.1655 8.32511C11.2471 8.45793 11.7772 8.73998 11.869 8.92203C11.9648 9.11168 12.2804 10.3462 12.1682 10.5171C12.1189 10.4007 11.9998 10.3294 11.9998 10.3294C11.9998 10.3294 11.9016 10.4222 11.8504 10.4411C11.8633 10.2615 11.749 10.0549 11.6545 10.0549C11.6304 10.0549 11.6076 10.0683 11.5885 10.0993C11.4881 10.0516 11.5325 9.81453 11.5325 9.81453C11.5697 9.70543 11.5979 9.36794 11.5979 9.36794C11.5979 9.36794 11.5137 9.35414 11.523 9.29704C11.5325 9.23994 11.5464 9.05954 11.5183 9.03099C11.4903 9.00286 10.9013 8.44703 10.9013 8.44703L11.1304 8.75115L10.8267 8.94576C10.6403 9.03679 10.5502 9.17857 10.5355 9.23526C10.5978 8.9641 10.6249 8.79915 10.6223 8.61709C10.6208 8.53392 10.6151 8.332 10.6922 8.08305C10.5659 8.32869 10.5742 8.55171 10.5663 8.62426C10.5519 8.9339 10.5089 9.09375 10.4665 9.24491C10.4373 9.34973 10.3686 9.5631 10.2469 9.61992C10.2274 9.62916 10.2097 9.63288 10.1936 9.63288C10.1269 9.63288 10.0928 9.56751 10.0928 9.56751C10.0928 9.56751 9.94044 9.9148 9.82338 9.9148C9.80627 9.9148 9.78998 9.90721 9.77491 9.89039C9.73756 9.9839 9.61589 10.1159 9.5598 10.1159C9.54079 10.1159 9.52911 10.1002 9.53183 10.0614C9.49163 10.1694 9.38286 10.2658 9.32827 10.2658C9.30681 10.2658 9.29391 10.2508 9.2969 10.2156C9.25344 10.2822 9.16789 10.3734 9.11914 10.3734C9.09741 10.3734 9.08315 10.3552 9.08315 10.3083C9.06333 10.4004 8.96827 10.463 8.91531 10.463C8.89249 10.463 8.87756 10.4515 8.87973 10.4258C8.8379 10.4575 8.79811 10.4833 8.77299 10.4833C8.75602 10.4833 8.7457 10.4712 8.74651 10.4411C8.75018 10.3013 8.95265 10.1461 9.06428 9.66254C9.27232 8.76287 9.50141 8.49599 9.55043 8.1625C9.69302 7.19622 9.86738 6.96464 9.85217 6.87113C9.83506 6.76728 9.68107 6.75666 9.59973 6.75666C9.58099 6.75666 9.56591 6.75735 9.55749 6.75735C9.53577 6.75735 10.2931 6.1327 10.5189 5.5286C10.1425 6.1098 10.0222 6.21669 9.64413 6.58632C9.51825 6.70935 9.11384 7.00892 8.98755 7.00892C8.96976 7.00892 8.95727 7.00299 8.95211 6.98975C8.90539 6.87113 8.97098 6.71914 8.97098 6.71914C8.97098 6.71914 8.64371 6.69556 8.8212 6.47212C8.70468 6.46923 8.6156 6.23945 8.77448 6.17325C8.64371 6.08773 8.60623 5.87878 8.73266 5.85975C8.56916 5.79631 8.57364 5.56556 8.67182 5.54184C8.53928 5.49812 8.51742 5.2711 8.64371 5.25234C8.64371 5.25234 8.74176 5.34378 8.84958 5.34378C8.92115 5.34378 8.99679 5.30351 9.05097 5.16945C8.96759 5.25124 8.86398 5.27137 8.78223 5.27137C8.70265 5.27137 8.64371 5.25234 8.64371 5.25234C8.47872 5.20752 8.5014 5.03153 8.61085 5.00532C8.48619 4.97043 8.50126 4.77485 8.64846 4.72506C8.49868 4.71113 8.31087 4.44922 8.49787 4.44922C8.34577 4.38895 8.12646 4.12331 8.4134 4.04594C8.16 3.92594 7.94055 3.54831 8.2867 3.53962C8.10093 3.43673 7.98971 3.22213 7.98224 3.13027C7.97532 3.04559 8.04838 3.0118 8.17263 3.0118C8.19993 3.0118 8.22953 3.01345 8.26131 3.01649C8.10093 2.86229 7.9396 2.64837 7.98224 2.48907C7.99311 2.44838 8.02923 2.4357 8.07635 2.4357C8.13841 2.4357 8.21934 2.4579 8.2867 2.46769C8.15158 2.22743 8.0864 1.93573 8.13637 1.84098C8.15403 1.80774 8.17249 1.79422 8.19544 1.79422C8.24881 1.79422 8.32717 1.86718 8.48103 1.92731C8.34577 1.73836 8.21337 1.35315 8.2977 1.24998C8.30381 1.24267 8.31237 1.23936 8.32323 1.23936C8.42481 1.23936 8.71446 1.53493 8.76511 1.53493C8.53168 1.2497 8.44613 0.907243 8.52231 0.744219C8.52991 0.727531 8.54186 0.720221 8.55707 0.720221C8.66395 0.720221 8.93432 1.08875 9.097 1.17895C8.9001 0.978962 8.7681 0.460238 8.87796 0.305903C8.88217 0.299834 8.88801 0.297076 8.89507 0.297076C8.97709 0.297076 9.23565 0.673603 9.40146 0.854971C9.2749 0.554576 9.20741 0.211702 9.30735 0.0536432C9.31781 0.0370925 9.32949 0.029231 9.34225 0.029231Z" fill="#2FB5B5"/>
<path fill-rule="evenodd" clip-rule="evenodd" d="M21.5043 11.5701C21.0988 11.5701 20.8198 11.3138 20.8198 10.9173C20.8198 10.5453 21.048 10.2478 21.4622 10.2478C21.8931 10.2478 22.121 10.5289 22.121 10.9253C22.121 11.2807 21.8843 11.5701 21.5043 11.5701Z" fill="#FEFEFE"/>
<path fill-rule="evenodd" clip-rule="evenodd" d="M20.4944 16.3521C20.6399 16.3521 20.8882 16.2871 20.8882 15.9424V12.9718C20.8882 12.5993 20.6999 12.5436 20.4944 12.5436V12.3667C21.0595 12.2919 21.7099 12.0965 22.0523 11.9009V15.8957C22.0523 16.315 22.2664 16.3521 22.4463 16.3521V16.529C22.1209 16.501 21.7957 16.4734 21.4789 16.4734C21.1535 16.4734 20.8368 16.501 20.4944 16.529V16.3521Z" fill="#FEFEFE"/>
<path fill-rule="evenodd" clip-rule="evenodd" d="M21.5043 11.5701C21.0988 11.5701 20.8198 11.3138 20.8198 10.9173C20.8198 10.7082 20.8919 10.5223 21.029 10.4001C21.1354 10.3049 21.281 10.2478 21.4622 10.2478C21.8199 10.2478 22.038 10.4418 22.1017 10.7346C22.1144 10.7942 22.121 10.8582 22.121 10.9253C22.121 11.2807 21.8843 11.5701 21.5043 11.5701Z" fill="#FEFEFE"/>
<path fill-rule="evenodd" clip-rule="evenodd" d="M23.7222 6.94214C23.5051 6.95223 23.3538 6.95741 23.1366 6.95741H22.9601L22.9347 6.98741C22.9549 7.67077 22.9852 8.26374 22.9852 8.93716C22.9852 9.09287 22.9852 9.45964 22.9197 9.61534C22.7835 9.94721 22.4551 9.94721 22.405 9.94721C21.9755 9.94721 21.8344 9.67575 21.7891 9.4246C21.7536 9.22362 21.7485 8.28883 21.7485 8.0929C21.7485 7.68086 21.7635 7.30918 21.7635 6.97241L21.7384 6.94214C21.4861 6.95223 21.3096 6.95741 21.0569 6.95741H20.8499L20.8198 6.98741C20.8248 7.16329 20.8448 8.64088 20.8448 8.99742C20.8448 9.24871 20.8448 9.52522 20.9256 9.77132C20.9825 9.94108 21.0703 10.0766 21.1767 10.1843C21.3044 10.0806 21.4683 10.0255 21.6544 10.0255C22.0403 10.0255 22.3079 10.2267 22.3941 10.5785C22.7595 10.5691 22.9952 10.4844 23.1618 10.3944C23.697 10.0928 23.7324 9.60035 23.7324 9.07787V8.45967C23.7324 7.90693 23.7324 7.51997 23.7476 6.97241L23.7222 6.94214Z" fill="#FEFEFE"/>
<path fill-rule="evenodd" clip-rule="evenodd" d="M25.6339 14.4778C25.6339 15.0281 25.0667 15.4298 24.6347 15.4298C24.2747 15.4298 23.9957 15.2463 23.9957 14.897C23.9957 14.4864 24.3107 14.2767 25.6339 14.0672V14.4778ZM26.8582 15.5259V13.4207C26.8582 12.163 25.958 11.9009 24.9137 11.9009C24.3016 11.9009 23.7796 12.0231 23.2935 12.1891L23.2574 13.3771H23.4285C23.7525 12.7394 24.0947 12.5647 24.8146 12.5647C25.2469 12.5647 25.6339 12.7309 25.6339 13.1762C25.6339 13.4471 25.5709 13.4732 24.7427 13.5694C23.9507 13.6655 22.7716 13.7966 22.7716 14.9757C22.7716 15.7355 23.3207 16.1984 24.0947 16.1984C24.8688 16.1984 25.2738 16.0937 25.724 15.4559L25.7417 15.4474V16.1111C26.0119 16.0849 26.2819 16.0587 26.5249 16.0587C26.7859 16.0587 27.056 16.0849 27.326 16.1111V15.9452C27.038 15.9452 26.8582 15.823 26.8582 15.5259Z" fill="#FEFEFE"/>
<path fill-rule="evenodd" clip-rule="evenodd" d="M25.6157 14.2514C24.3909 14.4615 24.017 14.6657 24.017 15.1213C24.017 15.4583 24.2604 15.6761 24.6375 15.6761C25.0804 15.6761 25.6157 15.2286 25.6157 14.6728V14.2514ZM24.6374 15.7064C24.2427 15.7064 23.9879 15.4766 23.9879 15.1212C23.9879 14.6437 24.3711 14.4328 25.6278 14.2186L25.6447 14.2157V14.6728C25.6447 15.2454 25.0936 15.7064 24.6374 15.7064ZM24.8164 12.6115C25.335 12.6115 25.6449 12.8615 25.6449 13.2806C25.6449 13.5799 25.5775 13.6125 24.7465 13.7163L24.7235 13.7194C23.9578 13.8192 22.8009 13.97 22.8009 15.2058C22.8009 15.9913 23.3111 16.4987 24.1009 16.4987C24.87 16.4987 25.2632 16.3893 25.7078 15.711L25.7099 15.7077L25.752 15.6859V16.4037C26.01 16.3767 26.2759 16.3494 26.5158 16.3494C26.7732 16.3494 27.0394 16.3767 27.2971 16.4037V16.258C26.9888 16.2534 26.8323 16.0975 26.8323 15.7945V13.5422C26.8323 12.1146 25.8076 11.9315 24.9149 11.9315C24.393 11.9315 23.8858 12.0282 23.3191 12.2356L23.284 13.4805H23.4301C23.7424 12.8229 24.0805 12.6115 24.8164 12.6115ZM24.1007 16.529C23.3059 16.529 22.7716 15.997 22.7716 15.2055C22.7716 13.9429 23.944 13.7901 24.7196 13.689L24.7428 13.6859C25.5585 13.584 25.6157 13.5575 25.6157 13.2804C25.6157 13.0882 25.5378 12.6414 24.8162 12.6414C24.0819 12.6414 23.7631 12.8426 23.4519 13.5022L23.4479 13.5106H23.2538L23.2542 13.4949L23.2905 12.2136L23.2997 12.2101C23.8733 11.9991 24.3865 11.9009 24.9147 11.9009C25.8209 11.9009 26.8611 12.0875 26.8611 13.5419V15.7943C26.8611 16.0818 27.0126 16.2275 27.3115 16.2275H27.326V16.437L27.31 16.4353C27.0481 16.4078 26.777 16.3793 26.5156 16.3793C26.2722 16.3793 26.0009 16.4078 25.7389 16.4353L25.7228 16.437V15.7411C25.2743 16.4189 24.8755 16.529 24.1007 16.529Z" fill="#28B4B4"/>
</svg>
