<svg width="88" height="64" viewBox="0 0 88 64" fill="none" xmlns="http://www.w3.org/2000/svg">
    <path fill-rule="evenodd" clip-rule="evenodd" d="M87.1368 13.7363C87.1368 13.7363 75.4567 7.89041 44.4309 7.89041C13.4052 7.89041 1.72504 13.7363 1.72504 13.7363C1.72504 13.7363 9.84552 29.7147 18.067 38.9888C18.1035 39.0297 18.1385 39.0688 18.1749 39.1094V41.0163C18.1749 43.6034 18.0093 44.3692 16.7555 44.8249L17.1106 45.7109C19.262 45.4723 20.6568 44.3835 21.2864 42.5548C36.5276 59.1199 44.4309 63.1233 44.4309 63.1233C44.4309 63.1233 50.2434 61.3819 66.9087 43.2808C67.5779 42.9907 68.1404 42.4817 68.7325 41.6063L68.7794 41.5826V43.4028C69.4894 43.3312 70.1991 43.2593 70.8374 43.2593C71.5233 43.2593 72.2333 43.3312 72.9423 43.4028V42.9483C72.1857 42.9483 71.713 42.6129 71.713 41.7981V37.9333C82.2956 25.6766 87.1368 13.7363 87.1368 13.7363Z" fill="#FEFEFE"/>
    <path fill-rule="evenodd" clip-rule="evenodd" d="M87.1368 13.7363C87.1368 13.7363 75.4567 7.89041 44.4309 7.89041C13.4052 7.89041 1.72504 13.7363 1.72504 13.7363C1.72504 13.7363 9.84552 29.7147 18.067 38.9888C18.1035 39.0297 18.1385 39.0688 18.1749 39.1094V41.0163C18.1749 43.6034 18.0093 44.3692 16.7555 44.8249L17.1106 45.7109C19.262 45.4723 20.6568 44.3835 21.2864 42.5548C36.5276 59.1199 44.4309 63.1233 44.4309 63.1233C44.4309 63.1233 50.2434 61.3819 66.9087 43.2808C67.5779 42.9907 68.1404 42.4817 68.7325 41.6063L68.7794 41.5826V43.4028C69.4894 43.3312 70.1991 43.2593 70.8374 43.2593C71.5233 43.2593 72.2333 43.3312 72.9423 43.4028V42.9483C72.1857 42.9483 71.713 42.6129 71.713 41.7981V37.9333C82.2956 25.6766 87.1368 13.7363 87.1368 13.7363Z" stroke="#29B4B4" stroke-width="0.212"/>
    <path fill-rule="evenodd" clip-rule="evenodd" d="M44.4307 63.1233C44.4307 63.1233 35.414 58.5562 18.0671 38.9892C9.8452 29.7146 1.72504 13.7363 1.72504 13.7363C1.72504 13.7363 13.4052 7.89041 44.4307 7.89041C75.4566 7.89041 87.1368 13.7363 87.1368 13.7363C87.1368 13.7363 82.0373 26.3164 70.8626 38.9062C51.1499 61.1138 44.4307 63.1233 44.4307 63.1233Z" fill="#27B4B5"/>
    <mask id="mask0" mask-type="alpha" maskUnits="userSpaceOnUse" x="0" y="6" width="88" height="58">
    <path fill-rule="evenodd" clip-rule="evenodd" d="M0 6.49973H87.7104V63.6495H0V6.49973Z" fill="white"/>
    </mask>
    <g mask="url(#mask0)">
    <path fill-rule="evenodd" clip-rule="evenodd" d="M43.8931 6.49973C35.0382 6.49973 22.1155 7.00848 10.8418 9.43363C4.0277 10.8991 1.05115 12.3675 0.927947 12.429L-0.000183105 12.8938L0.473221 13.8261C0.805466 14.4805 8.71146 29.9652 16.8897 39.1956C34.0899 58.6077 43.0641 63.2783 43.4377 63.4675L43.7965 63.6495L44.1816 63.5341C44.466 63.4489 51.3724 61.1959 70.9634 39.1134C74.1684 35.5007 78.9211 29.5474 83.3624 21.6995C86.025 16.9948 87.2972 13.876 87.3497 13.7457L87.7103 12.8556L86.8587 12.429C86.7355 12.3675 83.7589 10.8991 76.9449 9.43363C65.6712 7.00848 52.7485 6.49973 43.8931 6.49973ZM43.8931 7.5311C74.78 7.5311 86.4079 13.3538 86.4079 13.3538C86.4079 13.3538 81.3312 25.8842 70.2065 38.4241C50.5822 60.5431 43.8931 62.5446 43.8931 62.5446C43.8931 62.5446 34.9167 57.9956 17.6475 38.5064C9.46245 29.269 1.37866 13.3538 1.37866 13.3538C1.37866 13.3538 13.0065 7.5311 43.8931 7.5311Z" fill="#FEFEFE"/>
    </g>
    <path fill-rule="evenodd" clip-rule="evenodd" d="M47.2984 27.5961C46.854 27.7928 46.1438 28.0548 45.0906 28.0548C42.2356 28.0548 40.5486 26.0503 40.5486 23.2725C40.5486 20.5601 42.0838 18.4109 44.9767 18.4109C46.0928 18.4109 46.8664 18.6861 47.3236 18.8827L47.3876 18.962C47.3363 19.6301 47.2984 20.088 47.2599 20.7568L47.159 20.7962C46.791 20.4947 46.2198 20.1541 45.3571 20.1541C43.4922 20.1541 42.921 21.8177 42.921 23.2338C42.921 25.5259 44.3174 26.2465 45.3826 26.2465C46.4353 26.2465 47.1711 25.6706 47.3621 25.5131L47.4506 25.5653C47.412 26.286 47.3876 26.7969 47.3621 27.5176L47.2984 27.5961Z" fill="#FEFEFE"/>
    <path fill-rule="evenodd" clip-rule="evenodd" d="M55.0344 28.0144H53.1138C51.7086 28.0144 50.707 28.0276 49.3014 28.0548L49.2327 27.9739C49.2455 27.0933 49.2598 26.4704 49.2598 25.5902V21.6621C49.2598 20.4966 49.2598 19.6848 49.176 18.5326L49.2598 18.4521H49.8307C50.5401 18.4521 51.0415 18.4381 51.7365 18.4109L51.82 18.4929C51.7509 19.1699 51.7086 23.8834 51.7086 24.5335C51.7086 25.1701 51.7226 25.9419 51.7226 26.2536C52.9885 26.2536 53.8791 26.2264 55.1454 26.1591L55.2152 26.2264C55.173 26.7549 55.1454 27.297 55.1035 27.9331L55.0344 28.0144Z" fill="#FEFEFE"/>
    <path fill-rule="evenodd" clip-rule="evenodd" d="M66.6411 22.3117C67.2809 22.3117 68.1723 22.1088 68.1723 21.0522C68.1723 19.942 67.143 19.9144 66.8669 19.9144C66.5911 19.9144 66.3153 19.928 66.0511 19.942V22.2985C66.0511 22.2985 66.3398 22.3117 66.6411 22.3117ZM66.0511 26.5109H66.5158C67.2935 26.5109 68.4229 26.4565 68.4229 25.1967C68.4229 24.3576 67.9711 23.8964 66.9677 23.8964C66.6909 23.8964 66.3153 23.8964 66.0381 23.91C66.0381 24.3973 66.0511 25.6439 66.0511 26.5109ZM63.8676 27.9736C63.918 24.4653 63.918 23.4087 63.918 22.3661C63.918 21.093 63.8925 19.82 63.8428 18.5462L63.918 18.4653C64.5203 18.4653 66.8918 18.4109 67.2687 18.4109C68.3978 18.4109 69.0883 18.4789 69.6903 19.0206C70.029 19.3323 70.3678 19.8604 70.3678 20.6726C70.3678 21.9328 69.5772 22.5421 68.9126 22.7998C69.8285 22.9078 70.7447 23.5855 70.7447 25.0746C70.7447 26.0364 70.3556 27.0386 69.3144 27.5807C68.486 28.014 67.5571 28.0548 66.6787 28.0548H63.9555L63.8676 27.9736Z" fill="#FEFEFE"/>
    <path fill-rule="evenodd" clip-rule="evenodd" d="M16.3917 27.1781C17.2951 27.2481 18.4605 27.3192 19.5779 27.3192C20.4575 27.3192 21.3849 27.2481 22.4309 27.1781V27.6255C21.6232 27.6489 21.3377 27.9548 21.3377 28.6138V39.9378C21.3377 43.2818 19.7916 45.259 16.7486 45.589L16.3917 44.7178C17.652 44.27 17.8185 43.517 17.8185 40.9745V29.0846C17.8185 28.2137 17.4616 27.6722 16.3917 27.6255V27.1781Z" fill="#FEFEFE"/>
    <path fill-rule="evenodd" clip-rule="evenodd" d="M16.4918 45.5377L16.8178 46.38C19.7355 46.0328 21.2779 44.0107 21.2779 40.5295V28.7192C21.2779 27.9945 21.5906 27.6826 22.3552 27.65V27.2638L22.0335 27.2874C21.166 27.3496 20.3464 27.4088 19.5819 27.4088C18.6983 27.4088 17.6549 27.3601 16.4797 27.2642V27.6503C17.4383 27.7065 17.8851 28.2028 17.8851 29.2102V41.6104C17.8851 44.262 17.711 45.065 16.4918 45.5377ZM16.7684 46.4657L16.3917 45.4908L16.4285 45.477C17.6466 45.0186 17.8096 44.2849 17.8096 41.6104V29.2102C17.8096 28.2286 17.3871 27.7713 16.4396 27.7282L16.4038 27.7264V27.1781L16.4442 27.1822C17.6341 27.2796 18.6896 27.3294 19.5818 27.3294C20.3438 27.3294 21.162 27.2702 22.028 27.2077L22.4309 27.1792V27.7267L22.3944 27.7282C21.6456 27.7511 21.3536 28.0286 21.3536 28.7192V40.5295C21.3536 44.0688 19.778 46.1204 16.797 46.4624L16.7684 46.4657Z" fill="#28B4B4"/>
    <path fill-rule="evenodd" clip-rule="evenodd" d="M30.0221 37.3069C26.5129 37.8628 25.6776 38.4187 25.6776 39.5074C25.6776 40.4344 26.4172 40.9206 27.3723 40.9206C28.5179 40.9206 30.0221 39.8552 30.0221 38.3957V37.3069ZM23.8151 32.3264C25.1041 31.8857 26.4889 31.5616 28.1122 31.5616C30.8815 31.5616 33.2684 32.2567 33.2684 35.5923V41.1757C33.2684 41.9634 33.7458 42.2875 34.5094 42.2875V42.7274C33.7939 42.6582 33.0772 42.5889 32.385 42.5889C31.7409 42.5889 31.0246 42.6582 30.3083 42.7274V40.9672L30.2606 40.9899C29.067 42.6811 27.9928 42.9589 25.9398 42.9589C23.8872 42.9589 22.431 41.7316 22.431 39.7163C22.431 36.5892 25.5578 36.2415 27.6585 35.9863C29.855 35.7315 30.0221 35.6623 30.0221 34.9439C30.0221 33.7629 28.9953 33.3225 27.8493 33.3225C25.9398 33.3225 25.0327 33.7855 24.1734 35.4771H23.72L23.8151 32.3264Z" fill="#FEFEFE"/>
    <path d="M30.1281 37.1828H30.2341V37.0587L30.1115 37.0781L30.1281 37.1828ZM29.1961 40.2856L29.1268 40.2055L29.1961 40.2856ZM26.1016 40.6452L26.0364 40.7288L26.0364 40.7288L26.1016 40.6452ZM25.773 38.7264L25.683 38.6704H25.683L25.773 38.7264ZM26.4841 38.1138L26.5339 38.2073L26.4841 38.1138ZM30.0055 37.2022L30.0221 37.3069L30.0055 37.2022ZM25.9529 38.8385L25.8629 38.7824L25.9529 38.8385ZM26.232 40.478L26.1668 40.5616V40.5616L26.232 40.478ZM29.0575 40.1253L28.9882 40.0451L29.0575 40.1253ZM29.9161 37.4312H30.0221V37.3067L29.8992 37.3266L29.9161 37.4312ZM26.5837 38.3009L26.6335 38.3945L26.5837 38.3009ZM23.8292 35.3711L23.7233 35.3679L23.72 35.4771H23.8292V35.3711ZM23.9188 32.4031L23.8849 32.3026L23.815 32.3262L23.8128 32.3999L23.9188 32.4031ZM24.1086 35.3711V35.4771H24.1731L24.2027 35.4198L24.1086 35.3711ZM25.5649 33.6734L25.6175 33.7655L25.5649 33.6734ZM29.4229 33.6012L29.4803 33.5121H29.4803L29.4229 33.6012ZM30.0584 35.4174L30.1551 35.4607L30.0584 35.4174ZM29.7066 35.736L29.7493 35.8331H29.7493L29.7066 35.736ZM28.9717 35.9216L28.989 36.0262H28.989L28.9717 35.9216ZM27.671 36.0916L27.6588 35.9863L27.6582 35.9864L27.671 36.0916ZM27.6154 36.0983L27.6027 35.9931H27.6027L27.6154 36.0983ZM24.3035 36.8696L24.257 36.7743L24.3035 36.8696ZM23.0398 37.91L23.1273 37.9698L23.0398 37.91ZM23.4865 42.0146L23.4156 42.0933L23.4865 42.0146ZM28.3817 42.5108L28.341 42.4129L28.3817 42.5108ZM30.174 40.9287L30.0874 40.8676L30.0874 40.8676L30.174 40.9287ZM30.1901 40.906L30.1447 40.8102L30.1195 40.8221L30.1035 40.8449L30.1901 40.906ZM30.2152 40.8941L30.1698 40.7983L30.1698 40.7983L30.2152 40.8941ZM30.2629 40.8715L30.3083 40.9672L30.3083 40.9672L30.2629 40.8715ZM30.4143 40.7997H30.5203V40.6321L30.3689 40.7039L30.4143 40.7997ZM30.4143 42.6107H30.3083V42.7274L30.4245 42.7162L30.4143 42.6107ZM34.4034 42.6107L34.3932 42.7162L34.5094 42.7274V42.6107H34.4034ZM34.4034 42.3914H34.5094V42.2896L34.4076 42.2855L34.4034 42.3914ZM33.5346 42.1083L33.4666 42.1897L33.5346 42.1083ZM31.6725 32.416L31.7288 32.3261L31.6725 32.416ZM23.7807 32.2261L23.7465 32.1258V32.1258L23.7807 32.2261ZM31.7851 32.2363L31.8413 32.1465L31.7851 32.2363ZM33.6705 41.9457L33.6025 42.027H33.6025L33.6705 41.9457ZM34.6154 42.1815H34.7214V42.0755H34.6154V42.1815ZM34.6154 42.8442L34.6052 42.9497L34.7214 42.9609V42.8442H34.6154ZM34.4992 42.8329L34.489 42.9385H34.489L34.4992 42.8329ZM30.3185 42.8329L30.3083 42.7274H30.3083L30.3185 42.8329ZM30.2023 42.8442H30.0963V42.9609L30.2125 42.9497L30.2023 42.8442ZM30.2023 41.2502H30.3083V40.9324L30.1176 41.1866L30.2023 41.2502ZM28.4632 42.7065L28.504 42.8043L28.4632 42.7065ZM23.3447 42.1721L23.2738 42.2509L23.3447 42.1721ZM22.8649 37.7903L22.9523 37.8501L22.8649 37.7903ZM24.2105 36.6791L24.164 36.5838H24.164L24.2105 36.6791ZM27.5754 35.8896L27.5626 35.7844L27.5626 35.7844L27.5754 35.8896ZM27.6457 35.8811L27.6332 35.7758L27.6329 35.7759L27.6457 35.8811ZM27.6463 35.881L27.6341 35.7757L27.6338 35.7758L27.6463 35.881ZM28.9372 35.7124L28.9545 35.817H28.9545L28.9372 35.7124ZM29.6214 35.5419L29.664 35.639H29.664L29.6214 35.5419ZM29.865 35.3306L29.9617 35.374L29.865 35.3306ZM29.308 33.7794L29.2506 33.8685L29.308 33.7794ZM25.6701 33.8575L25.6175 33.7655L25.6701 33.8575ZM24.2679 35.5251L24.3624 35.5731H24.3624L24.2679 35.5251ZM24.2384 35.5831V35.6891H24.3034L24.3329 35.6311L24.2384 35.5831ZM23.6108 35.5831L23.5048 35.5799L23.5015 35.6891H23.6108V35.5831ZM23.614 35.4739L23.5081 35.4707L23.614 35.4739ZM23.7091 32.3232L23.6031 32.32V32.32L23.7091 32.3232ZM23.7113 32.2498L23.677 32.1495L23.6076 32.1732L23.6053 32.2466L23.7113 32.2498ZM30.2341 37.3069V37.1828H30.0221V37.3069H30.2341ZM30.2341 38.3957V37.3069H30.0221V38.3957H30.2341ZM29.2654 40.3658C29.8186 39.8878 30.2341 39.202 30.2341 38.3957H30.0221C30.0221 39.1254 29.6461 39.7566 29.1268 40.2055L29.2654 40.3658ZM27.3723 41.1326C28.0045 41.1326 28.7146 40.8419 29.2654 40.3658L29.1268 40.2055C28.6075 40.6543 27.9451 40.9206 27.3723 40.9206V41.1326ZM26.0364 40.7288C26.3877 41.0029 26.8616 41.1326 27.3723 41.1326V40.9206C26.8947 40.9206 26.471 40.799 26.1668 40.5616L26.0364 40.7288ZM25.4656 39.5074C25.4656 40.0338 25.6787 40.4497 26.0364 40.7288L26.1668 40.5616C25.8625 40.3242 25.6776 39.9709 25.6776 39.5074H25.4656ZM25.683 38.6704C25.5236 38.9265 25.4656 39.2071 25.4656 39.5074H25.6776C25.6776 39.2352 25.7298 38.9963 25.8629 38.7824L25.683 38.6704ZM26.4343 38.0202C26.0886 38.2042 25.8415 38.4158 25.683 38.6704L25.8629 38.7824C25.9961 38.5685 26.2102 38.3796 26.5339 38.2073L26.4343 38.0202ZM29.9889 37.0975C28.2354 37.3753 27.1167 37.6571 26.4343 38.0202L26.5339 38.2073C27.1814 37.8628 28.2675 37.5849 30.0221 37.3069L29.9889 37.0975ZM30.1115 37.0781L29.9889 37.0975L30.0221 37.3069L30.1447 37.2875L30.1115 37.0781ZM25.8896 39.5074C25.8896 39.2634 25.936 39.0662 26.0429 38.8945L25.8629 38.7824C25.7298 38.9963 25.6776 39.2352 25.6776 39.5074H25.8896ZM26.2972 40.3945C26.0462 40.1986 25.8896 39.9079 25.8896 39.5074H25.6776C25.6776 39.9709 25.8625 40.3242 26.1668 40.5616L26.2972 40.3945ZM27.3723 40.7086C26.9278 40.7086 26.5544 40.5952 26.2972 40.3945L26.1668 40.5616C26.471 40.799 26.8947 40.9206 27.3723 40.9206V40.7086ZM28.9882 40.0451C28.5005 40.4666 27.8857 40.7086 27.3723 40.7086V40.9206C27.9451 40.9206 28.6075 40.6543 29.1268 40.2055L28.9882 40.0451ZM29.8101 38.3957C29.8101 39.0489 29.4735 39.6256 28.9882 40.0451L29.1268 40.2055C29.6461 39.7566 30.0221 39.1254 30.0221 38.3957H29.8101ZM29.8101 37.4312V38.3957H30.0221V37.4312H29.8101ZM26.6335 38.3945C27.2315 38.0763 28.2501 37.8073 29.933 37.5359L29.8992 37.3266C28.2169 37.598 27.1663 37.8708 26.5339 38.2073L26.6335 38.3945ZM26.0429 38.8945C26.1507 38.7213 26.3318 38.555 26.6335 38.3945L26.5339 38.2073C26.2102 38.3796 25.9961 38.5685 25.8629 38.7824L26.0429 38.8945ZM23.9352 35.3743L24.0247 32.4063L23.8128 32.3999L23.7233 35.3679L23.9352 35.3743ZM24.1086 35.2651H23.8292V35.4771H24.1086V35.2651ZM25.5124 33.5814C24.9032 33.9293 24.4447 34.4905 24.0144 35.3224L24.2027 35.4198C24.6232 34.6069 25.0577 34.0852 25.6175 33.7655L25.5124 33.5814ZM27.8493 33.1105C26.8813 33.1105 26.133 33.2269 25.5124 33.5814L25.6175 33.7655C26.1904 33.4383 26.8945 33.3225 27.8493 33.3225V33.1105ZM29.4803 33.5121C29.0331 33.224 28.4442 33.1105 27.8493 33.1105V33.3225C28.4223 33.3225 28.9655 33.4326 29.3654 33.6903L29.4803 33.5121ZM30.2341 34.9439C30.2341 34.28 29.9397 33.8081 29.4803 33.5121L29.3654 33.6903C29.7654 33.948 30.0221 34.3534 30.0221 34.9439H30.2341ZM30.1551 35.4607C30.2255 35.3038 30.2341 35.1233 30.2341 34.9439H30.0221C30.0221 35.1233 30.0117 35.2625 29.9617 35.374L30.1551 35.4607ZM29.7493 35.8331C29.9413 35.7487 30.078 35.6327 30.1551 35.4607L29.9617 35.374C29.9117 35.4855 29.8222 35.5695 29.664 35.639L29.7493 35.8331ZM28.989 36.0262C29.3162 35.9722 29.5653 35.9139 29.7493 35.8331L29.664 35.639C29.5058 35.7084 29.279 35.7634 28.9545 35.817L28.989 36.0262ZM27.6832 36.1969C28.2316 36.1333 28.6587 36.0806 28.989 36.0262L28.9545 35.817C28.63 35.8705 28.2078 35.9226 27.6588 35.9863L27.6832 36.1969ZM27.6282 36.2036C27.6468 36.2013 27.6653 36.1991 27.6838 36.1968L27.6582 35.9864C27.6398 35.9886 27.6213 35.9909 27.6027 35.9931L27.6282 36.2036ZM24.35 36.9648C25.3381 36.4825 26.5798 36.3308 27.6282 36.2036L27.6027 35.9931C26.5624 36.1193 25.2831 36.2735 24.257 36.7743L24.35 36.9648ZM23.1273 37.9698C23.4273 37.5314 23.8514 37.2082 24.35 36.9648L24.257 36.7743C23.7348 37.0292 23.2783 37.3738 22.9523 37.8501L23.1273 37.9698ZM22.643 39.7163C22.643 38.9717 22.8284 38.4066 23.1273 37.9698L22.9523 37.8501C22.6264 38.3264 22.431 38.9345 22.431 39.7163H22.643ZM23.5575 41.9358C22.9857 41.421 22.643 40.6697 22.643 39.7163H22.431C22.431 40.724 22.795 41.5346 23.4156 42.0933L23.5575 41.9358ZM25.9398 42.7469C24.9549 42.7469 24.1317 42.4528 23.5575 41.9358L23.4156 42.0933C24.0362 42.6521 24.9134 42.9589 25.9398 42.9589V42.7469ZM28.341 42.4129C27.7077 42.6766 26.9618 42.7469 25.9398 42.7469V42.9589C26.9663 42.9589 27.7481 42.8895 28.4225 42.6086L28.341 42.4129ZM30.0874 40.8676C29.5054 41.6923 28.9672 42.1521 28.341 42.4129L28.4225 42.6086C29.0968 42.3278 29.6638 41.8355 30.2606 40.9899L30.0874 40.8676ZM30.1035 40.8449L30.0874 40.8676L30.2606 40.9899L30.2767 40.9671L30.1035 40.8449ZM30.1698 40.7983L30.1447 40.8102L30.2355 41.0018L30.2606 40.9899L30.1698 40.7983ZM30.2175 40.7757L30.1698 40.7983L30.2606 40.9899L30.3083 40.9672L30.2175 40.7757ZM30.3689 40.7039L30.2175 40.7757L30.3083 40.9672L30.4597 40.8955L30.3689 40.7039ZM30.5203 40.9672V40.7997H30.3083V40.9672H30.5203ZM30.5203 42.6107V40.9672H30.3083V42.6107H30.5203ZM32.385 42.3769C31.764 42.3769 31.0801 42.44 30.4042 42.5052L30.4245 42.7162C31.102 42.6509 31.7759 42.5889 32.385 42.5889V42.3769ZM34.4136 42.5052C33.7376 42.4399 33.0512 42.3769 32.385 42.3769V42.5889C33.0396 42.5889 33.7162 42.6509 34.3932 42.7162L34.4136 42.5052ZM34.2974 42.3914V42.6107H34.5094V42.3914H34.2974ZM33.4666 42.1897C33.7107 42.3936 34.0369 42.4828 34.3991 42.4973L34.4076 42.2855C34.0718 42.272 33.7977 42.1901 33.6025 42.027L33.4666 42.1897ZM33.0564 41.1757C33.0564 41.614 33.1911 41.9595 33.4666 42.1897L33.6025 42.027C33.3878 41.8475 33.2684 41.5696 33.2684 41.1757H33.0564ZM33.0564 35.5923V41.1757H33.2684V35.5923H33.0564ZM31.6162 32.5058C32.4862 33.0508 33.0564 33.9835 33.0564 35.5923H33.2684C33.2684 33.9245 32.6717 32.9169 31.7288 32.3261L31.6162 32.5058ZM28.1122 31.7736C29.488 31.7736 30.7261 31.9481 31.6162 32.5058L31.7288 32.3261C30.7859 31.7354 29.4968 31.5616 28.1122 31.5616V31.7736ZM23.9527 32.5035C25.2069 32.08 26.5475 31.7736 28.1122 31.7736V31.5616C26.5182 31.5616 25.1541 31.8741 23.8849 32.3026L23.9527 32.5035ZM28.1122 31.3496C26.459 31.3496 25.0504 31.68 23.7465 32.1258L23.815 32.3264C25.1041 31.8857 26.4889 31.5616 28.1122 31.5616V31.3496ZM31.8413 32.1465C30.8457 31.5227 29.5058 31.3496 28.1122 31.3496V31.5616C29.4968 31.5616 30.7859 31.7354 31.7288 32.3261L31.8413 32.1465ZM33.4804 35.5923C33.4804 33.8656 32.8572 32.7829 31.8413 32.1465L31.7288 32.3261C32.6717 32.9169 33.2684 33.9245 33.2684 35.5923H33.4804ZM33.4804 41.1757V35.5923H33.2684V41.1757H33.4804ZM33.7385 41.8643C33.5843 41.7355 33.4804 41.525 33.4804 41.1757H33.2684C33.2684 41.5697 33.3878 41.8476 33.6025 42.027L33.7385 41.8643ZM34.5094 42.0755C34.1526 42.0755 33.8997 41.9991 33.7385 41.8643L33.6025 42.027C33.8173 42.2065 34.1276 42.2875 34.5094 42.2875V42.0755ZM34.6154 42.0755H34.5094V42.2875H34.6154V42.0755ZM34.7214 42.2875V42.1815H34.5094V42.2875H34.7214ZM34.7214 42.7274V42.2875H34.5094V42.7274H34.7214ZM34.7214 42.8442V42.7274H34.5094V42.8442H34.7214ZM34.489 42.9385L34.6052 42.9497L34.6256 42.7387L34.5094 42.7274L34.489 42.9385ZM32.385 42.8009C33.0652 42.8009 33.7714 42.869 34.489 42.9385L34.5094 42.7274C33.7939 42.6582 33.0772 42.5889 32.385 42.5889V42.8009ZM30.3287 42.9385C31.0475 42.8689 31.753 42.8009 32.385 42.8009V42.5889C31.7408 42.5889 31.0246 42.6582 30.3083 42.7274L30.3287 42.9385ZM30.2125 42.9497L30.3287 42.9385L30.3083 42.7274L30.1921 42.7387L30.2125 42.9497ZM30.0963 42.7274V42.8442H30.3083V42.7274H30.0963ZM30.0963 41.2502V42.7274H30.3083V41.2502H30.0963ZM28.504 42.8043C29.1684 42.5276 29.7258 42.0616 30.2871 41.3138L30.1176 41.1866C29.5723 41.9129 29.043 42.3502 28.4225 42.6086L28.504 42.8043ZM25.9398 43.1709C26.9708 43.1709 27.7885 43.1023 28.504 42.8043L28.4225 42.6086C27.7481 42.8895 26.9663 42.9589 25.9398 42.9589V43.1709ZM23.2738 42.2509C23.9408 42.8514 24.872 43.1709 25.9398 43.1709V42.9589C24.9134 42.9589 24.0362 42.6521 23.4156 42.0933L23.2738 42.2509ZM22.219 39.7163C22.219 40.7781 22.6043 41.6482 23.2738 42.2509L23.4156 42.0933C22.795 41.5346 22.431 40.7239 22.431 39.7163H22.219ZM22.7774 37.7304C22.4244 38.2463 22.219 38.8973 22.219 39.7163H22.431C22.431 38.9345 22.6264 38.3264 22.9523 37.8501L22.7774 37.7304ZM24.164 36.5838C23.6182 36.8502 23.1293 37.2162 22.7774 37.7304L22.9523 37.8501C23.2783 37.3738 23.7348 37.0292 24.257 36.7743L24.164 36.5838ZM27.5626 35.7844C26.5321 35.9094 25.2226 36.0671 24.164 36.5838L24.257 36.7743C25.2778 36.2761 26.55 36.1208 27.5882 35.9949L27.5626 35.7844ZM27.6329 35.7759C27.6096 35.7787 27.5862 35.7815 27.5626 35.7844L27.5882 35.9949C27.6117 35.992 27.6352 35.9892 27.6585 35.9863L27.6329 35.7759ZM27.6338 35.7758L27.6332 35.7758L27.6582 35.9864L27.6588 35.9863L27.6338 35.7758ZM28.9199 35.6078C28.6012 35.6604 28.1838 35.712 27.6341 35.7757L27.6585 35.9863C28.2076 35.9226 28.6299 35.8705 28.9545 35.817L28.9199 35.6078ZM29.5787 35.4449C29.4464 35.503 29.2419 35.5547 28.9199 35.6078L28.9545 35.817C29.279 35.7634 29.5058 35.7084 29.664 35.639L29.5787 35.4449ZM29.7682 35.2873C29.7453 35.3384 29.7029 35.3903 29.5787 35.4449L29.664 35.639C29.8222 35.5694 29.9117 35.4854 29.9617 35.374L29.7682 35.2873ZM29.8101 34.9439C29.8101 35.1239 29.7978 35.2213 29.7682 35.2873L29.9617 35.374C30.0117 35.2624 30.0221 35.1233 30.0221 34.9439H29.8101ZM29.2506 33.8685C29.5911 34.0879 29.8101 34.4267 29.8101 34.9439H30.0221C30.0221 34.3534 29.7654 33.948 29.3654 33.6903L29.2506 33.8685ZM27.8493 33.5345C28.4004 33.5345 28.8979 33.6413 29.2506 33.8685L29.3654 33.6903C28.9655 33.4326 28.4223 33.3225 27.8493 33.3225V33.5345ZM25.7227 33.9496C26.2478 33.6496 26.9077 33.5345 27.8493 33.5345V33.3225C26.8945 33.3225 26.1904 33.4383 25.6175 33.7655L25.7227 33.9496ZM24.3624 35.5731C24.7827 34.7458 25.2003 34.2479 25.7227 33.9496L25.6175 33.7655C25.0446 34.0926 24.603 34.6313 24.1733 35.4771L24.3624 35.5731ZM24.3329 35.6311L24.3624 35.5731L24.1733 35.4771L24.1439 35.5351L24.3329 35.6311ZM24.1733 35.6891H24.2384V35.4771H24.1733V35.6891ZM23.72 35.6891H24.1733V35.4771H23.72V35.6891ZM23.6108 35.6891H23.72V35.4771H23.6108V35.6891ZM23.5081 35.4707L23.5048 35.5799L23.7167 35.5863L23.72 35.4771L23.5081 35.4707ZM23.6031 32.32L23.5081 35.4707L23.72 35.4771L23.815 32.3264L23.6031 32.32ZM23.6053 32.2466L23.6031 32.32L23.815 32.3264L23.8172 32.253L23.6053 32.2466ZM23.7465 32.1258L23.677 32.1495L23.7456 32.3501L23.815 32.3264L23.7465 32.1258Z" fill="#29B4B4"/>
    <path fill-rule="evenodd" clip-rule="evenodd" d="M41.0742 31.7137C41.9745 31.7853 42.8982 31.8566 43.7989 31.8566C44.6985 31.8566 45.6233 31.7853 46.5243 31.7137L42.2416 35.907L45.4767 40.9815C46.1838 42.0779 46.5729 42.5064 47.4506 42.5064V42.9589C46.7198 42.8869 45.9642 42.8161 45.233 42.8161C44.5033 42.8161 43.774 42.8869 43.0199 42.9589L39.0317 36.6931L41.7557 33.6435C42.1448 33.1911 42.2902 32.9763 42.2902 32.6427C42.2902 32.309 41.7557 32.1666 41.0742 32.1666V31.7137ZM34.5094 42.5064C35.2138 42.5064 35.6275 42.3156 35.6275 41.0291V29.1647C35.6275 27.4257 35.2383 27.3537 34.5094 27.1869V26.7348C35.9929 26.568 37.5 26.0915 39.0076 25.4247C39.0076 26.0436 38.9345 26.7108 38.9345 27.4021V41.0291C38.9345 42.3156 39.3482 42.5064 40.3453 42.5064V42.9589C39.1779 42.8869 38.3269 42.8161 37.2812 42.8161C36.2351 42.8161 35.3841 42.8869 34.5094 42.9589V42.5064Z" fill="#FEFEFE"/>
    <path d="M46.5985 31.7895L46.5243 31.7137L46.5985 31.7895ZM46.8074 31.5849L46.8815 31.6606L47.0905 31.4561L46.799 31.4792L46.8074 31.5849ZM42.3772 35.9225L42.3031 35.8468L42.2416 35.9069L42.2878 35.9795L42.3772 35.9225ZM45.5658 40.924L45.4764 40.981L45.4766 40.9813L45.5658 40.924ZM45.566 40.9243L45.4768 40.9816L45.4769 40.9818L45.566 40.9243ZM46.4672 42.0734L46.5347 41.9917L46.4672 42.0734ZM47.5566 42.4004H47.6626V42.2944H47.5566V42.4004ZM47.5566 43.0758L47.5462 43.1813L47.6626 43.1928V43.0758H47.5566ZM47.4402 43.0644L47.4298 43.1699L47.4402 43.0644ZM43.0678 43.0608L43.0577 42.9553H43.0577L43.0678 43.0608ZM43.0299 43.0644L43.04 43.1699H43.04L43.0299 43.0644ZM42.9653 43.0706L42.8759 43.1275L42.9107 43.1823L42.9754 43.1761L42.9653 43.0706ZM42.9304 43.0158L43.0199 42.9589H43.0199L42.9304 43.0158ZM38.9423 36.75L38.8529 36.8069L38.9423 36.75ZM38.8992 36.6823L38.8202 36.6117L38.7667 36.6715L38.8098 36.7392L38.8992 36.6823ZM38.9527 36.6224L38.8736 36.5518L38.9527 36.6224ZM41.6759 33.5737L41.755 33.6443L41.7563 33.6428L41.6759 33.5737ZM41.9024 32.3794L41.8671 32.4794L41.9024 32.3794ZM40.9682 32.2726H40.8622V32.3786H40.9682V32.2726ZM40.9682 31.599L40.9766 31.4933L40.8622 31.4842V31.599H40.9682ZM41.0826 31.6081L41.0742 31.7137L41.0826 31.6081ZM46.5159 31.6081L46.5075 31.5024L46.5159 31.6081ZM46.2414 31.8424L46.3155 31.9181L46.524 31.714L46.2331 31.7367L46.2414 31.8424ZM41.1802 31.8285L41.1886 31.7228L41.0742 31.7138V31.8285H41.1802ZM41.1802 32.0617H41.0742V32.1654L41.1779 32.1677L41.1802 32.0617ZM41.9731 32.1796L42.0084 32.0796L41.9731 32.1796ZM41.836 33.7126L41.7557 33.6435L41.7556 33.6435L41.836 33.7126ZM41.8347 33.7142L41.7646 33.7937L41.8451 33.8646L41.9151 33.7833L41.8347 33.7142ZM41.8347 33.7141L41.9048 33.6346L41.8258 33.565L41.7557 33.6435L41.8347 33.7141ZM39.1642 36.7038L39.0852 36.6332L39.0317 36.693L39.0748 36.7607L39.1642 36.7038ZM43.0744 42.8472L42.985 42.9041L43.0199 42.9589L43.0845 42.9527L43.0744 42.8472ZM47.3446 42.842L47.3343 42.9475L47.4506 42.9588V42.842H47.3446ZM47.3446 42.6103H47.4506V42.5085L47.3489 42.5044L47.3446 42.6103ZM46.3321 42.2368L46.3997 42.1551L46.3321 42.2368ZM45.3876 41.0389L45.2984 41.0961L45.2985 41.0964L45.3876 41.0389ZM45.3873 41.0385L45.298 41.0954L45.2981 41.0957L45.3873 41.0385ZM42.1522 35.9639L42.2416 35.9069H42.2416L42.1522 35.9639ZM42.106 35.8914L42.0318 35.8157L41.9704 35.8758L42.0166 35.9484L42.106 35.8914ZM42.1674 35.8312L42.2416 35.9069V35.9069L42.1674 35.8312ZM39.1136 25.2618H39.2196V25.099L39.0707 25.1649L39.1136 25.2618ZM39.0785 26.3634L38.9726 26.3576V26.3576L39.0785 26.3634ZM39.0769 26.3921L38.9711 26.3862V26.3862L39.0769 26.3921ZM39.3375 42.172L39.409 42.0937H39.409L39.3375 42.172ZM40.4513 42.4004H40.5573V42.2944H40.4513V42.4004ZM40.4513 43.0716L40.4447 43.1774L40.5573 43.1844V43.0716H40.4513ZM40.3387 43.0647L40.3453 42.9589H40.3453L40.3387 43.0647ZM39.7069 43.0245L39.7138 42.9187L39.7069 43.0245ZM34.5427 43.0625L34.534 42.9569H34.534L34.5427 43.0625ZM34.5181 43.0645L34.5268 43.1702L34.5268 43.1702L34.5181 43.0645ZM34.4034 43.074H34.2974V43.189L34.4121 43.1796L34.4034 43.074ZM34.4034 42.4004V42.2944H34.2974V42.4004H34.4034ZM35.2545 42.1785L35.1764 42.1068H35.1764L35.2545 42.1785ZM35.2564 27.649L35.3418 27.5862L35.2564 27.649ZM34.4857 27.2902L34.5094 27.1869H34.5094L34.4857 27.2902ZM34.4034 27.2714H34.2974V27.3559L34.3797 27.3747L34.4034 27.2714ZM34.4034 26.64L34.3915 26.5347L34.2974 26.5453V26.64H34.4034ZM34.4975 26.6295L34.5094 26.7348H34.5094L34.4975 26.6295ZM38.9647 25.3277L39.0076 25.4246L38.9647 25.3277ZM34.6154 27.1024H34.5094V27.1868L34.5917 27.2057L34.6154 27.1024ZM34.6154 26.8291L34.6026 26.7239L34.5094 26.7352V26.8291H34.6154ZM35.4272 27.5234L35.3418 27.5862L35.4272 27.5234ZM35.4107 42.3219L35.3326 42.2502H35.3326L35.4107 42.3219ZM34.6154 42.6109L34.6121 42.5049L34.5094 42.5081V42.6109H34.6154ZM34.6154 42.8438H34.5094V42.9589L34.6241 42.9495L34.6154 42.8438ZM39.7231 42.813L39.7163 42.9188L39.7231 42.813ZM40.2393 42.8461L40.2326 42.9519L40.3453 42.9589V42.8461H40.2393ZM40.2393 42.6117H40.3453V42.5072L40.2409 42.5057L40.2393 42.6117ZM39.1944 42.3284L39.266 42.2502L39.1944 42.3284ZM38.8652 26.3804L38.7594 26.3745V26.3745L38.8652 26.3804ZM38.8667 26.3543L38.7608 26.3485V26.3485L38.8667 26.3543ZM38.9 25.5875L39.006 25.5895L39.0091 25.4246L38.8578 25.4903L38.9 25.5875ZM46.6726 31.8652L46.8815 31.6606L46.7332 31.5092L46.5243 31.7137L46.6726 31.8652ZM42.4514 35.9982L46.6726 31.8652L46.5243 31.7137L42.3031 35.8468L42.4514 35.9982ZM45.6552 40.867L42.4666 35.8655L42.2878 35.9795L45.4764 40.981L45.6552 40.867ZM45.6552 40.867L45.655 40.8667L45.4766 40.9813L45.4768 40.9816L45.6552 40.867ZM46.5347 41.9917C46.2682 41.7713 46.0101 41.4174 45.6551 40.8669L45.4769 40.9818C45.8303 41.5298 46.1043 41.911 46.3997 42.1551L46.5347 41.9917ZM47.4506 42.2944C47.0542 42.2944 46.7872 42.2004 46.5347 41.9917L46.3997 42.1551C46.695 42.3993 47.0117 42.5064 47.4506 42.5064V42.2944ZM47.5566 42.2944H47.4506V42.5064H47.5566V42.2944ZM47.6626 42.5064V42.4004H47.4506V42.5064H47.6626ZM47.6626 42.9589V42.5064H47.4506V42.9589H47.6626ZM47.6626 43.0758V42.9589H47.4506V43.0758H47.6626ZM47.4298 43.1699L47.5462 43.1813L47.567 42.9703L47.4506 42.9589L47.4298 43.1699ZM45.233 43.0281C45.9523 43.0281 46.6981 43.0978 47.4298 43.1699L47.4506 42.9589C46.7198 42.8869 45.9642 42.8161 45.233 42.8161V43.0281ZM43.0779 43.1663C43.8204 43.0954 44.5273 43.0281 45.233 43.0281V42.8161C44.5155 42.8161 43.7984 42.8846 43.0577 42.9553L43.0779 43.1663ZM43.04 43.1699L43.0779 43.1663L43.0577 42.9553L43.0199 42.9589L43.04 43.1699ZM42.9754 43.1761L43.04 43.1699L43.0199 42.9589L42.9552 42.965L42.9754 43.1761ZM42.841 43.0727L42.8759 43.1275L43.0547 43.0136L43.0199 42.9589L42.841 43.0727ZM38.8529 36.8069L42.841 43.0727L43.0199 42.9589L39.0317 36.693L38.8529 36.8069ZM38.8098 36.7392L38.8529 36.8069L39.0317 36.693L38.9886 36.6253L38.8098 36.7392ZM38.8736 36.5518L38.8202 36.6117L38.9783 36.7529L39.0317 36.693L38.8736 36.5518ZM41.5969 33.503L38.8736 36.5518L39.0317 36.693L41.755 33.6443L41.5969 33.503ZM42.0782 32.6427C42.0782 32.8886 41.9878 33.0484 41.5956 33.5045L41.7563 33.6428C42.1449 33.1909 42.2902 32.9762 42.2902 32.6427H42.0782ZM41.8671 32.4794C42.0633 32.5487 42.0782 32.6173 42.0782 32.6427H42.2902C42.2902 32.4767 42.1579 32.3573 41.9377 32.2795L41.8671 32.4794ZM41.0742 32.3786C41.4048 32.3786 41.6812 32.4137 41.8671 32.4794L41.9377 32.2795C41.7189 32.2022 41.4149 32.1666 41.0742 32.1666V32.3786ZM40.9682 32.3786H41.0742V32.1666H40.9682V32.3786ZM40.8622 32.1666V32.2726H41.0742V32.1666H40.8622ZM40.8622 31.7137V32.1666H41.0742V31.7137H40.8622ZM40.8622 31.599V31.7137H41.0742V31.599H40.8622ZM41.091 31.5024L40.9766 31.4933L40.9598 31.7046L41.0742 31.7137L41.091 31.5024ZM43.7989 31.6446C42.9079 31.6446 41.9923 31.5741 41.091 31.5024L41.0742 31.7137C41.9745 31.7853 42.8982 31.8566 43.7989 31.8566V31.6446ZM46.5075 31.5024C45.6054 31.5741 44.6888 31.6446 43.7989 31.6446V31.8566C44.6985 31.8566 45.6232 31.7853 46.5243 31.7137L46.5075 31.5024ZM46.799 31.4792L46.5075 31.5024L46.5243 31.7137L46.8158 31.6906L46.799 31.4792ZM41.8278 33.5659L41.8278 33.5659L41.6835 33.7212L41.6835 33.7212L41.8278 33.5659ZM41.6835 33.7212L41.6835 33.7212L41.8278 33.5659L41.8278 33.5659L41.6835 33.7212ZM43.7989 32.0686C44.6106 32.0686 45.4408 32.0112 46.2496 31.9481L46.2331 31.7367C45.4247 31.7998 44.6016 31.8566 43.7989 31.8566V32.0686ZM41.1718 31.9341C42.0355 32.0025 42.927 32.0686 43.7989 32.0686V31.8566C42.9364 31.8566 42.0527 31.7912 41.1886 31.7228L41.1718 31.9341ZM41.2862 32.0617V31.8285H41.0742V32.0617H41.2862ZM42.0084 32.0796C41.7823 31.9997 41.4922 31.9626 41.1826 31.9557L41.1779 32.1677C41.4771 32.1743 41.7418 32.2103 41.9377 32.2795L42.0084 32.0796ZM42.5022 32.6427C42.5022 32.333 42.2477 32.1642 42.0084 32.0796L41.9377 32.2795C42.1573 32.3571 42.2902 32.4763 42.2902 32.6427H42.5022ZM41.9164 33.7818C42.302 33.3334 42.5022 33.0637 42.5022 32.6427H42.2902C42.2902 32.9763 42.1447 33.1912 41.7557 33.6435L41.9164 33.7818ZM41.9151 33.7833L41.9164 33.7818L41.7556 33.6435L41.7543 33.645L41.9151 33.7833ZM41.7646 33.7937L41.7646 33.7937L41.9048 33.6346L41.9048 33.6346L41.7646 33.7937ZM39.2433 36.7744L41.9138 33.7848L41.7557 33.6435L39.0852 36.6332L39.2433 36.7744ZM43.1639 42.7903L39.2537 36.6469L39.0748 36.7607L42.985 42.9041L43.1639 42.7903ZM45.233 42.6041C44.5126 42.6041 43.7941 42.672 43.0644 42.7417L43.0845 42.9527C43.8158 42.8829 44.5243 42.8161 45.233 42.8161V42.6041ZM47.3549 42.7365C46.6604 42.6686 45.9367 42.6041 45.233 42.6041V42.8161C45.9253 42.8161 46.6397 42.8796 47.3343 42.9475L47.3549 42.7365ZM47.2386 42.6103V42.842H47.4506V42.6103H47.2386ZM46.2646 42.3185C46.5759 42.5758 46.9115 42.6987 47.3403 42.7162L47.3489 42.5044C46.9627 42.4886 46.6724 42.3806 46.3997 42.1551L46.2646 42.3185ZM45.2985 41.0964C45.6505 41.6422 45.9405 42.0506 46.2646 42.3185L46.3997 42.1551C46.1043 41.9109 45.8302 41.5297 45.4767 40.9815L45.2985 41.0964ZM45.2981 41.0957L45.2984 41.0961L45.4769 40.9817L45.4766 40.9812L45.2981 41.0957ZM42.0628 36.0209L45.298 41.0954L45.4767 40.9815L42.2416 35.9069L42.0628 36.0209ZM42.0166 35.9484L42.0628 36.0209L42.2416 35.9069L42.1954 35.8344L42.0166 35.9484ZM42.0933 35.7555L42.0318 35.8157L42.1801 35.9671L42.2416 35.9069L42.0933 35.7555ZM46.1672 31.7666L42.0933 35.7555L42.2416 35.9069L46.3155 31.9181L46.1672 31.7666ZM39.2196 25.4246V25.2618H39.0076V25.4246H39.2196ZM39.1843 26.3693C39.202 26.0499 39.2196 25.732 39.2196 25.4246H39.0076C39.0076 25.7251 38.9904 26.037 38.9726 26.3576L39.1843 26.3693ZM39.1827 26.3979L39.1843 26.3693L38.9726 26.3576L38.9711 26.3862L39.1827 26.3979ZM39.1465 27.402C39.1465 27.0631 39.1644 26.7291 39.1827 26.3979L38.9711 26.3862C38.9528 26.7168 38.9345 27.0564 38.9345 27.402H39.1465ZM39.1465 41.0291V27.402H38.9345V41.0291H39.1465ZM39.409 42.0937C39.2529 41.951 39.1465 41.6661 39.1465 41.0291H38.9345C38.9345 41.6723 39.0379 42.0417 39.266 42.2502L39.409 42.0937ZM40.3453 42.2944C39.8407 42.2944 39.5695 42.2405 39.409 42.0937L39.266 42.2502C39.4941 42.4588 39.8468 42.5064 40.3453 42.5064V42.2944ZM40.4513 42.2944H40.3453V42.5064H40.4513V42.2944ZM40.5573 42.5064V42.4004H40.3453V42.5064H40.5573ZM40.5573 42.9589V42.5064H40.3453V42.9589H40.5573ZM40.5573 43.0716V42.9589H40.3453V43.0716H40.5573ZM40.3322 43.1705L40.4447 43.1774L40.4578 42.9658L40.3453 42.9589L40.3322 43.1705ZM39.7001 43.1302C39.9015 43.1433 40.1111 43.1568 40.3322 43.1705L40.3453 42.9589C40.1245 42.9453 39.9152 42.9317 39.7138 42.9187L39.7001 43.1302ZM37.2812 43.0281C38.122 43.0281 38.835 43.0742 39.7001 43.1302L39.7138 42.9187C38.8494 42.8627 38.1298 42.8161 37.2812 42.8161V43.0281ZM34.5514 43.1681C35.4176 43.0969 36.2546 43.0281 37.2812 43.0281V42.8161C36.2449 42.8161 35.4001 42.8856 34.534 42.9569L34.5514 43.1681ZM34.5268 43.1702L34.5514 43.1681L34.534 42.9569L34.5094 42.9589L34.5268 43.1702ZM34.4121 43.1796L34.5268 43.1702L34.5094 42.9589L34.3947 42.9683L34.4121 43.1796ZM34.2974 42.9589V43.074H34.5094V42.9589H34.2974ZM34.2974 42.5064V42.9589H34.5094V42.5064H34.2974ZM34.2974 42.4004V42.5064H34.5094V42.4004H34.2974ZM34.5094 42.2944H34.4034V42.5064H34.5094V42.2944ZM35.1764 42.1068C35.0503 42.2442 34.8543 42.2944 34.5094 42.2944V42.5064C34.8616 42.5064 35.1411 42.4587 35.3326 42.2502L35.1764 42.1068ZM35.4154 41.0291C35.4154 41.6636 35.3104 41.961 35.1764 42.1068L35.3326 42.2502C35.524 42.0417 35.6274 41.6723 35.6274 41.0291H35.4154ZM35.4154 29.1647V41.0291H35.6274V29.1647H35.4154ZM35.171 27.7118C35.3142 27.9066 35.4154 28.2938 35.4154 29.1647H35.6274C35.6274 28.2952 35.5302 27.8424 35.3418 27.5862L35.171 27.7118ZM34.4621 27.3936C34.8469 27.4816 35.0378 27.5307 35.171 27.7118L35.3418 27.5862C35.1533 27.3299 34.8734 27.2702 34.5094 27.1869L34.4621 27.3936ZM34.3797 27.3747L34.4621 27.3936L34.5094 27.1869L34.427 27.168L34.3797 27.3747ZM34.2974 27.1869V27.2714H34.5094V27.1869H34.2974ZM34.2974 26.7348V27.1869H34.5094V26.7348H34.2974ZM34.2974 26.64V26.7348H34.5094V26.64H34.2974ZM34.4857 26.5241L34.3915 26.5347L34.4152 26.7454L34.5094 26.7348L34.4857 26.5241ZM38.9218 25.2308C37.4269 25.892 35.9412 26.3604 34.4857 26.5241L34.5094 26.7348C35.9928 26.568 37.5 26.0915 39.0076 25.4246L38.9218 25.2308ZM39.0707 25.1649L38.9218 25.2308L39.0076 25.4246L39.1565 25.3588L39.0707 25.1649ZM34.7214 27.1024V26.8291H34.5094V27.1024H34.7214ZM35.5126 27.4606C35.2874 27.1544 34.9579 27.0722 34.6391 26.9991L34.5917 27.2057C34.9168 27.2803 35.1687 27.3509 35.3418 27.5862L35.5126 27.4606ZM35.8394 29.1647C35.8394 28.2964 35.7461 27.7782 35.5126 27.4606L35.3418 27.5862C35.5302 27.8424 35.6274 28.2952 35.6274 29.1647H35.8394ZM35.8394 41.0291V29.1647H35.6274V41.0291H35.8394ZM35.4887 42.3936C35.7377 42.1224 35.8394 41.6812 35.8394 41.0291H35.6274C35.6274 41.6723 35.524 42.0417 35.3326 42.2502L35.4887 42.3936ZM34.6187 42.7168C34.9404 42.7068 35.2574 42.6455 35.4887 42.3936L35.3326 42.2502C35.1606 42.4375 34.9172 42.4954 34.6121 42.5049L34.6187 42.7168ZM34.7214 42.8438V42.6109H34.5094V42.8438H34.7214ZM37.2812 42.6041C36.2715 42.6041 35.4419 42.6695 34.6067 42.7382L34.6241 42.9495C35.4589 42.8809 36.2809 42.8161 37.2812 42.8161V42.6041ZM39.73 42.7073C38.8648 42.6512 38.1373 42.6041 37.2812 42.6041V42.8161C38.1295 42.8161 38.8505 42.8627 39.7163 42.9188L39.73 42.7073ZM40.2459 42.7403C40.0675 42.7291 39.8962 42.718 39.73 42.7073L39.7163 42.9188C39.8825 42.9296 40.054 42.9407 40.2326 42.9519L40.2459 42.7403ZM40.1333 42.6117V42.8461H40.3453V42.6117H40.1333ZM39.1229 42.4067C39.3977 42.6579 39.7911 42.7109 40.2377 42.7176L40.2409 42.5057C39.7956 42.499 39.4769 42.4431 39.266 42.2502L39.1229 42.4067ZM38.7225 41.0291C38.7225 41.6786 38.823 42.1324 39.1229 42.4067L39.266 42.2502C39.0379 42.0417 38.9345 41.6723 38.9345 41.0291H38.7225ZM38.7225 27.402V41.0291H38.9345V27.402H38.7225ZM38.7594 26.3745C38.7411 26.7045 38.7225 27.0497 38.7225 27.402H38.9345C38.9345 27.0564 38.9528 26.7168 38.9711 26.3862L38.7594 26.3745ZM38.7608 26.3485L38.7594 26.3745L38.9711 26.3862L38.9725 26.3602L38.7608 26.3485ZM38.794 25.5855C38.7894 25.8308 38.7754 26.0843 38.7608 26.3485L38.9725 26.3602C38.9871 26.0968 39.0013 25.8393 39.006 25.5895L38.794 25.5855ZM34.6281 26.9344C36.0584 26.7612 37.5037 26.3089 38.9422 25.6847L38.8578 25.4903C37.4318 26.1091 36.0068 26.5539 34.6026 26.7239L34.6281 26.9344Z" fill="#29B4B4"/>
    <path fill-rule="evenodd" clip-rule="evenodd" d="M46.5878 32.9872V31.5195H47.7871V29.9291C48.6083 29.5736 49.5848 28.8136 50.2283 28.0548H50.8048V31.5195H52.8466V32.9872H50.8048V39.1148C50.8048 40.3482 51.3156 40.8703 52.1584 40.8703C52.6909 40.8703 53.135 40.6571 53.4897 40.3482L53.2457 42.4133C52.5802 42.7696 51.8037 42.9589 50.9378 42.9589C48.2528 42.9589 47.7871 41.1317 47.7871 39.3758V32.9872H46.5878Z" fill="#FEFEFE"/>
    <path fill-rule="evenodd" clip-rule="evenodd" d="M46.5878 32.9872V31.5195H47.7871V29.9291C48.6083 29.5736 49.5848 28.8136 50.2283 28.0548H50.8048V31.5195H52.8466V32.9872H50.8048V39.1148C50.8048 40.3482 51.3156 40.8703 52.1584 40.8703C52.6909 40.8703 53.135 40.6571 53.4897 40.3482L53.2457 42.4133C52.5802 42.7696 51.8037 42.9589 50.9378 42.9589C48.2528 42.9589 47.7871 41.1317 47.7871 39.3758V32.9872H46.5878Z" stroke="#29B4B4" stroke-width="0.212"/>
    <path fill-rule="evenodd" clip-rule="evenodd" d="M22.2955 16.2643C22.2955 16.2643 22.437 16.4543 22.6414 16.5048C22.3704 16.6339 22.2955 16.2643 22.2955 16.2643ZM21.8357 16.724C21.8357 16.724 22.234 16.5535 22.0741 15.9935C22.6081 16.821 21.8357 16.724 21.8357 16.724ZM21.6508 15.7164C21.6508 15.7164 21.7919 15.9064 21.997 15.9562C21.7256 16.0853 21.6508 15.7164 21.6508 15.7164ZM21.1135 15.2445C21.1135 15.2445 21.255 15.4345 21.4598 15.484C21.1884 15.6135 21.1135 15.2445 21.1135 15.2445ZM20.6468 15.7326C20.6468 15.7326 21.0969 15.5592 20.9254 15.0383C21.4594 15.8669 20.6468 15.7326 20.6468 15.7326ZM20.6167 14.7217C20.6167 14.7217 20.6945 14.9199 20.9025 15.0405C20.5433 15.0239 20.6167 14.7217 20.6167 14.7217ZM20.1063 15.17C20.1063 15.17 20.5042 14.9833 20.3396 14.3971C20.8736 15.2242 20.1063 15.17 20.1063 15.17ZM19.3462 14.6885C19.3462 14.6885 19.6852 13.8178 19.3093 12.7955C20.0636 13.9927 19.3462 14.6885 19.3462 14.6885ZM18.4406 14.1425C18.4406 14.1425 18.7803 13.2268 18.6374 12.2163C19.1678 13.4736 18.4406 14.1425 18.4406 14.1425ZM17.2999 13.3397C17.2999 13.3397 17.9504 12.6727 18.0278 11.6983C18.3082 12.9365 17.2999 13.3397 17.2999 13.3397ZM16.1895 12.3823C16.1895 12.3823 16.9949 12.0333 17.4695 11.1545C17.2706 12.3742 16.1895 12.3823 16.1895 12.3823ZM15.1342 11.2995C15.1342 11.2995 16.3208 11.0966 16.9681 10.4838C16.5437 11.4364 15.1342 11.2995 15.1342 11.2995ZM14.2043 9.97647C14.2043 9.97647 15.687 10.0739 16.4851 9.81082C15.84 10.3989 14.2043 9.97647 14.2043 9.97647ZM13.7177 8.87962C13.7177 8.87962 15.2933 9.25482 16.2047 9.1755C15.3928 9.5758 13.7177 8.87962 13.7177 8.87962ZM13.3591 7.78423C13.3591 7.78423 14.9727 8.36752 15.9528 8.43282C15.0274 8.67742 13.3591 7.78423 13.3591 7.78423ZM13.1804 6.82057C13.1804 6.82057 14.8027 7.55955 15.8244 7.73664C14.8233 7.85655 13.1804 6.82057 13.1804 6.82057ZM23.1678 17.2914C23.0972 17.2427 23.0035 17.0601 22.9626 16.987C22.8501 17.2346 22.4941 17.2372 22.4941 17.2372C22.4941 17.2372 22.9416 17.1519 22.7441 16.6063C22.7832 16.6627 22.815 16.714 22.8418 16.7612C22.8512 16.6387 22.8924 16.5196 22.9666 16.4214C22.7752 16.1724 22.6529 15.8145 22.8074 15.5865C22.6066 15.3522 22.5212 14.9959 22.6735 14.7538C22.4966 14.5369 22.408 14.1901 22.5415 13.9717C22.3693 13.7728 22.3505 13.4969 22.5006 13.3021C22.3541 13.0943 22.3812 12.8099 22.544 12.6007C22.2741 12.3971 22.0509 12.0477 22.1399 11.8252C21.7767 11.5271 21.595 11.0431 21.9037 10.7398C21.6305 10.5402 21.3707 10.2554 21.3034 9.94103C21.0122 9.76726 20.7408 9.57246 20.5126 9.35737C19.3393 8.2524 18.2987 7.7215 18.1327 7.74475C17.9673 7.76799 18.3071 7.95283 18.4145 8.23396C18.0433 8.11368 18.1099 8.17013 17.3523 7.72741C16.5169 7.23709 14.8411 6.66044 14.4905 6.54422C12.8295 5.99266 11.0104 4.81427 11.234 5.28319C11.4417 5.71891 12.2282 6.2963 12.9941 6.71467C12.3769 6.56525 11.1577 6.11183 11.2503 6.32692C11.4395 6.76854 12.662 7.60344 13.3045 7.73626C12.8751 7.77721 11.5332 7.29649 11.7365 7.63812C11.9829 8.05207 12.7883 8.60511 13.6497 8.85672C13.5835 8.9283 12.4305 8.67816 12.5151 8.90838C12.628 9.21755 13.5777 9.79346 14.1244 9.9842C13.6909 10.1019 13.3827 9.97092 13.5441 10.2639C13.6801 10.5121 14.3574 10.9932 15.01 11.2836C14.8364 11.4035 14.5328 11.5035 14.6978 11.7197C14.9757 12.0831 15.6052 12.289 16.111 12.3808C15.8682 12.5771 15.7959 12.7734 16.0176 12.9619C16.2166 13.1305 16.7886 13.4035 17.2184 13.3626C16.8309 13.8267 17.8653 14.2746 18.4095 14.1801C18.2318 14.7007 19.0364 14.9328 19.3382 14.8523C19.1197 15.094 19.8791 15.3589 20.0838 15.1932C20.0136 15.4799 20.3993 15.8776 20.6168 15.7843C20.5422 15.9769 20.878 16.3476 21.1634 16.2207C21.1634 16.2207 21.6099 16.058 21.4699 15.5323C22.0039 16.3606 21.1634 16.2207 21.1634 16.2207C21.0549 16.4207 21.5473 16.8324 21.7926 16.7461C21.7267 16.9188 22.1971 17.3722 22.5191 17.284C22.4149 17.4759 22.8979 17.688 23.2235 17.7112C23.1099 17.5821 23.056 17.3873 23.1678 17.2914ZM30.5961 25.0446C30.472 25.0579 30.4343 24.8041 30.4343 24.8041C30.4343 24.8041 30.1728 24.4355 29.8117 24.1555C29.5592 23.9603 29.1239 23.8895 28.8855 23.864C28.8681 23.8751 28.8508 23.8854 28.8341 23.8958C28.6597 24.0042 28.2364 24.34 28.0201 24.6362C28.3356 24.6281 28.833 24.6377 29.002 24.7528C29.3012 24.9557 29.3446 25.2992 29.544 25.4007C29.7433 25.5021 29.65 25.2601 29.799 25.2601C29.9235 25.2601 30.3547 25.7973 30.5089 26.0094C30.6055 25.604 30.6818 25.0362 30.5961 25.0446ZM42.6066 13.9282C42.5267 14.1038 42.0878 14.0901 41.9898 14.2521C41.9388 14.3358 41.9196 14.4801 41.9152 14.7232C41.9152 14.7232 41.8172 14.3045 41.9196 14.1621C42.0223 14.0186 42.471 14.0186 42.5549 13.8518C42.6254 13.7112 42.5708 13.636 42.552 13.6153C42.5788 13.6441 42.6793 13.7673 42.6066 13.9282ZM41.5552 13.1043C41.5186 13.1043 41.282 13.1829 41.21 13.0184C41.1492 12.88 40.939 12.8276 40.939 12.8276C40.939 12.8276 41.1322 12.8295 41.2143 12.8188C41.2845 12.8088 41.4014 12.7468 41.4763 12.7852C41.5508 12.8236 41.5903 12.9276 41.5975 12.9996C41.6018 13.0471 41.7332 13.1615 41.7332 13.1615C41.7332 13.1615 41.5928 13.1043 41.5552 13.1043ZM27.0317 18.5716C27.2969 18.7262 27.9843 18.1141 27.9843 18.1141C27.9843 18.1141 27.2557 18.9704 26.9376 18.7048C26.6793 18.4886 27.0252 18.1396 27.1435 18.0318C27.0701 18.0481 27.0002 18.0459 26.9376 18.0186C26.6095 17.8762 27.0303 17.3323 27.2622 17.0686C27.1359 17.1261 27.0122 17.149 26.9101 17.1047C26.4713 16.914 27.9279 15.419 27.9279 15.419C27.9279 15.419 26.8772 16.7361 27.0223 16.9328C27.162 17.1235 27.9561 16.514 27.9561 16.514C27.9561 16.514 27.6417 16.869 27.3222 17.0394C27.1909 17.2519 26.942 17.6994 27.0505 17.8474C27.1902 18.0381 27.9843 17.4286 27.9843 17.4286C27.9843 17.4286 27.5317 17.9396 27.1601 18.0289C27.0892 18.1292 26.8646 18.4742 27.0317 18.5716ZM26.798 25.3243C26.798 25.3243 27.209 23.94 27.2466 23.0638C27.4329 24.1433 26.798 25.3243 26.798 25.3243ZM26.0005 26.1751C26.0005 26.1751 26.5367 24.7779 26.574 23.9017C26.761 24.9808 26.0005 26.1751 26.0005 26.1751ZM25.3287 26.7078C25.3287 26.7078 25.9763 25.4767 25.9886 24.4606C26.1757 25.5405 25.3287 26.7078 25.3287 26.7078ZM24.7184 27.0258C24.7184 27.0258 25.391 25.8703 25.4279 24.8546C25.6153 25.9341 24.7184 27.0258 24.7184 27.0258ZM24.1829 27.3686C24.1829 27.3686 24.8805 26.1751 24.8928 25.2225C25.0798 26.3027 24.1829 27.3686 24.1829 27.3686ZM23.6475 27.6224C23.6475 27.6224 24.4315 26.4171 24.4069 25.4892C24.5939 26.5683 23.6475 27.6224 23.6475 27.6224ZM24.997 2.40585C24.997 2.40585 25.8729 4.01332 26.7441 4.84232C25.5629 4.21623 24.997 2.40585 24.997 2.40585ZM24.1116 3.14262C24.1116 3.14262 25.1518 4.64494 26.1055 5.37396C24.8652 4.88069 24.1116 3.14262 24.1116 3.14262ZM23.2687 4.09042C23.2687 4.09042 24.5013 5.43299 25.544 6.02145C24.2488 5.70637 23.2687 4.09042 23.2687 4.09042ZM22.5593 5.12714C22.5593 5.12714 24.0032 6.22879 25.1305 6.62208C23.8013 6.54313 22.5593 5.12714 22.5593 5.12714ZM22.0614 6.61949C22.0614 6.61949 23.5288 7.32232 24.8877 7.38725C23.3834 7.69495 22.0614 6.61949 22.0614 6.61949ZM22.7014 11.7241C22.7014 11.7241 24.0237 11.4091 24.7672 10.4963C24.226 11.7854 22.7014 11.7241 22.7014 11.7241ZM24.4348 16.7708C24.4348 16.7708 24.4442 16.9999 24.65 17.1136C24.2108 17.1519 24.4348 16.7708 24.4348 16.7708ZM23.8642 17.8396C23.8642 17.8396 24.4315 17.7588 24.612 17.2479C24.6724 18.0857 23.8642 17.8396 23.8642 17.8396ZM23.4637 17.1449C23.4637 17.1449 24.0053 17.2265 24.3664 16.6535C24.2459 17.5947 23.4637 17.1449 23.4637 17.1449ZM24.3925 16.5591C23.9649 16.4513 24.2973 16.1639 24.2973 16.1639C24.2973 16.1639 24.234 16.3838 24.3925 16.5591ZM23.3432 16.4081C23.3432 16.4081 23.8844 16.5236 24.2386 15.9717C24.0179 16.9125 23.3432 16.4081 23.3432 16.4081ZM23.1628 15.5485C23.1628 15.5485 23.725 15.8086 24.1259 15.3242C23.8046 16.2451 23.1628 15.5485 23.1628 15.5485ZM24.1309 15.1874C23.7037 15.0796 24.0365 14.7926 24.0365 14.7926C24.0365 14.7926 23.9728 15.0121 24.1309 15.1874ZM24.234 15.8835C23.8064 15.7751 24.1388 15.4877 24.1388 15.4877C24.1388 15.4877 24.0755 15.7072 24.234 15.8835ZM23.0433 14.7616C23.0433 14.7616 23.6504 14.9335 24.1051 14.4646C23.7444 15.3648 23.0433 14.7616 23.0433 14.7616ZM23.9706 13.992C23.9706 13.992 23.9073 14.2119 24.0661 14.3879C23.6381 14.2801 23.9706 13.992 23.9706 13.992ZM23.9333 13.3161C23.9333 13.3161 23.87 13.536 24.0285 13.7112C23.6005 13.6031 23.9333 13.3161 23.9333 13.3161ZM22.9626 12.5624C22.9626 12.5624 23.5849 12.7225 24.0657 12.2355C23.7046 13.1353 22.9626 12.5624 22.9626 12.5624ZM23.9387 13.039C23.5816 12.7774 23.9941 12.6361 23.9941 12.6361C23.9941 12.6361 23.8555 12.8162 23.9387 13.039ZM22.9022 13.2991C22.9022 13.2991 23.5665 13.5039 23.9648 13.0541C23.6037 13.9543 22.9022 13.2991 22.9022 13.2991ZM22.3602 10.7417C22.3602 10.7417 23.7347 10.3989 24.7072 9.65808C23.8649 10.8272 22.3602 10.7417 22.3602 10.7417ZM21.9622 8.04694C21.9622 8.04694 23.1923 8.38968 24.667 8.165C23.1022 8.7992 21.9622 8.04694 21.9622 8.04694ZM22.06 9.4334C22.06 9.4334 23.4822 9.46587 24.6468 8.90176C23.5643 9.88388 22.06 9.4334 22.06 9.4334ZM42.9876 13.9075C42.0346 13.0154 42.0458 12.4137 40.9076 12.1038C39.0715 11.605 37.9688 12.4472 37.3715 12.6627C36.946 12.8169 35.845 13.298 34.6996 12.9424C33.5538 12.5867 32.7883 12.8667 32.1906 12.7642C31.5925 12.6627 29.849 10.6819 29.849 9.15816C29.849 7.63408 29.3509 6.56711 29.1519 6.46528C28.9525 6.36456 29.1019 6.71948 28.903 6.97331C28.6479 6.63721 28.6537 6.71948 28.3545 5.90708C28.0252 5.01019 26.9124 3.46914 26.6747 3.14964C25.5491 1.63441 24.9554 -0.389216 24.6689 0.0649471C24.4015 0.487381 24.5817 1.4053 24.9192 2.20885C24.4391 1.68126 23.6674 0.537188 23.5242 0.739735C23.2318 1.15221 23.5835 2.54015 24.1085 3.07548C23.6132 2.79952 22.7434 1.55324 22.5766 1.91259C22.374 2.34867 22.602 3.26438 23.2235 4.02734C23.0745 4.02734 22.1465 3.05999 21.9786 3.26512C21.7536 3.54071 22.1067 4.57189 22.467 5.07697C21.8816 4.84749 21.7062 4.54791 21.5488 4.84638C21.4153 5.09984 21.5889 5.87978 21.9489 6.52284C21.6338 6.47635 21.2054 6.32693 21.1385 6.58002C21.0242 7.00615 21.4544 7.578 21.8816 7.99047C21.4095 7.94509 21.1154 8.01888 21.1385 8.29448C21.158 8.54056 21.4544 9.11463 21.9489 9.38985C21.0263 9.4131 21.6114 10.4232 22.2868 10.7442C21.5216 10.9512 22.1067 11.6618 22.5119 11.8234C22.0137 11.8234 22.514 12.5236 22.9124 12.5612C22.5202 12.6944 22.4811 13.2176 22.8132 13.3106C22.5206 13.3807 22.4601 13.8514 22.9001 13.9713C22.9001 13.9713 23.5477 14.1809 23.9851 13.7496C23.624 14.6491 22.9001 13.9713 22.9001 13.9713C22.5636 14.0219 22.6215 14.6291 22.975 14.7461C22.7134 14.8092 22.7015 15.4268 23.1367 15.5965C22.8006 15.647 22.9001 16.206 23.2492 16.4347C22.8259 16.6122 23.0622 17.2265 23.3733 17.2346C22.9001 17.8319 23.772 17.895 23.772 17.895C23.772 17.895 23.598 18.3019 23.7217 18.6188C23.8342 18.9055 25.1823 17.9156 25.565 17.5401C26.5726 16.5513 26.8936 16.265 27.8961 14.7103C27.2944 16.3263 25.2767 17.9975 25.3346 17.9975C25.454 17.9961 26.0632 17.9592 26.1193 18.3019C26.1606 18.5517 25.696 19.1715 25.3165 21.7563C25.1848 22.648 24.5755 23.3623 24.0213 25.7685C23.7232 27.062 23.1834 27.477 23.1743 27.8515C23.1689 28.05 23.3422 27.953 23.5289 27.8098C23.5101 28.0393 23.9956 27.8482 24.0705 27.4959C24.0705 27.9021 24.4728 27.5054 24.6403 27.2479C24.6121 27.5811 25.1171 27.2383 25.2666 26.8355C25.2387 27.2383 25.7807 26.7148 25.9138 26.378C26.2279 26.7344 26.7611 25.5147 26.7611 25.5147C26.7611 25.5147 26.9008 25.7825 27.1721 25.6545C27.4956 25.5021 27.679 24.9317 27.7572 24.6513C27.8693 24.247 27.9844 23.8194 28.0224 22.9915C28.0437 22.7974 28.0209 22.2005 28.3585 21.5434C28.1522 22.2097 28.1674 22.7498 28.1714 22.9719C28.179 23.4623 28.1059 23.9053 27.9377 24.6384C27.9655 24.496 28.2054 24.102 28.7159 23.8511L29.5252 23.3305L28.9153 22.517C28.9153 22.517 30.4847 24.0042 30.5592 24.0795C30.6338 24.1555 30.5961 24.6384 30.5712 24.7908C30.5466 24.9435 30.7713 24.9808 30.7713 24.9808C30.7713 24.9808 30.6964 25.8836 30.5961 26.1751C30.5961 26.1751 30.4782 26.8096 30.7459 26.9369C30.9948 26.5303 31.4869 27.2479 31.4435 27.8515C31.5799 27.8006 31.8418 27.5523 31.8418 27.5523C31.8418 27.5523 32.1595 27.743 32.2901 28.0548C32.5889 27.5977 31.7481 24.2949 31.4938 23.788C31.2485 23.301 29.8367 22.5462 29.6186 22.1909C30.0111 22.486 30.179 22.5532 30.3849 22.6668C32.1812 21.6146 34.2112 17.2995 34.3823 17.0829C34.7181 16.6565 36.2137 16.7144 37.6699 15.1707C38.1678 14.6435 38.9395 14.9866 40.1732 15.018C40.9018 15.0383 41.5057 14.7966 41.9543 14.8981C42.4026 14.9999 44.8117 15.571 44.8617 15.2667C44.8982 15.0449 43.5169 14.403 42.9876 13.9075Z" fill="#FEFEFE"/>
    <path fill-rule="evenodd" clip-rule="evenodd" d="M28.9464 23.6666L29.5593 23.2741L29.6303 23.2287L29.5798 23.1614L29.5226 23.0853C29.9576 23.4968 30.4536 23.9658 30.4932 24.006C30.5295 24.0634 30.5162 24.4307 30.487 24.6256L30.4852 24.6234C30.4744 24.6084 30.2144 24.246 29.8503 23.9647C29.6141 23.7829 29.2388 23.702 28.9464 23.6666ZM27.0899 18.595C27.0502 18.595 27.0182 18.5844 26.9915 18.5621C26.9771 18.5504 26.9652 18.538 26.9562 18.5252C26.9685 18.538 26.9818 18.5486 26.9977 18.5577C27.0344 18.5789 27.0776 18.5907 27.1255 18.5925C27.1133 18.5943 27.1014 18.595 27.0899 18.595ZM27.06 17.8876C27.0275 17.8876 26.9995 17.8821 26.9732 17.8704C26.9202 17.8481 26.9076 17.8178 26.9022 17.794C26.8893 17.7336 26.9141 17.6437 26.9728 17.5325C26.9408 17.6605 26.9472 17.7563 26.9933 17.8189C27.0124 17.8448 27.047 17.8748 27.1061 17.884C27.0899 17.8865 27.0747 17.8876 27.06 17.8876ZM24.2728 17.704C24.351 17.6597 24.4317 17.6008 24.5044 17.5244C24.4896 17.5544 24.4716 17.5811 24.4511 17.6038C24.4068 17.6524 24.347 17.6861 24.2728 17.704ZM23.8691 17.1045C23.9754 17.0687 24.0924 17.009 24.2066 16.9121C24.1324 17.0401 24.0208 17.1045 23.8745 17.1045H23.8691ZM27.0333 16.9812C27.0012 16.9812 26.9717 16.9757 26.9454 16.9644C26.9256 16.9556 26.9159 16.9443 26.9123 16.9238C26.9025 16.8763 26.9198 16.8086 26.9573 16.727C26.9353 16.8082 26.936 16.8722 26.9659 16.9121C26.9854 16.9384 27.02 16.9688 27.0805 16.9776C27.0639 16.9798 27.048 16.9812 27.0333 16.9812ZM22.0961 16.5595C22.1411 16.4995 22.1811 16.4212 22.2017 16.3217C22.2171 16.3894 22.2153 16.4443 22.1941 16.4838C22.1743 16.5211 22.1372 16.5448 22.0961 16.5595ZM23.7323 16.4011C23.8213 16.3777 23.9171 16.3386 24.0132 16.2746C23.9412 16.3587 23.8522 16.4015 23.7481 16.4015C23.7435 16.4015 23.7377 16.4015 23.7323 16.4011ZM21.4479 16.0778C21.5077 16.013 21.5588 15.9282 21.5855 15.8224C21.6053 15.8956 21.6053 15.9538 21.584 15.994C21.5588 16.0408 21.5044 16.0653 21.4479 16.0778ZM23.5378 15.6403C23.6656 15.6399 23.7856 15.6136 23.8958 15.5624C23.8288 15.6308 23.7539 15.6655 23.671 15.6655C23.6264 15.6655 23.5814 15.656 23.5378 15.6403ZM20.9307 15.5902C20.9837 15.5306 21.0287 15.4556 21.0532 15.3641C21.0705 15.4417 21.06 15.4874 21.046 15.5126C21.0244 15.554 20.9793 15.5774 20.9307 15.5902ZM20.3793 14.9995C20.4221 14.9362 20.4599 14.8553 20.4783 14.7536C20.4945 14.8334 20.4841 14.8861 20.4653 14.9212C20.4466 14.9567 20.4156 14.9815 20.3793 14.9995ZM23.4391 14.8169C23.5644 14.8067 23.7088 14.7763 23.854 14.7068C23.7683 14.7899 23.6696 14.8312 23.5579 14.8312C23.5176 14.8312 23.4773 14.8261 23.4391 14.8169ZM23.2911 14.0576C23.4618 14.0576 23.6192 14.0265 23.7596 13.9658C23.6757 14.0514 23.5792 14.0945 23.4697 14.0945C23.4042 14.0945 23.3401 14.0799 23.2803 14.0576H23.2911ZM19.5837 14.1011C19.6017 13.9471 19.6097 13.7675 19.5971 13.57C19.6324 13.7774 19.619 13.9555 19.5837 14.1011ZM23.2871 13.3867C23.4438 13.3856 23.5867 13.3578 23.7139 13.3048C23.6346 13.3772 23.5453 13.4134 23.4463 13.4134C23.3912 13.4134 23.3379 13.4028 23.2871 13.3867ZM18.691 13.6373C18.7349 13.431 18.776 13.1717 18.7882 12.8834C18.821 13.198 18.7662 13.4496 18.691 13.6373ZM41.1596 12.8644C41.161 12.8644 41.1628 12.8641 41.1646 12.8637C41.1917 12.86 41.2201 12.8512 41.25 12.8421C41.2864 12.8315 41.3271 12.8191 41.3573 12.8191C41.3674 12.8191 41.3757 12.8205 41.3804 12.8227C41.4225 12.8443 41.4538 12.9182 41.4592 12.9738C41.46 12.9807 41.4614 12.9881 41.4643 12.9954C41.4589 12.9961 41.4538 12.9972 41.4474 12.9979C41.4193 13.0034 41.3793 13.0107 41.3397 13.0107C41.2561 13.0107 41.2316 12.98 41.2198 12.9533C41.205 12.9193 41.1837 12.8897 41.1596 12.8644ZM23.394 12.6255C23.5205 12.6105 23.6616 12.5754 23.8046 12.5056C23.7128 12.5904 23.6054 12.6332 23.4841 12.6332C23.4535 12.6332 23.4232 12.6303 23.394 12.6255ZM17.7114 12.9544C17.8252 12.7733 17.9483 12.5374 18.0362 12.259C17.9988 12.5751 17.8579 12.8004 17.7114 12.9544ZM16.7152 12.161C16.8877 12.0352 17.0883 11.8611 17.2774 11.631C17.1261 11.9126 16.9104 12.0718 16.7152 12.161ZM23.4974 11.5092C23.7618 11.3903 24.0629 11.2268 24.3452 11.0099C24.0888 11.2722 23.778 11.4229 23.4974 11.5092ZM16.0111 11.1358C16.2067 11.0644 16.4166 10.9733 16.6161 10.8592C16.435 10.9997 16.2186 11.0849 16.0111 11.1358ZM23.124 10.5746C23.4388 10.4587 23.8213 10.2978 24.1958 10.0871C23.8429 10.3596 23.4536 10.5015 23.124 10.5746ZM22.9399 9.45464C23.2522 9.41623 23.6228 9.35076 23.9991 9.2392C23.621 9.40343 23.241 9.45098 22.9399 9.45464ZM23.4271 8.34705C23.1833 8.34705 22.9647 8.31742 22.776 8.27536C23.0263 8.30426 23.3241 8.3262 23.6547 8.3262C23.7016 8.3262 23.7484 8.32584 23.7952 8.32474C23.6724 8.33974 23.5496 8.34705 23.4271 8.34705ZM23.9923 7.35651C23.6376 7.31299 23.3109 7.2102 23.0329 7.09279C23.3189 7.18789 23.648 7.28372 23.9923 7.35651ZM24.2094 6.30307C24.0113 6.20833 23.8237 6.0964 23.6512 5.97972C23.828 6.08836 24.0167 6.19882 24.2094 6.30307ZM24.692 5.54518C24.5148 5.41789 24.3506 5.27523 24.2018 5.13075C24.3563 5.26829 24.5217 5.40948 24.692 5.54518ZM25.3281 4.7884C25.1697 4.63734 25.0249 4.47274 24.897 4.30777C25.0317 4.46615 25.1769 4.63002 25.3281 4.7884ZM26.0339 4.17974C25.892 4.01184 25.7652 3.83152 25.655 3.65338C25.7728 3.82603 25.9003 4.00489 26.0339 4.17974ZM24.7763 0C24.7338 0 24.6726 0.0171916 24.6196 0.100223C24.3708 0.491971 24.4821 1.21694 24.7043 1.87864C24.634 1.79231 24.562 1.70233 24.4914 1.61308C24.002 0.999305 23.7535 0.710341 23.5903 0.709975C23.5471 0.709975 23.5082 0.729727 23.4827 0.765573C23.2406 1.10611 23.4016 2.05384 23.7481 2.71736C23.6606 2.63141 23.5702 2.53923 23.4812 2.44815C23.1085 2.06628 22.8708 1.83218 22.694 1.83218C22.6223 1.83218 22.565 1.87059 22.5322 1.94082C22.3392 2.35378 22.5103 3.09375 22.9226 3.75215C22.9086 3.74081 22.8949 3.72947 22.8816 3.7185C22.5168 3.42002 22.2459 3.20897 22.0738 3.20897C22.0075 3.20897 21.9686 3.23969 21.9474 3.2653C21.7111 3.55426 21.996 4.41092 22.2924 4.938C22.2042 4.89411 22.1282 4.85095 22.0615 4.81327C21.9254 4.73646 21.8271 4.68086 21.7349 4.68086C21.5984 4.68086 21.5325 4.80522 21.5109 4.84582C21.3701 5.11211 21.5177 5.81697 21.8339 6.44062C21.8224 6.43842 21.8105 6.43586 21.7979 6.4333C21.6683 6.40806 21.5339 6.38173 21.419 6.38173C21.2401 6.38173 21.1313 6.44866 21.0956 6.58108C20.9739 7.03427 21.4086 7.58989 21.7118 7.90995C21.6989 7.90995 21.6866 7.90958 21.6744 7.90958C21.4259 7.90958 21.2609 7.95896 21.1698 8.05955C21.1108 8.12466 21.0848 8.20805 21.0931 8.30791C21.1115 8.53213 21.3459 9.02374 21.7587 9.33685C21.5365 9.39354 21.4583 9.52705 21.4349 9.64227C21.3636 9.98756 21.7252 10.4623 22.1271 10.7158C21.9265 10.8142 21.8721 10.9558 21.866 11.0673C21.8516 11.3296 22.0961 11.6175 22.3349 11.7777C22.2654 11.8304 22.2546 11.9061 22.2531 11.9372C22.2438 12.1446 22.4865 12.4295 22.7382 12.5513C22.5956 12.6643 22.5333 12.8319 22.5369 12.9756C22.5402 13.0985 22.5895 13.2028 22.6709 13.2726C22.5855 13.3428 22.5319 13.4504 22.5308 13.5696C22.5286 13.6933 22.5855 13.8399 22.7404 13.9354C22.6759 13.9965 22.6356 14.0857 22.6262 14.1944C22.6115 14.3707 22.6842 14.5843 22.8449 14.7035C22.7854 14.7683 22.7476 14.8645 22.7404 14.9793C22.7278 15.1703 22.802 15.3963 22.9885 15.5346C22.9378 15.5785 22.9028 15.6399 22.887 15.7156C22.8427 15.9227 22.95 16.1912 23.1333 16.362C23.0116 16.4556 22.9515 16.6019 22.9695 16.7691L22.9284 16.8598L22.9414 16.7021C22.9511 16.5902 22.9882 16.4882 23.0505 16.4062L23.0869 16.3583L23.0501 16.3108C22.8823 16.0928 22.7617 15.7698 22.8942 15.5752L22.928 15.5254L22.8891 15.4797C22.7246 15.2881 22.6241 14.9665 22.7624 14.7471L22.7926 14.6991L22.7566 14.6556C22.6068 14.4727 22.5164 14.1585 22.6313 13.9713L22.6619 13.9219L22.6237 13.8783C22.4764 13.7086 22.4609 13.4764 22.5863 13.3139L22.6216 13.2682L22.5884 13.2207C22.4667 13.0484 22.4829 12.8066 22.6288 12.619L22.6781 12.5561L22.6144 12.5081C22.3443 12.3051 22.1721 11.995 22.238 11.8307L22.2596 11.7769L22.2153 11.7407C22.0007 11.5659 21.8617 11.3278 21.8527 11.1193C21.8465 10.9869 21.8912 10.8735 21.9848 10.7817L22.0511 10.7166L21.9762 10.6624C21.6697 10.4393 21.4633 10.1675 21.4086 9.91697L21.4018 9.88368L21.3729 9.86649C21.0679 9.68543 20.8079 9.49413 20.599 9.29807C19.4649 8.23439 18.4273 7.67768 18.19 7.67768C18.1814 7.67768 18.1742 7.67804 18.1677 7.67914C18.0985 7.68865 18.0726 7.7245 18.0625 7.75303C18.0377 7.82399 18.0917 7.88178 18.1731 7.96957C18.2098 8.00907 18.2534 8.05626 18.293 8.1082C18.1061 8.0504 18.0265 8.01346 17.4391 7.67146C16.5265 7.13779 14.6548 6.5178 14.576 6.49183C13.829 6.24493 13.0587 5.87476 12.4389 5.57665C11.8299 5.28403 11.5043 5.13113 11.3512 5.13113C11.2821 5.13113 11.2486 5.16186 11.2324 5.18783C11.1942 5.25038 11.2302 5.32499 11.2414 5.3495C11.4168 5.71491 11.9606 6.14909 12.5091 6.49804C12.472 6.48707 12.4345 6.47573 12.3982 6.46439C11.9746 6.3371 11.5756 6.21639 11.3988 6.21639H11.3981C11.3725 6.21639 11.2976 6.21676 11.2619 6.27309C11.25 6.29101 11.2338 6.32942 11.2572 6.38209C11.4013 6.71788 12.1104 7.26691 12.7407 7.5877C12.6931 7.57819 12.6456 7.56831 12.598 7.55807C12.3344 7.50283 12.0856 7.45053 11.9289 7.45053C11.8619 7.45053 11.769 7.45858 11.729 7.53027C11.7121 7.56136 11.7002 7.61513 11.7456 7.69085C11.9653 8.05809 12.5574 8.48129 13.2049 8.75745C13.0734 8.74465 12.9366 8.73331 12.8235 8.73331C12.656 8.73331 12.5674 8.75855 12.526 8.81817C12.503 8.85256 12.4983 8.89462 12.5138 8.93705C12.6276 9.24686 13.381 9.7103 13.9108 9.94806C13.8712 9.95282 13.8333 9.95574 13.7988 9.95867C13.6544 9.97074 13.5503 9.97988 13.5063 10.0636C13.4678 10.1368 13.5056 10.2242 13.5431 10.2919C13.681 10.5421 14.2968 10.9828 14.9051 11.2744C14.7841 11.3446 14.6624 11.4189 14.6386 11.5403C14.6257 11.6072 14.6455 11.676 14.698 11.7448C14.9923 12.1281 15.6269 12.3176 16.0014 12.3988C15.9103 12.4972 15.8653 12.5934 15.8635 12.6899C15.8624 12.7971 15.9161 12.8973 16.0237 12.9884C16.2189 13.1534 16.7152 13.3893 17.1297 13.4069C17.0876 13.5173 17.1096 13.615 17.1413 13.6848C17.286 14.0042 17.8651 14.2269 18.2944 14.2269C18.315 14.2269 18.3348 14.2262 18.3546 14.2251C18.342 14.3389 18.3693 14.4464 18.4363 14.5422C18.5977 14.7719 18.9708 14.8959 19.2398 14.8959C19.2474 14.8959 19.2549 14.8959 19.2621 14.8956C19.2629 14.9208 19.2683 14.9464 19.2794 14.9717C19.359 15.1564 19.7091 15.2698 19.9248 15.2698C19.9659 15.2698 20.0037 15.2665 20.0379 15.2595C20.0487 15.3612 20.0952 15.4695 20.1733 15.5708C20.2864 15.7178 20.4355 15.8115 20.5655 15.8181C20.5723 15.8788 20.5976 15.9443 20.6404 16.0079C20.7189 16.1253 20.8799 16.2632 21.0729 16.2632C21.0838 16.2632 21.0949 16.2625 21.1057 16.2614C21.1115 16.2987 21.1262 16.3415 21.154 16.389C21.2581 16.5686 21.526 16.7684 21.7446 16.7698C21.7547 16.8141 21.7774 16.8616 21.8112 16.9121C21.9398 17.1038 22.2164 17.302 22.4566 17.3028C22.4609 17.3243 22.4685 17.3456 22.4793 17.3668C22.5848 17.5636 22.9965 17.6978 23.2403 17.715L23.2893 17.7183C23.4027 17.8214 23.5759 17.8657 23.6869 17.8847C23.64 18.0314 23.5734 18.3193 23.6707 18.5658C23.6854 18.6031 23.7261 18.666 23.8356 18.666C24.2148 18.666 25.3291 17.817 25.6295 17.5237L25.7671 17.3891C25.9468 17.2139 26.1038 17.0606 26.2486 16.9154C25.919 17.2654 25.6244 17.5431 25.4559 17.7026C25.2531 17.8931 25.2531 17.8931 25.2747 17.9487L25.2935 17.9981L25.3471 17.9988L25.3763 17.9981C25.3983 17.9977 25.4267 17.997 25.4591 17.997C25.7123 17.997 26.0202 18.0387 26.0526 18.2355C26.0631 18.2988 26.0181 18.4294 25.9507 18.6265C25.7951 19.079 25.506 19.9214 25.2528 21.6358C25.1991 22.0015 25.0633 22.3322 24.875 22.7894C24.6254 23.3966 24.284 24.228 23.9645 25.6077C23.7913 26.3598 23.5363 26.8024 23.3501 27.1261C23.219 27.354 23.124 27.5186 23.12 27.6887C23.1182 27.756 23.133 27.8046 23.1654 27.8386C23.1834 27.8576 23.2154 27.88 23.2666 27.88C23.3278 27.88 23.4034 27.8474 23.5115 27.7731L23.5126 27.7739C23.5345 27.7977 23.5745 27.8262 23.644 27.8262C23.7726 27.8262 23.966 27.723 24.0805 27.5497C24.1169 27.5829 24.159 27.5888 24.1846 27.5888C24.3297 27.5888 24.512 27.403 24.6283 27.2596C24.6488 27.2808 24.6841 27.3035 24.7392 27.3035C24.8955 27.3035 25.1271 27.1082 25.2675 26.8785C25.292 26.8967 25.3212 26.9059 25.3533 26.9059C25.534 26.9059 25.8211 26.5899 25.9522 26.3488C25.9896 26.3671 26.0249 26.3722 26.0523 26.3722C26.3429 26.3722 26.6534 25.7943 26.7841 25.5196C26.8399 25.5726 26.9235 25.6249 27.034 25.6249C27.0909 25.6249 27.1496 25.6107 27.2076 25.5832C27.4619 25.4644 27.6719 25.1128 27.8318 24.5389C27.9348 24.1702 28.0514 23.754 28.0947 22.9635C28.0893 23.4193 28.0086 23.856 27.8663 24.4742C27.8649 24.4793 27.8638 24.4848 27.8627 24.4896L27.9243 24.5035L27.8645 24.5847L28.0223 24.5806C28.072 24.5792 28.1271 24.5784 28.1843 24.5784C28.5762 24.5784 28.8571 24.6168 28.9554 24.6834C29.0995 24.7807 29.1776 24.9128 29.2529 25.0404C29.3231 25.16 29.3901 25.2731 29.5032 25.3305C29.5471 25.3528 29.5839 25.3634 29.617 25.3634C29.7124 25.3634 29.7438 25.284 29.761 25.2412C29.7776 25.1995 29.7794 25.1995 29.7917 25.1995C29.8716 25.2189 30.2145 25.607 30.4363 25.911L30.5101 26.0119L30.5094 26.0141C30.4965 26.0847 30.3899 26.7069 30.701 26.8547L30.7626 26.8836L30.799 26.8251C30.8318 26.7713 30.8688 26.7438 30.9085 26.7438C30.9571 26.7438 31.0176 26.7804 31.0788 26.8474C31.2286 27.0109 31.3748 27.3605 31.3518 27.685L31.3428 27.805L31.4541 27.7636C31.569 27.7212 31.7472 27.5683 31.8319 27.4922C31.9197 27.5551 32.1103 27.7095 32.2003 27.9227L32.2561 28.0548L32.3346 27.9352C32.6627 27.4348 31.7822 24.0953 31.5459 23.6267C31.4015 23.341 30.9139 22.9957 30.4424 22.661C30.427 22.6501 30.4111 22.6387 30.3953 22.6277L30.4122 22.6179C31.9057 21.747 33.5512 18.6624 34.1714 17.501C34.2924 17.2742 34.3874 17.095 34.4134 17.0632C34.5175 16.9315 34.7793 16.8422 35.111 16.7288C35.7556 16.509 36.7302 16.1762 37.6813 15.1728C37.8574 14.987 38.0793 14.9076 38.4229 14.9076C38.6249 14.9076 38.8514 14.9336 39.1136 14.9636C39.4071 14.9973 39.7403 15.0357 40.1163 15.0448C40.1461 15.0459 40.176 15.0459 40.2056 15.0459C40.5164 15.0459 40.8066 15.002 41.0623 14.9632C41.272 14.9314 41.4693 14.9011 41.6422 14.9011C41.7297 14.9011 41.8057 14.9087 41.8741 14.9241L41.9677 14.9453C42.437 15.0529 43.8664 15.3791 44.4913 15.3791C44.6515 15.3791 44.8381 15.3616 44.8604 15.2262C44.8867 15.0693 44.6433 14.9051 43.9939 14.5086C43.6251 14.2829 43.2063 14.0276 42.9711 13.8092C42.6445 13.5045 42.4334 13.2346 42.2472 12.9968C41.9029 12.5572 41.6307 12.2093 40.8686 12.0026C40.4843 11.8988 40.1033 11.8461 39.7363 11.8461C38.8215 11.8461 38.1614 12.1614 37.6795 12.3918C37.5351 12.461 37.4098 12.5206 37.3032 12.559C37.2697 12.5711 37.2326 12.585 37.1908 12.6003C36.8566 12.7258 36.2346 12.9584 35.5363 12.9584C35.2414 12.9584 34.9572 12.9171 34.6918 12.8348C34.2747 12.706 33.8674 12.646 33.4097 12.646C33.2231 12.646 33.0542 12.6552 32.8907 12.6643C32.752 12.672 32.6213 12.679 32.4992 12.679C32.3753 12.679 32.2752 12.6716 32.1841 12.6559C31.6324 12.5626 29.9173 10.6167 29.9173 9.15725C29.9173 7.69158 29.4409 6.55108 29.1812 6.4183C29.1474 6.40075 29.1175 6.3927 29.0894 6.3927C28.9702 6.3927 28.9561 6.5167 28.9446 6.61619C28.9367 6.68935 28.9266 6.7753 28.8913 6.85577C28.8809 6.84297 28.8711 6.8309 28.8621 6.81883C28.7033 6.61875 28.6749 6.5829 28.4253 5.90695C28.0666 4.93507 26.7956 3.22579 26.7416 3.15337C26.237 2.47632 25.8441 1.70343 25.5286 1.08234C25.1469 0.332126 24.9701 0 24.7763 0ZM27.9409 24.4925L27.9376 24.5049C27.9387 24.5009 27.9394 24.4972 27.9409 24.4925ZM28.8813 23.7372C29.1189 23.7628 29.5526 23.833 29.8039 24.0265C30.163 24.3041 30.4237 24.6692 30.4237 24.6692C30.4237 24.6692 30.4587 24.9084 30.575 24.9084C30.5782 24.9084 30.5815 24.908 30.5851 24.9076H30.5869C30.6686 24.9076 30.593 25.4655 30.4979 25.8649C30.3442 25.6542 29.9152 25.122 29.7917 25.122C29.6685 25.122 29.7107 25.2859 29.617 25.2859C29.5976 25.2859 29.5716 25.2785 29.5378 25.261C29.3386 25.16 29.2958 24.8199 28.9983 24.619C28.8564 24.5228 28.4858 24.5009 28.1844 24.5009C28.1264 24.5009 28.0709 24.5016 28.0205 24.5027C28.2359 24.2094 28.6565 23.8761 28.8308 23.7686C28.8474 23.7584 28.8647 23.7485 28.8813 23.7372ZM22.5589 16.4684C22.5906 16.4684 22.6262 16.4604 22.6665 16.4413C22.462 16.3909 22.3215 16.2029 22.3215 16.2029C22.3215 16.2029 22.3759 16.4684 22.5589 16.4684ZM21.9326 16.6619C22.109 16.6619 22.5318 16.599 22.1007 15.934C22.261 16.4893 21.8634 16.6586 21.8634 16.6586C21.8634 16.6586 21.8911 16.6619 21.9326 16.6619ZM21.9161 15.9245C21.9481 15.9245 21.9841 15.9168 22.0245 15.8974C21.8203 15.8481 21.6798 15.6593 21.6798 15.6593C21.6798 15.6593 21.7338 15.9245 21.9161 15.9245ZM21.3812 15.4563C21.4133 15.4563 21.4496 15.4479 21.4896 15.4289C21.2858 15.3799 21.1453 15.1918 21.1453 15.1918C21.1453 15.1918 21.199 15.4563 21.3812 15.4563ZM20.7942 15.6838C20.9962 15.6838 21.36 15.6081 20.9577 14.987C21.1287 15.5039 20.6811 15.6758 20.6811 15.6758C20.6811 15.6758 20.7294 15.6838 20.7942 15.6838ZM20.935 14.9892C20.7283 14.87 20.6512 14.6735 20.6512 14.6735C20.6512 14.6735 20.5777 14.9731 20.935 14.9892ZM20.1709 15.1187C20.3023 15.1187 20.8447 15.0766 20.3743 14.3517C20.5386 14.9329 20.1428 15.118 20.1428 15.118C20.1428 15.118 20.1528 15.1187 20.1709 15.1187ZM19.3857 14.6402C19.3857 14.6402 20.1002 13.9508 19.3493 12.7638C19.7235 13.7774 19.3857 14.6402 19.3857 14.6402ZM18.4839 14.0993C18.4839 14.0993 19.2081 13.4361 18.6802 12.1896C18.8228 13.1914 18.4839 14.0993 18.4839 14.0993ZM17.349 13.3033C17.349 13.3033 18.352 12.9032 18.0736 11.676C17.9965 12.6416 17.349 13.3033 17.349 13.3033ZM16.2438 12.3541C16.2438 12.3541 17.3199 12.3461 17.5184 11.1368C17.0448 12.0077 16.2438 12.3541 16.2438 12.3541ZM15.3762 11.2872C15.7705 11.2872 16.6904 11.2052 17.0188 10.4719C16.3749 11.0794 15.1932 11.2806 15.1932 11.2806C15.1932 11.2806 15.2627 11.2872 15.3762 11.2872ZM14.903 9.9861C14.5346 9.9861 14.267 9.96891 14.267 9.96891C14.267 9.96891 14.8331 10.1141 15.4299 10.1141C15.8448 10.1141 16.2744 10.0439 16.538 9.80467C16.0814 9.95428 15.4007 9.9861 14.903 9.9861ZM15.6171 9.29806C15.8552 9.29806 16.0788 9.26368 16.2589 9.17479C16.1721 9.18211 16.0795 9.18577 15.9827 9.18577C15.0661 9.18577 13.7829 8.88144 13.7829 8.88144C13.7829 8.88144 14.7891 9.29806 15.6171 9.29806ZM15.647 8.48057C15.7756 8.48057 15.8973 8.46777 16.0079 8.43851C15.0319 8.37377 13.4257 7.79547 13.4257 7.79547C13.4257 7.79547 14.711 8.48057 15.647 8.48057ZM15.7115 7.75816C15.7695 7.75816 15.8261 7.75487 15.8808 7.74828C14.8634 7.57271 13.2482 6.83969 13.2482 6.83969C13.2482 6.83969 14.7096 7.75816 15.7115 7.75816ZM11.3513 5.20866C11.6635 5.20866 13.1639 6.10701 14.5519 6.56607C14.9012 6.68092 16.5698 7.25263 17.4013 7.73912C18.1548 8.17805 18.0892 8.12208 18.4587 8.24096C18.351 7.96261 18.0136 7.77899 18.1785 7.75631C18.1814 7.75558 18.1854 7.75521 18.19 7.75521C18.3867 7.75521 19.4034 8.28266 20.5472 9.35512C20.7744 9.56874 21.0449 9.7615 21.3341 9.93378C21.4018 10.2451 21.66 10.5278 21.9316 10.7257C21.6247 11.0264 21.8052 11.5063 22.1675 11.8014C22.0789 12.0224 22.3007 12.3691 22.5687 12.5707C22.4077 12.7781 22.3807 13.0601 22.5262 13.2657C22.3771 13.4591 22.3954 13.7324 22.5665 13.9299C22.4336 14.1464 22.5215 14.4903 22.698 14.705C22.5463 14.9453 22.6313 15.2983 22.8316 15.5309C22.6778 15.7566 22.7999 16.1118 22.99 16.3587C22.9159 16.456 22.8755 16.5741 22.8651 16.6956C22.8388 16.6484 22.8071 16.5975 22.7686 16.5416C22.9652 17.0829 22.5193 17.1674 22.5193 17.1674C22.5193 17.1674 22.8744 17.1645 22.9854 16.9194C23.0268 16.9915 23.1197 17.1729 23.1906 17.2212C23.0783 17.3159 23.1323 17.5094 23.2457 17.6371C22.9216 17.6144 22.4408 17.4041 22.5449 17.2139C22.5165 17.2215 22.4876 17.2252 22.4577 17.2252C22.1462 17.2252 21.7616 16.8367 21.8217 16.6806C21.7983 16.6882 21.7735 16.6919 21.7475 16.6919C21.4908 16.6919 21.0968 16.3396 21.1951 16.1597C21.1951 16.1597 21.2484 16.1681 21.3197 16.1681C21.5304 16.1681 21.8974 16.0909 21.4998 15.4771C21.6391 15.9984 21.1951 16.1597 21.1951 16.1597C21.1547 16.1772 21.1137 16.1853 21.073 16.1853C20.8245 16.1853 20.5872 15.8908 20.6513 15.727C20.6289 15.7365 20.6052 15.7409 20.5807 15.7409C20.3606 15.7409 20.0574 15.3967 20.1201 15.141C20.0758 15.1765 20.0059 15.1922 19.9249 15.1922C19.6342 15.1922 19.2075 14.9907 19.3785 14.803C19.3393 14.8133 19.2921 14.8184 19.2399 14.8184C18.8869 14.8184 18.2995 14.5857 18.4533 14.1362C18.4043 14.145 18.3503 14.149 18.2945 14.149C17.7359 14.149 16.9173 13.7445 17.2677 13.3256C17.2382 13.3286 17.2087 13.33 17.178 13.33C16.7639 13.33 16.2572 13.0842 16.0728 12.9284C15.8524 12.7419 15.9237 12.5469 16.1657 12.3523C15.6618 12.2612 15.0352 12.0575 14.7586 11.6968C14.5947 11.4825 14.8965 11.3834 15.0698 11.2648C14.4197 10.977 13.7455 10.5 13.6097 10.2538C13.4502 9.96341 13.7563 10.0933 14.1881 9.97658C13.644 9.78784 12.6986 9.21649 12.5859 8.90997C12.5578 8.83425 12.6651 8.81084 12.8235 8.81084C13.0796 8.81084 13.4689 8.87193 13.6364 8.87193C13.6782 8.87193 13.7066 8.86791 13.7149 8.85876C12.8574 8.60893 12.0568 8.061 11.8112 7.6506C11.7572 7.56098 11.8119 7.52843 11.929 7.52843C12.2354 7.52843 12.969 7.75045 13.3144 7.75045C13.3346 7.75045 13.354 7.74936 13.372 7.74753C12.7324 7.61621 11.5159 6.78846 11.3268 6.35099C11.3095 6.31112 11.3376 6.29429 11.3988 6.29429C11.6664 6.29429 12.5632 6.61435 13.063 6.73505C12.2999 6.32026 11.5177 5.74782 11.3106 5.31584C11.2753 5.24122 11.2915 5.20866 11.3513 5.20866ZM23.6678 27.4633C23.6678 27.4633 24.6096 26.4187 24.4234 25.3488C24.4486 26.2687 23.6678 27.4633 23.6678 27.4633ZM24.2004 27.212C24.2004 27.212 25.0936 26.1549 24.907 25.0839C24.8944 26.0287 24.2004 27.212 24.2004 27.212ZM24.7338 26.8719C24.7338 26.8719 25.6258 25.7899 25.4404 24.7193C25.4026 25.7263 24.7338 26.8719 24.7338 26.8719ZM25.3411 26.5569C25.3411 26.5569 26.1838 25.3992 25.998 24.3293C25.9857 25.3363 25.3411 26.5569 25.3411 26.5569ZM26.0106 26.0288C26.0106 26.0288 26.7669 24.8444 26.581 23.7748C26.5432 24.6432 26.0106 26.0288 26.0106 26.0288ZM26.8043 25.1849C26.8043 25.1849 27.4359 24.0144 27.2498 22.9438C27.2134 23.8129 26.8043 25.1849 26.8043 25.1849ZM24.1292 17.798C24.3607 17.798 24.6658 17.7011 24.6283 17.1776C24.4486 17.6846 23.8835 17.7647 23.8835 17.7647C23.8835 17.7647 23.9934 17.798 24.1292 17.798ZM24.6066 17.0474C24.6247 17.0474 24.6445 17.0467 24.665 17.0449C24.4608 16.9322 24.4518 16.7051 24.4518 16.7051C24.4518 16.7051 24.249 17.0474 24.6066 17.0474ZM23.5561 17.0796C23.5111 17.0796 23.4844 17.076 23.4844 17.076C23.4844 17.076 23.6706 17.1824 23.8745 17.1824C24.0884 17.1824 24.3214 17.0657 24.383 16.5888C24.1032 17.031 23.7146 17.0796 23.5561 17.0796ZM24.4093 16.4951C24.2515 16.321 24.3149 16.1034 24.3149 16.1034C24.3149 16.1034 23.984 16.3883 24.4093 16.4951ZM23.4867 16.3554C23.4121 16.3554 23.3646 16.3452 23.3646 16.3452C23.3646 16.3452 23.5443 16.479 23.7481 16.479C23.939 16.479 24.1504 16.3627 24.2563 15.9128C24.0074 16.2983 23.6664 16.3554 23.4867 16.3554ZM24.2512 15.8254C24.0935 15.6502 24.1565 15.4329 24.1565 15.4329C24.1565 15.4329 23.8256 15.7175 24.2512 15.8254ZM27.9291 15.3649C27.9291 15.3649 26.4784 16.8466 26.9156 17.0357C26.9524 17.0518 26.992 17.0588 27.0334 17.0588C27.1069 17.0588 27.1854 17.0368 27.2657 17.0003C27.0348 17.2618 26.6156 17.8009 26.9434 17.9421C26.9794 17.9579 27.0186 17.9655 27.06 17.9655C27.0881 17.9655 27.1177 17.9619 27.1476 17.9553C27.0301 18.0621 26.6862 18.4081 26.9434 18.6221C26.9859 18.658 27.0352 18.673 27.0899 18.673C27.4411 18.673 27.9845 18.0369 27.9845 18.0369C27.9845 18.0369 27.4454 18.5153 27.1393 18.5153C27.1007 18.5153 27.0658 18.5076 27.0359 18.4904C26.8702 18.3935 27.0935 18.0519 27.1648 17.9524C27.5336 17.8635 27.9845 17.3569 27.9845 17.3569C27.9845 17.3569 27.3935 17.809 27.1436 17.809C27.1047 17.809 27.0741 17.798 27.0546 17.7724C26.9466 17.6254 27.1955 17.1817 27.3255 16.9714C27.6442 16.8024 27.9568 16.4501 27.9568 16.4501C27.9568 16.4501 27.3658 16.9022 27.1159 16.9022C27.077 16.9022 27.0464 16.8913 27.0273 16.8656C26.8832 16.6707 27.9291 15.3649 27.9291 15.3649ZM23.5353 15.5624C23.3351 15.5624 23.1849 15.4936 23.1849 15.4936C23.1849 15.4936 23.4168 15.7434 23.6711 15.7434C23.8385 15.7434 24.0168 15.6344 24.1436 15.2709C23.9513 15.5024 23.7215 15.5624 23.5353 15.5624ZM24.1494 15.1348C23.9913 14.9614 24.0543 14.7438 24.0543 14.7438C24.0543 14.7438 23.7233 15.028 24.1494 15.1348ZM23.3333 14.7434C23.1744 14.7434 23.0664 14.7127 23.0664 14.7127C23.0664 14.7127 23.2955 14.9091 23.558 14.9091C23.7543 14.9091 23.97 14.8001 24.1234 14.4182C23.8623 14.6867 23.5508 14.7434 23.3333 14.7434ZM24.0841 14.3421C23.9267 14.168 23.989 13.95 23.989 13.95C23.989 13.95 23.6584 14.2353 24.0841 14.3421ZM42.486 13.5766C42.5047 13.5971 42.5587 13.6721 42.4889 13.8114C42.405 13.9764 41.9584 13.9764 41.8565 14.1183C41.7542 14.2595 41.8518 14.675 41.8518 14.675C41.8565 14.4343 41.8752 14.2913 41.9256 14.2079C42.0243 14.0473 42.4608 14.0609 42.5396 13.8868C42.612 13.7276 42.5126 13.6058 42.486 13.5766V13.5762V13.5766ZM24.0471 13.6713C23.8886 13.4979 23.9523 13.2799 23.9523 13.2799C23.9523 13.2799 23.621 13.5641 24.0471 13.6713ZM23.277 13.3092C23.0757 13.3092 22.9252 13.2627 22.9252 13.2627C22.9252 13.2627 23.1708 13.4914 23.4463 13.4914C23.6347 13.4914 23.837 13.3838 23.984 13.0206C23.7765 13.2536 23.496 13.3092 23.277 13.3092ZM40.911 12.796H40.8804C40.8804 12.796 41.09 12.8476 41.1502 12.9848C41.1866 13.0682 41.2658 13.0886 41.3396 13.0886C41.4102 13.0886 41.4758 13.07 41.4938 13.07C41.5309 13.07 41.6702 13.1267 41.6702 13.1267C41.6702 13.1267 41.5406 13.0133 41.5355 12.9661C41.5287 12.8948 41.4891 12.7916 41.4149 12.7536C41.3976 12.7448 41.3785 12.7411 41.3573 12.7411C41.2888 12.7411 41.2078 12.7792 41.1541 12.7865C41.0933 12.7949 40.969 12.796 40.911 12.796ZM23.9577 13.0052C23.8749 12.7843 24.0131 12.6054 24.0131 12.6054C24.0131 12.6054 23.6019 12.7455 23.9577 13.0052ZM23.2305 12.5575C23.0833 12.5575 22.9853 12.5327 22.9853 12.5327C22.9853 12.5327 23.2176 12.7108 23.4841 12.7108C23.6941 12.7108 23.9256 12.6007 24.0834 12.2082C23.7949 12.4997 23.4549 12.5575 23.2305 12.5575ZM22.7585 11.7016C22.9825 11.7016 24.2902 11.6511 24.7821 10.4843C24.0428 11.3892 22.7261 11.7016 22.7261 11.7016H22.7585ZM22.4555 10.729C22.7591 10.729 23.9915 10.6643 24.7222 9.65289C23.7542 10.3877 22.386 10.7272 22.386 10.7272C22.386 10.7272 22.4108 10.729 22.4555 10.729ZM22.1311 9.43086C22.1023 9.43086 22.0868 9.43013 22.0868 9.43013C22.0868 9.43013 22.4296 9.53255 22.9058 9.53255C23.424 9.53255 24.1004 9.41074 24.6625 8.90305C23.6239 9.40453 22.3792 9.43086 22.1311 9.43086ZM23.4272 8.42495C23.7956 8.42495 24.2206 8.35911 24.6823 8.17256C24.32 8.22779 23.9724 8.24864 23.6548 8.24864C22.6845 8.24864 21.9905 8.05588 21.9905 8.05588C21.9905 8.05588 22.5516 8.42495 23.4272 8.42495ZM24.3506 7.45677C24.5303 7.45677 24.7147 7.43994 24.9023 7.4019C23.5496 7.33716 22.0885 6.64072 22.0885 6.64072C22.0885 6.64072 23.0955 7.45677 24.3506 7.45677ZM25.1436 6.6429C24.0211 6.25298 22.5841 5.16113 22.5841 5.16113C22.5841 5.16113 23.8208 6.56462 25.1436 6.6429ZM25.5549 6.04813C24.517 5.46435 23.2903 4.13329 23.2903 4.13329C23.2903 4.13329 24.2663 5.73539 25.5549 6.04813ZM26.1146 5.40583C25.1646 4.68268 24.1295 3.1936 24.1295 3.1936C24.1295 3.1936 24.8797 4.91678 26.1146 5.40583ZM26.7502 4.8784C25.8826 4.05686 25.0103 2.4628 25.0103 2.4628C25.0103 2.4628 25.5743 4.25767 26.7502 4.8784ZM24.7762 0.0775452C25.0896 0.0779109 25.6694 1.84462 26.6807 3.20019C26.9169 3.51732 28.0251 5.04481 28.3535 5.93401C28.651 6.73982 28.6445 6.65825 28.8988 6.99148C29.0738 6.76982 28.9788 6.47024 29.0893 6.47024C29.1044 6.47024 29.1232 6.47573 29.1473 6.4878C29.3447 6.58912 29.8409 7.64659 29.8409 9.15725C29.8409 10.6683 31.5765 12.6321 32.1714 12.7327C32.2752 12.7503 32.3843 12.7565 32.4992 12.7565C32.7653 12.7565 33.0639 12.7236 33.4096 12.7236C33.7723 12.7236 34.1872 12.7602 34.6697 12.909C34.9651 13.0005 35.2575 13.0363 35.5362 13.0363C36.3329 13.0363 37.0154 12.7452 37.3287 12.6321C37.7918 12.4661 38.5582 11.9236 39.7362 11.9236C40.0733 11.9236 40.4432 11.9679 40.8494 12.078C41.9817 12.3852 41.9702 12.9818 42.9199 13.8663C43.4464 14.3575 44.8211 14.9936 44.7851 15.2138C44.7747 15.276 44.6644 15.3012 44.4912 15.3012C43.8275 15.3012 42.245 14.9281 41.8906 14.8484C41.8128 14.8308 41.7296 14.8235 41.6421 14.8235C41.2499 14.8235 40.7659 14.968 40.2055 14.968C40.1767 14.968 40.1475 14.968 40.1184 14.9669C39.4132 14.9493 38.86 14.8297 38.4228 14.8297C38.0983 14.8297 37.8372 14.8956 37.6265 15.1187C36.1759 16.6491 34.6878 16.5917 34.3535 17.0142C34.1828 17.2292 32.1628 21.5074 30.374 22.5506C30.1694 22.4379 30.0023 22.371 29.6115 22.0787C29.828 22.431 31.234 23.179 31.4774 23.6618C31.7313 24.1647 32.5683 27.4388 32.2708 27.892C32.1401 27.5833 31.8243 27.3942 31.8243 27.3942C31.8243 27.3942 31.5639 27.6404 31.4281 27.6905C31.4623 27.2142 31.1591 26.6663 30.9084 26.6663C30.8447 26.6663 30.7842 26.7018 30.7334 26.7841C30.4672 26.6575 30.585 26.0288 30.585 26.0288C30.6837 25.7394 30.7582 24.8444 30.7582 24.8444C30.7582 24.8444 30.5349 24.8078 30.5598 24.6564C30.585 24.5049 30.6217 24.0265 30.5472 23.9508C30.473 23.8761 28.9111 22.4021 28.9111 22.4021L29.5186 23.2086L28.713 23.7247C28.2189 23.9661 27.9797 24.3421 27.9408 24.4925C28.1061 23.7734 28.1778 23.3359 28.171 22.8531C28.167 22.6325 28.1519 22.097 28.3564 21.4368C28.0215 22.0882 28.0435 22.6797 28.0226 22.8721C27.9844 23.6933 27.8702 24.1172 27.7579 24.5181C27.6804 24.7961 27.4982 25.3619 27.1755 25.5126C27.1237 25.5371 27.0768 25.547 27.034 25.547C26.8572 25.547 26.7668 25.3736 26.7668 25.3736C26.7668 25.3736 26.3627 26.2947 26.0522 26.2947C26.0069 26.2947 25.9636 26.2746 25.9237 26.2299C25.8246 26.4779 25.5019 26.828 25.3532 26.828C25.3028 26.828 25.2718 26.7863 25.279 26.6835C25.1724 26.9699 24.8839 27.2256 24.7391 27.2256C24.6822 27.2256 24.648 27.1857 24.656 27.0924C24.5407 27.2691 24.3138 27.5109 24.1845 27.5109C24.1269 27.5109 24.0891 27.4626 24.0891 27.3382C24.0365 27.5826 23.7844 27.7486 23.644 27.7486C23.5834 27.7486 23.5438 27.7179 23.5496 27.6499C23.4387 27.734 23.3331 27.8024 23.2665 27.8024C23.2215 27.8024 23.1941 27.7702 23.1963 27.6905C23.206 27.3196 23.743 26.9081 24.039 25.6257C24.5908 23.2397 25.1983 22.5319 25.3283 21.6475C25.7065 19.0848 26.1689 18.4707 26.1286 18.2227C26.0832 17.9473 25.6748 17.9191 25.4591 17.9191C25.4094 17.9191 25.3694 17.9209 25.3471 17.9209C25.2894 17.9209 27.298 16.2643 27.8969 14.6622C26.8986 16.2036 26.5795 16.4871 25.5768 17.4674C25.243 17.7936 24.1705 18.5881 23.8355 18.5881C23.7884 18.5881 23.7552 18.5724 23.7416 18.5373C23.6177 18.2227 23.7916 17.8196 23.7916 17.8196C23.7916 17.8196 22.9237 17.7571 23.3944 17.1645C23.0854 17.1568 22.8491 16.5474 23.2705 16.3719C22.9237 16.1451 22.8243 15.5909 23.1596 15.5404C22.7259 15.3722 22.7378 14.7602 22.9982 14.6973C22.6467 14.5814 22.5887 13.9793 22.9237 13.9296C22.9237 13.9296 23.1837 14.1721 23.4696 14.1721C23.6594 14.1721 23.86 14.0653 24.0037 13.7097C23.7826 13.9266 23.5078 13.98 23.291 13.98C23.08 13.98 22.9237 13.9296 22.9237 13.9296C22.4861 13.8107 22.5462 13.3439 22.8365 13.2744C22.5059 13.1819 22.5459 12.6632 22.9363 12.5312C22.539 12.4942 22.041 11.7996 22.5369 11.7996C22.1335 11.6398 21.5519 10.9353 22.3129 10.7301C21.6408 10.4119 21.0588 9.41037 21.9768 9.38732C21.4842 9.11445 21.1892 8.5453 21.1694 8.30169C21.151 8.07711 21.3448 7.98749 21.6743 7.98749C21.7467 7.98749 21.8252 7.99188 21.9095 7.99993C21.4842 7.59099 21.0563 7.02367 21.1694 6.60119C21.1982 6.49329 21.294 6.45964 21.419 6.45964C21.5836 6.45964 21.7982 6.51853 21.9768 6.5445C21.6185 5.90731 21.4456 5.13369 21.5782 4.8824C21.625 4.79425 21.674 4.7584 21.7348 4.7584C21.8764 4.7584 22.0842 4.9519 22.4922 5.11138C22.1335 4.61026 21.7824 3.58865 22.006 3.31504C22.0222 3.29566 22.0449 3.28688 22.0737 3.28688C22.3431 3.28688 23.1113 4.07074 23.2456 4.07074C22.6265 3.31431 22.3997 2.40609 22.6017 1.97374C22.6219 1.92948 22.6536 1.91009 22.6939 1.91009C22.9773 1.91009 23.6944 2.88745 24.1258 3.12667C23.6036 2.59629 23.2536 1.2206 23.5449 0.811296C23.5561 0.795201 23.5716 0.787886 23.5903 0.787886C23.8078 0.787886 24.4935 1.78646 24.9333 2.26746C24.5976 1.47079 24.4186 0.561469 24.6837 0.142288C24.7114 0.0983945 24.7424 0.0775452 24.7762 0.0775452Z" fill="#2FB5B5"/>
    <path fill-rule="evenodd" clip-rule="evenodd" d="M57.0308 30.6849C55.9554 30.6849 55.2153 30.0053 55.2153 28.9536C55.2153 27.967 55.8207 27.1781 56.9191 27.1781C58.0619 27.1781 58.6662 27.9236 58.6662 28.975C58.6662 29.9174 58.0386 30.6849 57.0308 30.6849Z" fill="#FEFEFE"/>
    <path fill-rule="evenodd" clip-rule="evenodd" d="M54.3525 43.3666C54.7383 43.3666 55.3967 43.1941 55.3967 42.2801V34.4018C55.3967 33.414 54.8973 33.2663 54.3525 33.2663V32.7969C55.8511 32.5988 57.5761 32.0804 58.4842 31.5616V42.1562C58.4842 43.2683 59.0518 43.3666 59.529 43.3666V43.8356C58.666 43.7614 57.8036 43.6883 56.9635 43.6883C56.1004 43.6883 55.2606 43.7614 54.3525 43.8356V43.3666Z" fill="#FEFEFE"/>
    <path fill-rule="evenodd" clip-rule="evenodd" d="M57.0308 30.6849C55.9554 30.6849 55.2153 30.0053 55.2153 28.9536C55.2153 28.3989 55.4067 27.9062 55.7701 27.5819C56.0525 27.3295 56.4384 27.1781 56.9191 27.1781C57.8677 27.1781 58.4461 27.6926 58.615 28.4692C58.6488 28.6273 58.6662 28.7968 58.6662 28.975C58.6662 29.9174 58.0386 30.6849 57.0308 30.6849Z" fill="#FEFEFE"/>
    <path fill-rule="evenodd" clip-rule="evenodd" d="M62.9128 18.4109C62.337 18.4377 61.9357 18.4514 61.3595 18.4514H60.8917L60.8241 18.531C60.8779 20.3433 60.9582 21.9159 60.9582 23.7019C60.9582 24.1148 60.9582 25.0875 60.7845 25.5005C60.4231 26.3806 59.5524 26.3806 59.4195 26.3806C58.2803 26.3806 57.9062 25.6606 57.7859 24.9946C57.6919 24.4616 57.6784 21.9825 57.6784 21.4628C57.6784 20.3701 57.718 19.3844 57.718 18.4912L57.6515 18.4109C56.9825 18.4377 56.5142 18.4514 55.844 18.4514H55.2952L55.2153 18.531C55.2287 18.9975 55.2817 22.9161 55.2817 23.8617C55.2817 24.5281 55.2817 25.2614 55.4961 25.9141C55.6468 26.3643 55.8796 26.7237 56.1619 27.0094C56.5004 26.7342 56.9352 26.5881 57.4289 26.5881C58.4521 26.5881 59.1619 27.1219 59.3904 28.0548C60.3595 28.0298 60.9847 27.8053 61.4264 27.5666C62.8459 26.7668 62.9397 25.4607 62.9397 24.075V22.4355C62.9397 20.9696 62.9397 19.9434 62.98 18.4912L62.9128 18.4109Z" fill="#FEFEFE"/>
    <path fill-rule="evenodd" clip-rule="evenodd" d="M67.9827 38.3957C67.9827 39.8552 66.4784 40.9206 65.3327 40.9206C64.3779 40.9206 63.638 40.434 63.638 39.5074C63.638 38.4187 64.4734 37.8624 67.9827 37.3069V38.3957ZM71.2294 41.1754V35.5923C71.2294 32.2567 68.8421 31.5616 66.0727 31.5616C64.4494 31.5616 63.0649 31.8857 61.7758 32.326L61.68 35.4768H62.1337C62.9931 33.7855 63.9006 33.3222 65.8098 33.3222C66.9562 33.3222 67.9827 33.7629 67.9827 34.9439C67.9827 35.6623 67.8156 35.7315 65.619 35.9867C63.5186 36.2415 60.3917 36.5892 60.3917 39.7163C60.3917 41.7313 61.8479 42.9589 63.9006 42.9589C65.9537 42.9589 67.0275 42.6811 68.2216 40.9899L68.2686 40.9672V42.7274C68.9852 42.6578 69.7011 42.5886 70.3457 42.5886C71.0379 42.5886 71.7542 42.6578 72.4701 42.7274V42.2875C71.7065 42.2875 71.2294 41.9634 71.2294 41.1754Z" fill="#FEFEFE"/>
    <path fill-rule="evenodd" clip-rule="evenodd" d="M67.9343 37.7954C64.6862 38.3527 63.6945 38.8941 63.6945 40.1023C63.6945 40.996 64.34 41.5737 65.34 41.5737C66.5149 41.5737 67.9343 40.387 67.9343 38.913V37.7954ZM65.34 41.6542C64.2932 41.6542 63.6173 41.0448 63.6173 40.1023C63.6173 38.8358 64.6337 38.2767 67.9664 37.7085L68.0113 37.7009V38.9129C68.0113 40.4316 66.5499 41.6542 65.34 41.6542ZM65.814 33.4455C67.1893 33.4455 68.0113 34.1086 68.0113 35.2201C68.0113 36.0136 67.8326 36.1002 65.6287 36.3754L65.5676 36.3838C63.537 36.6484 60.4688 37.0484 60.4688 40.3258C60.4688 42.4088 61.822 43.7547 63.9166 43.7547C65.9562 43.7547 66.999 43.4644 68.1781 41.6656L68.1836 41.6569L68.2954 41.599V43.5026C68.9796 43.4311 69.6848 43.3585 70.3209 43.3585C71.0036 43.3585 71.7095 43.4311 72.393 43.5026V43.1162C71.5753 43.1041 71.1603 42.6905 71.1603 41.8871V35.9138C71.1603 32.1276 68.4426 31.6422 66.0752 31.6422C64.6912 31.6422 63.346 31.8985 61.843 32.4486L61.75 35.7501H62.1375C62.9657 34.0062 63.8623 33.4455 65.814 33.4455ZM63.9166 43.8356C61.8086 43.8356 60.3917 42.4247 60.3917 40.3257C60.3917 36.9773 63.5008 36.572 65.5578 36.304L65.6193 36.2957C67.7827 36.0254 67.9343 35.955 67.9343 35.2201C67.9343 34.7105 67.7277 33.5256 65.814 33.5256C63.8666 33.5256 63.021 34.0591 62.1957 35.8084L62.1852 35.8307H61.6704L61.6714 35.7891L61.7677 32.3911L61.7923 32.3816C63.3134 31.8221 64.6746 31.5616 66.0752 31.5616C68.4784 31.5616 71.2374 32.0565 71.2374 35.9138V41.8871C71.2374 42.6497 71.639 43.036 72.4317 43.036H72.4701V43.5918L72.4278 43.5872C71.7331 43.5143 71.0141 43.4387 70.3209 43.4387C69.6754 43.4387 68.9561 43.5143 68.261 43.5872L68.2183 43.5918V41.7461C67.029 43.5438 65.9714 43.8356 63.9166 43.8356Z" fill="#28B4B4"/>
</svg>
