<?xml version="1.0" standalone="no"?>
<!DOCTYPE svg PUBLIC "-//W3C//DTD SVG 20010904//EN"
 "http://www.w3.org/TR/2001/REC-SVG-20010904/DTD/svg10.dtd">
<svg version="1.0" xmlns="http://www.w3.org/2000/svg"
 width="700.000000pt" height="700.000000pt" viewBox="0 0 700.000000 700.000000"
 preserveAspectRatio="xMidYMid meet">
<metadata>
Created by potrace 1.11, written by Peter Selinger 2001-2013
</metadata>
<g transform="translate(0.000000,700.000000) scale(0.100000,-0.100000)"
fill="#000000" stroke="none">
<path d="M2563 6318 c1 -39 6 -68 12 -69 5 0 19 -2 30 -4 11 -2 49 -9 84 -15
124 -22 228 -97 273 -196 45 -102 44 -75 42 -2294 -1 -1158 -5 -2123 -8 -2145
-3 -22 -8 -65 -11 -95 -7 -57 -13 -103 -21 -155 -27 -175 -148 -342 -299 -413
-90 -42 -100 -48 -99 -56 1 -4 25 -65 55 -136 46 -112 56 -129 74 -126 11 2
38 7 60 11 22 4 49 9 60 12 11 2 45 8 75 14 192 37 384 113 545 216 314 202
533 551 620 988 40 204 43 276 44 1295 1 542 3 1417 4 1945 l2 960 22 42 c47
87 104 122 234 144 l76 12 -2 61 c-1 34 -3 64 -4 67 0 4 -20 5 -43 4 -24 -2
-92 -7 -153 -10 -60 -4 -130 -9 -155 -11 -336 -23 -707 -23 -1160 1 -101 5
-295 17 -326 19 l-32 3 1 -69z"/>
</g>
</svg>
