<svg width="25" height="24" viewBox="0 0 25 24" fill="none" xmlns="http://www.w3.org/2000/svg">
    <path fill-rule="evenodd" clip-rule="evenodd" d="M23.0471 11.545H21.2333L20.8065 10.9625V11.4921H18.1924L17.979 10.9095H17.5522L17.3388 11.4921H15.7917H15.4183C15.3116 11.4921 15.2049 11.4921 15.0982 11.4391C15.0715 11.4126 15.0315 11.3994 14.9915 11.3861C14.9515 11.3729 14.9115 11.3597 14.8848 11.3332C14.8581 11.3067 14.8181 11.2935 14.7781 11.2802C14.7381 11.267 14.6981 11.2537 14.6714 11.2273V11.4391V11.545H12.0573L11.6839 11.0154V11.545H2.29458L2.08118 10.9625H1.6544L1.441 11.545H0.213989V9.1619L0.960867 7.36133H2.66802L2.98811 8.10274V7.36133H5.12205L5.38879 8.04978L5.65553 7.36133H14.6714V7.5202V7.62612C14.7248 7.59964 14.7648 7.5864 14.8048 7.57316C14.8448 7.55992 14.8848 7.54668 14.9382 7.5202C14.9667 7.50601 14.9915 7.49182 15.0145 7.47865C15.0773 7.44267 15.1268 7.41429 15.2049 7.41429C15.2582 7.41429 15.3116 7.40105 15.3649 7.38781C15.4183 7.37457 15.4716 7.36133 15.525 7.36133H15.8984H18.6725L18.9926 8.10274V7.36133H20.6998L21.0732 7.94387V7.36133H23.0471V11.545ZM9.49654 12.922H24.1673V16.8409C23.9818 16.9513 23.7705 17.0106 23.5514 17.0721C23.4554 17.099 23.3579 17.1263 23.2604 17.1586H15.3115L14.9381 16.629V17.1586H13.0175V16.0465C12.7508 16.1524 12.4307 16.2054 12.0573 16.2054H12.164V17.1056H9.49654L9.1231 16.5761L8.74967 17.1056H4.48181V12.922H8.74967L9.1231 13.4515L9.49654 12.922Z" fill="white"/>
    <path fill-rule="evenodd" clip-rule="evenodd" d="M3.46826 10.8556H2.77473L2.56133 10.2732H1.17427L0.907523 10.8556H0.213989L1.44101 8.04956H2.24124L3.46826 10.8556ZM5.70892 10.8556H5.12207L4.37518 8.579V10.8556H3.73499V8.04956H4.80198L5.44217 9.95555L6.08236 8.04956H7.14935V10.8556H6.50916V8.579L5.70892 10.8556ZM21.4999 10.8556L20.3796 9.16139L20.2729 8.94961V10.8556H19.6327V8.04956H20.4863L21.4999 9.63789L21.66 9.90261V8.04956H22.3002V10.8556H21.4999ZM10.777 13.5572V16.3633H11.4171V15.4103H12.2707C12.8575 15.4103 13.2843 15.0397 13.2843 14.4573C13.2843 13.9279 12.9109 13.5043 12.324 13.5043L10.777 13.5572ZM14.3513 15.3574H14.6714L15.525 16.3633H16.3252L15.3649 15.3044C15.8451 15.1985 16.1118 14.8809 16.1118 14.4573C16.1118 13.9279 15.7384 13.5573 15.1516 13.5573H13.6578V16.3633H14.298L14.3513 15.3574ZM18.7793 14.0867V13.5573H16.5387V16.3633H18.7793V15.7809H17.1789V15.1985H18.726V14.6162H17.1789V14.0867H18.7793ZM19.2061 15.8338H20.6465C20.8065 15.8338 20.9666 15.7279 20.9132 15.5162C20.9132 15.3573 20.8065 15.2514 20.6465 15.2514H20.0063C19.4728 15.2514 19.1527 14.9867 19.1527 14.4573C19.1527 13.9808 19.5262 13.6102 20.113 13.6102H21.5534L21.2867 14.1926H20.0596C19.8996 14.1926 19.7929 14.2985 19.7929 14.4573C19.7929 14.6161 19.8996 14.722 20.0596 14.722H20.6998C21.2333 14.722 21.5534 14.9867 21.5534 15.5162C21.5534 16.0456 21.18 16.4162 20.5931 16.4162H19.2061V15.8338ZM21.8201 15.8338H23.2605C23.4739 15.8338 23.5806 15.7279 23.5272 15.5162C23.5272 15.3573 23.4205 15.2514 23.2605 15.2514H22.6203C22.0868 15.2514 21.7667 14.9867 21.7667 14.4573C21.7667 13.9808 22.1402 13.6102 22.727 13.6102H24.1674L23.9007 14.1926H22.6737C22.5136 14.1926 22.4069 14.2985 22.4069 14.4573C22.4069 14.6161 22.5136 14.722 22.6737 14.722H23.3138C23.8473 14.722 24.1674 14.9867 24.1674 15.5162C24.1674 16.0456 23.794 16.4162 23.2071 16.4162H21.8201V15.8338ZM15.5265 14.4578C15.5265 14.2988 15.4196 14.1398 15.1525 14.1398L14.3512 14.0869V14.7757H15.1525C15.4196 14.7757 15.5265 14.6167 15.5265 14.4578ZM12.2718 14.8807C12.5389 14.8807 12.6458 14.7219 12.6458 14.5102C12.6458 14.2986 12.4855 14.1398 12.2184 14.1398H11.4171V14.8807H12.2718ZM10.617 16.3633H9.81678L9.12326 15.4103L8.42974 16.3104H7.62952L8.74982 14.9338L7.62952 13.5573H8.42974L9.12326 14.4573L9.81678 13.5573H10.617L9.4967 14.9338L10.617 16.3633ZM7.41602 14.0867V13.5573H5.17542V16.3633H7.41602V15.7809H5.81559V15.1985H7.36267V14.6162H5.81559V14.0867H7.41602ZM17.6058 9.1079L17.8195 8.52585L18.0332 9.1079L18.3003 9.74287H17.3387L17.6058 9.1079ZM19.4194 10.8556H18.7259L18.4591 10.2732H17.0721L16.8053 10.8556H16.1118L17.3388 8.04956H18.1924L19.4194 10.8556ZM15.7384 10.8556L16.0051 10.2732H15.8451C15.3649 10.2732 15.0982 9.95555 15.0982 9.47906V9.42611C15.0982 8.94961 15.3649 8.63195 15.8451 8.63195H16.5386V8.04956H15.7917C14.9381 8.04956 14.458 8.63195 14.458 9.42611V9.47906C14.458 10.3262 14.9381 10.8556 15.7384 10.8556ZM13.9778 10.8553H13.3376V9.53172V8.10223H13.9778V9.58467V10.8553ZM11.9518 8.63169C12.2189 8.63169 12.3257 8.79066 12.3257 8.94962C12.3257 9.10859 12.2189 9.26756 11.9518 9.26756H11.1505V8.5787L11.9518 8.63169ZM11.4705 9.84967H11.1504L11.0971 10.8556H10.4569V8.04956H11.9507C12.5375 8.04956 12.9109 8.42017 12.9109 8.94961C12.9109 9.37317 12.6442 9.69083 12.1641 9.79672L13.1243 10.8556H12.3241L11.4705 9.84967ZM9.97681 8.579V8.04956H7.73608V10.8556H9.97681V10.2732H8.37629V9.69083H9.92346V9.10845H8.37629V8.579H9.97681ZM1.65638 9.1079L1.87006 8.52585L2.08373 9.1079L2.35083 9.74287H1.38928L1.65638 9.1079Z" fill="black"/>
</svg>
