<svg width="45" height="13" viewBox="0 0 45 13" fill="none" xmlns="http://www.w3.org/2000/svg">
    <path d="M6.55957 9.26587H4.77246V5.4397C4.77246 4.49438 4.4209 4.02173 3.71777 4.02173C3.21777 4.02173 2.85645 4.19165 2.63379 4.53149C2.41113 4.87134 2.2998 5.42212 2.2998 6.18384V9.26587H0.512695V0.148682H2.2998V2.0061C2.2998 2.15063 2.28613 2.49048 2.25879 3.02563L2.21777 3.55298H2.31152C2.70996 2.91235 3.34277 2.59204 4.20996 2.59204C4.97949 2.59204 5.56348 2.79907 5.96191 3.21313C6.36035 3.6272 6.55957 4.22095 6.55957 4.99438V9.26587ZM11.1592 7.95923C11.4717 7.95923 11.8467 7.89087 12.2842 7.75415V9.08423C11.8389 9.28345 11.292 9.38306 10.6436 9.38306C9.92871 9.38306 9.40723 9.20337 9.0791 8.84399C8.75488 8.48071 8.59277 7.93774 8.59277 7.21509V4.05688H7.7373V3.30103L8.72168 2.70337L9.2373 1.32056H10.3799V2.71509H12.2139V4.05688H10.3799V7.21509C10.3799 7.46899 10.4502 7.65649 10.5908 7.77759C10.7354 7.89868 10.9248 7.95923 11.1592 7.95923ZM16.374 7.95923C16.6865 7.95923 17.0615 7.89087 17.499 7.75415V9.08423C17.0537 9.28345 16.5068 9.38306 15.8584 9.38306C15.1436 9.38306 14.6221 9.20337 14.2939 8.84399C13.9697 8.48071 13.8076 7.93774 13.8076 7.21509V4.05688H12.9521V3.30103L13.9365 2.70337L14.4521 1.32056H15.5947V2.71509H17.4287V4.05688H15.5947V7.21509C15.5947 7.46899 15.665 7.65649 15.8057 7.77759C15.9502 7.89868 16.1396 7.95923 16.374 7.95923ZM22.4268 9.38306C21.6572 9.38306 21.0537 9.10376 20.6162 8.54517H20.5225C20.585 9.09204 20.6162 9.40845 20.6162 9.49438V12.1487H18.8291V2.71509H20.2822L20.5342 3.5647H20.6162C21.0342 2.91626 21.6533 2.59204 22.4736 2.59204C23.2471 2.59204 23.8525 2.89087 24.29 3.48853C24.7275 4.08618 24.9463 4.91626 24.9463 5.97876C24.9463 6.67798 24.8428 7.2854 24.6357 7.80103C24.4326 8.31665 24.1416 8.70923 23.7627 8.97876C23.3838 9.24829 22.9385 9.38306 22.4268 9.38306ZM21.8994 4.02173C21.458 4.02173 21.1357 4.15845 20.9326 4.43188C20.7295 4.70142 20.624 5.14868 20.6162 5.77368V5.96704C20.6162 6.67017 20.7197 7.17407 20.9268 7.47876C21.1377 7.78345 21.4697 7.93579 21.9229 7.93579C22.7236 7.93579 23.124 7.27563 23.124 5.95532C23.124 5.31079 23.0244 4.82837 22.8252 4.50806C22.6299 4.18384 22.3213 4.02173 21.8994 4.02173ZM30.9932 7.32056C30.9932 7.99243 30.7588 8.50415 30.29 8.85571C29.8252 9.20728 29.1279 9.38306 28.1982 9.38306C27.7217 9.38306 27.3154 9.34985 26.9795 9.28345C26.6436 9.22095 26.3291 9.1272 26.0361 9.0022V7.52563C26.3682 7.68188 26.7412 7.81274 27.1553 7.91821C27.5732 8.02368 27.9404 8.07642 28.2568 8.07642C28.9053 8.07642 29.2295 7.88892 29.2295 7.51392C29.2295 7.37329 29.1865 7.26001 29.1006 7.17407C29.0146 7.08423 28.8662 6.98462 28.6553 6.87524C28.4443 6.76196 28.1631 6.6311 27.8115 6.48267C27.3076 6.27173 26.9365 6.07642 26.6982 5.89673C26.4639 5.71704 26.292 5.51196 26.1826 5.28149C26.0771 5.04712 26.0244 4.76001 26.0244 4.42017C26.0244 3.83813 26.249 3.38892 26.6982 3.07251C27.1514 2.7522 27.792 2.59204 28.6201 2.59204C29.4092 2.59204 30.1768 2.76392 30.9229 3.10767L30.3838 4.39673C30.0557 4.2561 29.749 4.14087 29.4639 4.05103C29.1787 3.96118 28.8877 3.91626 28.5908 3.91626C28.0635 3.91626 27.7998 4.05884 27.7998 4.34399C27.7998 4.50415 27.8838 4.64282 28.0518 4.76001C28.2236 4.8772 28.5967 5.05103 29.1709 5.28149C29.6826 5.48853 30.0576 5.68188 30.2959 5.86157C30.5342 6.04126 30.71 6.24829 30.8232 6.48267C30.9365 6.71704 30.9932 6.99634 30.9932 7.32056ZM32.1357 8.42798C32.1357 8.09985 32.2236 7.85181 32.3994 7.68384C32.5752 7.51587 32.8311 7.43188 33.167 7.43188C33.4912 7.43188 33.7412 7.51782 33.917 7.6897C34.0967 7.86157 34.1865 8.10767 34.1865 8.42798C34.1865 8.73657 34.0967 8.98071 33.917 9.1604C33.7373 9.33618 33.4873 9.42407 33.167 9.42407C32.8389 9.42407 32.585 9.33813 32.4053 9.16626C32.2256 8.99048 32.1357 8.74438 32.1357 8.42798ZM32.1357 3.58813C32.1357 3.26001 32.2236 3.01196 32.3994 2.84399C32.5752 2.67603 32.8311 2.59204 33.167 2.59204C33.4912 2.59204 33.7412 2.67798 33.917 2.84985C34.0967 3.02173 34.1865 3.26782 34.1865 3.58813C34.1865 3.90454 34.0947 4.15063 33.9111 4.32642C33.7314 4.49829 33.4834 4.58423 33.167 4.58423C32.8389 4.58423 32.585 4.49829 32.4053 4.32642C32.2256 4.15454 32.1357 3.90845 32.1357 3.58813ZM39.7705 0.699463L36.5771 9.26587H34.9541L38.1475 0.699463H39.7705ZM44.7275 0.699463L41.5342 9.26587H39.9111L43.1045 0.699463H44.7275Z" fill="#DADADA"/>
</svg>
