<svg width="16" height="16" viewBox="0 0 16 16" fill="none" xmlns="http://www.w3.org/2000/svg">
    <path d="M15.553 7.56671H13.6036C13.3797 4.83516 11.1831 2.6446 8.44873 2.42786V0.433287C8.44873 0.195065 8.2471 0 8.00085 0C7.7546 0 7.55297 0.195059 7.55297 0.433287V2.42786C4.8186 2.6445 2.62214 4.83495 2.3981 7.56671H0.447881C0.201635 7.56671 0 7.76177 0 8C0 8.23823 0.201629 8.43329 0.447881 8.43329H2.39638C2.62031 11.1648 4.81688 13.3554 7.55126 13.5721V15.5667C7.55126 15.8049 7.75289 16 7.99914 16C8.24539 16 8.44702 15.8049 8.44702 15.5667V13.5721C11.1814 13.3555 13.3779 11.1651 13.6019 8.43329H15.5521C15.7984 8.43329 16 8.23823 16 8C16.0017 7.76178 15.8001 7.56671 15.553 7.56671ZM10.3535 8.43327H12.707C12.4831 10.6884 10.6899 12.488 8.44873 12.7047L8.44787 10.3416C8.44787 10.1034 8.24624 9.90835 7.99999 9.90835C7.75374 9.90835 7.55211 10.1034 7.55211 10.3416V12.7047C5.31106 12.4881 3.51787 10.6886 3.29383 8.43327H5.64734C5.89359 8.43327 6.09522 8.23821 6.09522 7.99998C6.09522 7.76175 5.89359 7.56669 5.64734 7.56669H3.29295C3.51688 5.31154 5.3101 3.51196 7.55123 3.29522V5.65832C7.55123 5.89654 7.75286 6.09161 7.99911 6.09161C8.24537 6.09161 8.44699 5.89655 8.44699 5.65832L8.44785 3.29437C10.6889 3.51101 12.4821 5.31054 12.7061 7.56584L10.3535 7.56667C10.1073 7.56667 9.90562 7.76173 9.90562 7.99996C9.90476 8.23818 10.1073 8.43325 10.3535 8.43325V8.43327Z" fill="black"/>
</svg>
