<svg width="36" height="23" viewBox="0 0 36 23" fill="none" xmlns="http://www.w3.org/2000/svg">
    <path fill-rule="evenodd" clip-rule="evenodd" d="M28.8322 19.4022V17.6355H28.4371V18.6567C28.2819 18.4667 28.0454 18.3607 27.7991 18.3708C27.228 18.3708 26.765 18.8303 26.765 19.3971C26.765 19.9639 27.228 20.4234 27.7991 20.4234C28.0454 20.4335 28.2819 20.3274 28.4371 20.1375V20.3744H28.8322V19.4022ZM16.0499 18.4238H16.7661L16.764 18.7751H16.0478V19.7126C16.0478 19.9087 16.1425 20.0394 16.3483 20.0394C16.4819 20.035 16.6122 19.997 16.727 19.9291L16.8505 20.2763C16.69 20.3756 16.5045 20.4279 16.3154 20.4274C15.8091 20.4274 15.6486 20.1578 15.6486 19.7044V18.7792H15.237V18.4238H15.6486V17.8315H16.0499V18.4238ZM10.355 19.1485V20.374L9.94547 20.376V19.2506C9.94547 18.9198 9.78906 18.736 9.49682 18.736C9.3582 18.7287 9.22331 18.7819 9.12756 18.8817C9.03181 18.9814 8.98476 19.1177 8.99878 19.2547V20.376H8.59952V19.2506C8.59952 18.9198 8.43899 18.736 8.15499 18.736C8.01617 18.728 7.88084 18.781 7.78492 18.8809C7.689 18.9808 7.6422 19.1175 7.65695 19.2547V20.3781H7.25769V18.4235H7.66312V18.6624C7.79693 18.4711 8.02154 18.3627 8.25583 18.3765C8.52024 18.3657 8.76956 18.4988 8.90617 18.7237C9.05595 18.4919 9.32071 18.3589 9.59766 18.3765C9.80566 18.3645 10.0087 18.4427 10.154 18.5909C10.2993 18.739 10.3727 18.9425 10.355 19.1485ZM20.4224 18.3745C20.2056 18.37 20.0022 18.4785 19.8866 18.6604V18.4235H19.495V20.3781H19.8907V19.2752C19.8907 18.9525 20.0473 18.7441 20.3276 18.7441C20.4193 18.7429 20.5103 18.7595 20.5955 18.7931L20.7274 18.4235C20.6295 18.3888 20.5264 18.3708 20.4224 18.3704V18.3745ZM14.0927 18.3744C14.3744 18.3649 14.653 18.4358 14.8953 18.5787L14.7163 18.9034C14.5283 18.7962 14.3157 18.7385 14.0989 18.7359C13.8643 18.7359 13.7079 18.8544 13.7079 18.977C13.7079 19.0995 13.8725 19.1567 14.0577 19.1812L14.2635 19.2098C14.6895 19.2711 14.9303 19.412 14.9303 19.7837C14.9303 20.1554 14.6155 20.4169 14.0474 20.4169C13.7439 20.4218 13.4462 20.3333 13.1954 20.1636L13.4012 19.8572C13.5894 19.9976 13.8204 20.0697 14.0557 20.0615C14.3479 20.0615 14.5208 19.9634 14.5208 19.8123C14.5208 19.702 14.3932 19.6203 14.1586 19.5876L13.9528 19.559C13.5124 19.4978 13.2901 19.3058 13.2901 18.9872C13.2901 18.6073 13.5947 18.3744 14.0927 18.3744ZM20.8636 19.3957C20.8499 19.6705 20.9539 19.9382 21.1499 20.1327C21.346 20.3273 21.6157 20.4305 21.8926 20.4169C22.1496 20.4299 22.4022 20.3468 22.6006 20.184L22.3948 19.8777C22.2467 19.9895 22.0663 20.0511 21.8803 20.0533C21.5362 20.0205 21.2736 19.7336 21.2736 19.3906C21.2736 19.0475 21.5362 18.7607 21.8803 18.7278C22.0663 18.73 22.2467 18.7916 22.3948 18.9034L22.6006 18.5971C22.4022 18.4343 22.1496 18.3513 21.8926 18.3642C21.6157 18.3506 21.346 18.4539 21.1499 18.6484C20.9539 18.8429 20.8499 19.1107 20.8636 19.3855V19.3957ZM17.1201 19.3957C17.1201 18.7829 17.5173 18.3745 18.0935 18.3745L18.0997 18.3724C18.6533 18.3724 19.0279 18.7809 19.0279 19.3936V19.557H17.5564C17.5945 19.8513 17.8523 20.0683 18.1511 20.0574C18.3594 20.0542 18.5607 19.9824 18.7233 19.8532L18.9291 20.1432C18.7031 20.3295 18.416 20.4269 18.1223 20.4169C17.8489 20.4266 17.584 20.3212 17.3931 20.1267C17.2022 19.9322 17.103 19.6667 17.1201 19.3957ZM18.4591 18.8764C18.362 18.7841 18.2317 18.7342 18.0974 18.7377C17.8119 18.7301 17.5719 18.949 17.5564 19.2318H18.6136C18.6126 19.0975 18.5568 18.9694 18.4591 18.8764ZM12.7612 18.4235V19.3977V20.3781H12.366V20.1411C12.2108 20.3311 11.9743 20.4371 11.728 20.4271C11.1569 20.4271 10.6939 19.9676 10.6939 19.4008C10.6939 18.8339 11.1569 18.3744 11.728 18.3744C11.9743 18.3644 12.2108 18.4704 12.366 18.6604V18.4235H12.7612ZM11.1662 19.3971C11.1524 19.2264 11.2114 19.0578 11.3288 18.9321C11.4463 18.8064 11.6116 18.7352 11.7845 18.7358C12.129 18.7686 12.3919 19.0553 12.3919 19.3982C12.3919 19.741 12.129 20.0277 11.7845 20.0606C11.6116 20.0611 11.4463 19.9899 11.3288 19.8642C11.2114 19.7386 11.1524 19.5699 11.1662 19.3992V19.3971ZM25.8384 18.6624C25.954 18.4806 26.1574 18.3721 26.3742 18.3765V18.3724C26.4782 18.3728 26.5813 18.3908 26.6792 18.4255L26.5473 18.7931C26.4621 18.7595 26.3711 18.7429 26.2794 18.7441C25.9991 18.7441 25.8425 18.9525 25.8425 19.2752V20.3781H25.4468V18.4235H25.8384V18.6624ZM29.5464 20.0966C29.5732 20.0963 29.5997 20.1011 29.6246 20.1109C29.6482 20.1205 29.6699 20.1343 29.6884 20.1517C29.7065 20.1693 29.7211 20.1901 29.7316 20.213C29.7527 20.2612 29.7527 20.3158 29.7316 20.364C29.7211 20.3869 29.7065 20.4077 29.6884 20.4253C29.6699 20.4427 29.6482 20.4565 29.6246 20.4661C29.6 20.4769 29.5733 20.4824 29.5464 20.4824C29.4668 20.4818 29.3946 20.4357 29.3612 20.364C29.3404 20.3158 29.3404 20.2612 29.3612 20.213C29.3717 20.1901 29.3863 20.1693 29.4044 20.1517C29.4229 20.1343 29.4446 20.1205 29.4682 20.1109C29.4926 20.099 29.5192 20.0921 29.5464 20.0905V20.0966ZM29.6061 20.4294C29.5873 20.4376 29.5669 20.4417 29.5464 20.4416V20.4375C29.5262 20.4388 29.5059 20.436 29.4867 20.4294C29.4683 20.4217 29.4515 20.4107 29.4373 20.3967C29.384 20.339 29.384 20.2503 29.4373 20.1926C29.4514 20.1785 29.4682 20.1674 29.4867 20.1599C29.5056 20.1519 29.5259 20.1477 29.5464 20.1477C29.5669 20.1476 29.5873 20.1517 29.6061 20.1599C29.6238 20.1677 29.6399 20.1788 29.6534 20.1926C29.7068 20.2503 29.7068 20.339 29.6534 20.3967C29.6398 20.4104 29.6238 20.4215 29.6061 20.4294ZM29.5588 20.1987C29.578 20.1978 29.5969 20.2036 29.6123 20.2151C29.625 20.2256 29.6319 20.2415 29.6308 20.2579C29.6314 20.2717 29.6262 20.285 29.6164 20.2947C29.6044 20.3055 29.5892 20.3119 29.5732 20.3131L29.6328 20.3805H29.5855L29.5299 20.3131H29.5114V20.3805H29.4723V20.2008L29.5588 20.1987ZM29.5135 20.2825V20.2335L29.5588 20.2457C29.5668 20.2434 29.5754 20.2434 29.5834 20.2457C29.5864 20.2515 29.5864 20.2583 29.5834 20.2641C29.5864 20.2699 29.5864 20.2767 29.5834 20.2825C29.5754 20.2848 29.5668 20.2848 29.5588 20.2825H29.5135ZM24.8562 19.4018V18.4235H24.461V18.6604C24.3058 18.4704 24.0693 18.3644 23.823 18.3744C23.2519 18.3744 22.7889 18.8339 22.7889 19.4008C22.7889 19.9676 23.2519 20.4271 23.823 20.4271C24.0693 20.4371 24.3058 20.3311 24.461 20.1411V20.3781H24.8562V19.4018ZM23.4238 18.9362C23.3064 19.0618 23.2474 19.2305 23.2612 19.4012V19.4033C23.2474 19.574 23.3064 19.7426 23.4238 19.8683C23.5413 19.994 23.7066 20.0652 23.8795 20.0646C24.224 20.0318 24.4869 19.7451 24.4869 19.4022C24.4869 19.0594 24.224 18.7727 23.8795 18.7398C23.7066 18.7393 23.5413 18.8105 23.4238 18.9362ZM27.3999 18.9362C27.2825 19.0618 27.2235 19.2305 27.2373 19.4012L27.2291 19.3971C27.2158 19.5675 27.2751 19.7356 27.3925 19.8608C27.5099 19.9861 27.6748 20.057 27.8473 20.0565C28.1772 20.0103 28.4231 19.7317 28.4252 19.4017C28.4273 19.0717 28.1849 18.79 27.8556 18.7398C27.6827 18.7393 27.5174 18.8105 27.3999 18.9362Z" fill="white"/>
    <path d="M15.1711 9.32135C15.1694 7.06488 16.2128 4.9329 18.0009 3.53972C14.9632 1.16987 10.601 1.51506 7.97988 4.3327C5.35876 7.15033 5.35876 11.4944 7.97988 14.3121C10.601 17.1297 14.9632 17.4749 18.0009 15.105C16.2123 13.7114 15.1687 11.5785 15.1711 9.32135Z" stroke="white"/>
    <path d="M29.9888 9.32126C29.9888 12.1372 28.369 14.7059 25.8176 15.9364C23.2661 17.167 20.2308 16.8433 18.0009 15.1029C19.7882 13.7085 20.8317 11.5768 20.8317 9.32024C20.8317 7.06365 19.7882 4.93195 18.0009 3.53758C20.2308 1.79719 23.2661 1.47353 25.8176 2.70407C28.369 3.93461 29.9888 6.5033 29.9888 9.31922V9.32126Z" stroke="white"/>
</svg>
