<svg width="16" height="15" viewBox="0 0 16 15" xmlns="http://www.w3.org/2000/svg">
    <g stroke="black" fill="#000001">
        <path d="M9.5001 1C10.8001 1 12.1001 1.5 13.0001 2.5C13.9001 3.4 14.5001 4.7 14.5001 6C14.5001 7.3 14.0001 8.6 13.0001 9.5C12.1001 10.4 10.8001 11 9.5001 11C8.2001 11 6.9001 10.5 6.0001 9.5C5.0001 8.6 4.5001 7.3 4.5001 6C4.5001 4.7 5.0001 3.4 6.0001 2.5C6.9001 1.5 8.1001 1 9.5001 1ZM9.5001 0C7.9001 0 6.4001 0.6 5.2001 1.8C2.9001 4.1 2.9001 7.9 5.2001 10.3C6.4001 11.4 7.9001 12 9.5001 12C11.1001 12 12.6001 11.4 13.7001 10.2C16.0001 7.9 16.0001 4.1 13.7001 1.7C12.5001 0.6 11.0001 0 9.5001 0Z" 
            stroke="none"
            fill="var(--site-header-color)"
        />
        <path d="M5.4 10L1 14.5" stroke="var(--site-header-color)" stroke-miterlimit="10"/>
    </g>
</svg>
