<svg width="70" height="20" viewBox="0 0 70 20" fill="none" xmlns="http://www.w3.org/2000/svg">
    <rect x="0.5" y="0.5" width="69" height="19" stroke="#3DAB00"/>
    <path d="M12.5225 11.99C12.5225 11.09 12.0025 10.56 11.4525 10.34C11.9325 10.15 12.4125 9.6 12.4125 8.83C12.4125 7.63 11.5825 6.88 10.2625 6.88H7.4925V14H10.3725C11.6325 14 12.5225 13.3 12.5225 11.99ZM11.3325 8.87C11.3325 9.53 10.8625 9.89 10.1725 9.89H8.5725V7.85H10.1725C10.8625 7.85 11.3325 8.21 11.3325 8.87ZM11.4425 11.94C11.4425 12.57 11.0225 13.03 10.2725 13.03H8.5725V10.86H10.2725C11.0225 10.86 11.4425 11.31 11.4425 11.94ZM18.9834 10.44C18.9834 9.07 19.0034 8.28 18.3034 7.58C17.8134 7.09 17.1834 6.82 16.4234 6.82C15.6634 6.82 15.0434 7.09 14.5534 7.58C13.8534 8.28 13.8634 9.07 13.8634 10.44C13.8634 11.81 13.8534 12.6 14.5534 13.3C15.0434 13.79 15.6634 14.06 16.4234 14.06C17.1834 14.06 17.8134 13.79 18.3034 13.3C19.0034 12.6 18.9834 11.81 18.9834 10.44ZM17.9034 10.44C17.9034 11.87 17.8334 12.27 17.4834 12.65C17.2334 12.92 16.8434 13.09 16.4234 13.09C16.0034 13.09 15.6134 12.92 15.3634 12.65C15.0134 12.27 14.9434 11.87 14.9434 10.44C14.9434 9.01 15.0134 8.61 15.3634 8.23C15.6134 7.96 16.0034 7.79 16.4234 7.79C16.8434 7.79 17.2334 7.96 17.4834 8.23C17.8334 8.61 17.9034 9.01 17.9034 10.44ZM17.9634 6.14V5.06H17.0434V6.14H17.9634ZM15.8034 6.14V5.06H14.8834V6.14H15.8034ZM25.788 14L24.148 10.85C24.948 10.63 25.568 9.98 25.568 8.96C25.568 7.75 24.708 6.88 23.358 6.88H20.598V14H21.678V11H23.028L24.528 14H25.788ZM24.488 8.97C24.488 9.67 23.998 10.08 23.278 10.08H21.678V7.85H23.278C23.998 7.85 24.488 8.27 24.488 8.97ZM30.2945 11.75V6.88H29.2145V11.67C29.2145 12.6 28.7245 13.09 27.9245 13.09C27.4045 13.09 27.1645 12.91 26.9145 12.66L26.1945 13.37C26.6845 13.86 27.1945 14.06 27.9245 14.06C29.2345 14.06 30.2945 13.23 30.2945 11.75ZM37.1954 14L34.5854 6.88H33.7154L31.1054 14H32.2554L32.7454 12.57H35.5554L36.0454 14H37.1954ZM35.2554 11.65H33.0654L34.1754 8.49L35.2554 11.65ZM43.9077 11.75V6.88H42.8277V11.67C42.8277 12.6 42.3377 13.09 41.5377 13.09C41.0177 13.09 40.7777 12.91 40.5277 12.66L39.8077 13.37C40.2977 13.86 40.8077 14.06 41.5377 14.06C42.8477 14.06 43.9077 13.23 43.9077 11.75ZM50.8087 14L48.1987 6.88H47.3287L44.7187 14H45.8687L46.3587 12.57H49.1687L49.6587 14H50.8087ZM48.8687 11.65H46.6787L47.7887 8.49L48.8687 11.65ZM56.621 11.24V10.15H54.021V11.07H55.541V11.47C55.541 11.93 55.441 12.29 55.181 12.59C54.901 12.91 54.491 13.09 54.021 13.09C53.601 13.09 53.221 12.93 52.971 12.66C52.621 12.28 52.541 11.87 52.541 10.44C52.541 9.01 52.621 8.61 52.971 8.23C53.221 7.96 53.601 7.79 54.021 7.79C54.821 7.79 55.341 8.25 55.521 9.03H56.611C56.411 7.81 55.531 6.82 54.021 6.82C53.261 6.82 52.641 7.09 52.151 7.58C51.451 8.28 51.461 9.07 51.461 10.44C51.461 11.81 51.451 12.6 52.151 13.3C52.641 13.79 53.281 14.06 54.021 14.06C54.771 14.06 55.441 13.82 55.981 13.25C56.451 12.75 56.621 12.16 56.621 11.24ZM63.3575 14L60.7475 6.88H59.8775L57.2675 14H58.4175L58.9075 12.57H61.7175L62.2075 14H63.3575ZM61.4175 11.65H59.2275L60.3375 8.49L61.4175 11.65Z" fill="#3DAB00"/>
</svg>
