<svg width="45" height="20" viewBox="0 0 45 20" fill="none" xmlns="http://www.w3.org/2000/svg">
    <rect x="0.833496" y="0.5" width="43" height="19" fill="#D6302A" stroke="#D6302A"/>
    <path d="M14.8692 11.75V6.88H13.7892V11.67C13.7892 12.6 13.2992 13.09 12.4992 13.09C11.9792 13.09 11.7392 12.91 11.4892 12.66L10.7692 13.37C11.2592 13.86 11.7692 14.06 12.4992 14.06C13.8092 14.06 14.8692 13.23 14.8692 11.75ZM21.7701 14L19.1601 6.88H18.2901L15.6801 14H16.8301L17.3201 12.57H20.1301L20.6201 14H21.7701ZM19.8301 11.65H17.6401L18.7501 8.49L19.8301 11.65ZM28.3301 14L25.7801 9.67L28.0901 6.88H26.7701L23.8601 10.46V6.88H22.7801V14H23.8601V11.93L25.0601 10.49L27.0601 14H28.3301ZM33.7321 7.85V6.88H28.7321V7.85H30.6921V14H31.7721V7.85H33.7321Z" fill="white"/>
</svg>
