<svg width="42" height="20" viewBox="0 0 42 20" fill="none" xmlns="http://www.w3.org/2000/svg">
    <rect x="0.5" y="0.5" width="41" height="19" stroke="#0094C6"/>
    <path d="M12.8325 7.85V6.88H8.28254V14H9.36254V10.99H12.3225V10.02H9.36254V7.85H12.8325ZM15.2121 14V6.88H14.1321V14H15.2121ZM21.5216 11.97C21.5216 11.36 21.3316 10.85 20.9416 10.51C20.6416 10.24 20.2716 10.08 19.6116 9.98L18.8016 9.86C18.4716 9.81 18.1816 9.69 18.0016 9.53C17.8116 9.36 17.7316 9.13 17.7316 8.87C17.7316 8.24 18.1916 7.76 19.0316 7.76C19.6316 7.76 20.1416 7.89 20.5816 8.31L21.2716 7.63C20.6616 7.06 20.0016 6.82 19.0616 6.82C17.5816 6.82 16.6816 7.67 16.6816 8.91C16.6816 9.49 16.8516 9.94 17.2016 10.27C17.5116 10.56 17.9716 10.76 18.5516 10.84L19.3916 10.96C19.8116 11.02 19.9916 11.09 20.1716 11.26C20.3616 11.43 20.4516 11.69 20.4516 12C20.4516 12.69 19.9116 13.09 18.9816 13.09C18.2516 13.09 17.6816 12.93 17.1616 12.41L16.4416 13.12C17.1216 13.81 17.8916 14.06 18.9616 14.06C20.4516 14.06 21.5216 13.28 21.5216 11.97ZM28.52 14L25.97 9.67L28.28 6.88H26.96L24.05 10.46V6.88H22.97V14H24.05V11.93L25.25 10.49L27.25 14H28.52ZM34.1021 14V13.03H30.6321V10.89H33.5921V9.93H30.6321V7.85H34.1021V6.88H29.5521V14H34.1021Z" fill="#0094C6"/>
</svg>
