<svg width="45" height="20" viewBox="0 0 45 20" fill="none" xmlns="http://www.w3.org/2000/svg">
    <rect x="0.5" y="0.5" width="44" height="19" stroke="#D6302A"/>
    <path d="M15.0357 11.75V6.88H13.9557V11.67C13.9557 12.6 13.4657 13.09 12.6657 13.09C12.1457 13.09 11.9057 12.91 11.6557 12.66L10.9357 13.37C11.4257 13.86 11.9357 14.06 12.6657 14.06C13.9757 14.06 15.0357 13.23 15.0357 11.75ZM21.9366 14L19.3266 6.88H18.4566L15.8466 14H16.9966L17.4866 12.57H20.2966L20.7866 14H21.9366ZM19.9966 11.65H17.8066L18.9166 8.49L19.9966 11.65ZM28.4966 14L25.9466 9.67L28.2566 6.88H26.9366L24.0266 10.46V6.88H22.9466V14H24.0266V11.93L25.2266 10.49L27.2266 14H28.4966ZM33.8986 7.85V6.88H28.8986V7.85H30.8586V14H31.9386V7.85H33.8986Z" fill="#D6302A"/>
</svg>
