<svg width="79" height="20" viewBox="0 0 79 20" fill="none" xmlns="http://www.w3.org/2000/svg">
    <rect x="0.5" y="0.5" width="78" height="19" stroke="#27B4B5"/>
    <path d="M15.187 11.87H14.097C13.927 12.59 13.437 13.09 12.647 13.09C12.227 13.09 11.847 12.93 11.597 12.66C11.247 12.28 11.167 11.87 11.167 10.44C11.167 9.01 11.247 8.6 11.597 8.22C11.847 7.95 12.227 7.79 12.647 7.79C13.437 7.79 13.917 8.29 14.087 9.01H15.187C14.937 7.59 13.957 6.82 12.647 6.82C11.907 6.82 11.267 7.09 10.777 7.58C10.077 8.28 10.087 9.07 10.087 10.44C10.087 11.81 10.077 12.6 10.777 13.3C11.267 13.79 11.907 14.06 12.647 14.06C13.937 14.06 14.947 13.29 15.187 11.87ZM21.1363 14V13.03H17.7063V6.88H16.6263V14H21.1363ZM27.1536 11.6V6.88H26.0736V11.55C26.0736 12.5 25.4836 13.09 24.5936 13.09C23.7036 13.09 23.1236 12.5 23.1236 11.55V6.88H22.0436V11.6C22.0436 13.07 23.1436 14.06 24.5936 14.06C26.0436 14.06 27.1536 13.07 27.1536 11.6ZM33.9317 11.99C33.9317 11.09 33.4117 10.56 32.8617 10.34C33.3417 10.15 33.8217 9.6 33.8217 8.83C33.8217 7.63 32.9917 6.88 31.6717 6.88H28.9017V14H31.7817C33.0417 14 33.9317 13.3 33.9317 11.99ZM32.7417 8.87C32.7417 9.53 32.2717 9.89 31.5817 9.89H29.9817V7.85H31.5817C32.2717 7.85 32.7417 8.21 32.7417 8.87ZM32.8517 11.94C32.8517 12.57 32.4317 13.03 31.6817 13.03H29.9817V10.86H31.6817C32.4317 10.86 32.8517 11.31 32.8517 11.94ZM41.2349 11.75V6.88H40.1549V11.67C40.1549 12.6 39.6649 13.09 38.8649 13.09C38.3449 13.09 38.1049 12.91 37.8549 12.66L37.1349 13.37C37.6249 13.86 38.1349 14.06 38.8649 14.06C40.1749 14.06 41.2349 13.23 41.2349 11.75ZM48.1358 14L45.5258 6.88H44.6558L42.0458 14H43.1958L43.6858 12.57H46.4958L46.9858 14H48.1358ZM46.1958 11.65H44.0058L45.1158 8.49L46.1958 11.65ZM54.6958 14L52.1458 9.67L54.4558 6.88H53.1358L50.2258 10.46V6.88H49.1458V14H50.2258V11.93L51.4258 10.49L53.4258 14H54.6958ZM60.0979 7.85V6.88H55.0979V7.85H57.0579V14H58.1379V7.85H60.0979ZM62.4036 14V6.88H61.3236V14H62.4036ZM69.503 14L66.893 6.88H66.023L63.413 14H64.563L65.053 12.57H67.863L68.353 14H69.503ZM67.563 11.65H65.373L66.483 8.49L67.563 11.65Z" fill="#27B4B5"/>
</svg>
