<svg width="40" height="14" viewBox="0 0 40 14" fill="none" xmlns="http://www.w3.org/2000/svg">
    <path d="M17.3208 13.2958H14.0737L16.1047 1.07104H19.3515L17.3208 13.2958Z" fill="white"/>
    <path d="M29.0273 1.15657C28.3911 0.908577 27.382 0.634766 26.1343 0.634766C22.9489 0.634766 20.7058 2.30363 20.6921 4.68961C20.6656 6.44997 22.2981 7.42772 23.519 8.01469C24.7669 8.61447 25.1911 9.00595 25.1911 9.54058C25.1784 10.3617 24.1828 10.7402 23.2541 10.7402C21.9663 10.7402 21.2763 10.545 20.2277 10.0882L19.8029 9.89238L19.3516 12.6437C20.1081 12.9823 21.5019 13.2828 22.9489 13.296C26.3334 13.296 28.5368 11.6529 28.5629 9.11028C28.5758 7.71505 27.7138 6.64597 25.8554 5.77238C24.7273 5.21158 24.0364 4.83344 24.0364 4.25965C24.0496 3.73802 24.6207 3.20374 25.8942 3.20374C26.9428 3.17758 27.7133 3.42522 28.2969 3.67304L28.5887 3.80318L29.0273 1.15657Z" fill="white"/>
    <path fill-rule="evenodd" clip-rule="evenodd" d="M34.5469 1.07104H37.0118L39.5828 13.2958H36.6321C36.6321 13.2958 36.3434 11.8912 36.2519 11.462H32.1603C32.042 11.7869 31.4915 13.2958 31.4915 13.2958H28.1477L32.8813 2.08535C33.2092 1.29195 33.7867 1.07104 34.5469 1.07104ZM34.3505 5.54505C34.3505 5.54505 33.3406 8.26314 33.0781 8.96544H35.727C35.5959 8.35424 34.9925 5.42802 34.9925 5.42802L34.7697 4.37466C34.676 4.64591 34.5403 5.01884 34.4488 5.27037C34.3868 5.44087 34.3451 5.55559 34.3505 5.54505Z" fill="white"/>
    <path d="M11.5244 1.07104L8.34868 9.416L8.00165 7.72354C7.41452 5.77067 5.57317 3.64892 3.51831 2.59392L6.42717 13.2958H9.8563L14.9534 1.07104H11.5244V1.07104Z" fill="white"/>
    <path d="M5.30004 1.07104H0.0536726L0 1.31444C4.09249 2.3141 6.80287 4.72372 7.91644 7.61998L6.77594 2.08364C6.58818 1.31427 6.01115 1.09642 5.30004 1.07104Z" fill="white"/>
</svg>
