<?xml version="1.0" encoding="UTF-8"?><!DOCTYPE svg PUBLIC "-//W3C//DTD SVG 1.1//EN" "http://www.w3.org/Graphics/SVG/1.1/DTD/svg11.dtd"><svg xmlns="http://www.w3.org/2000/svg"><defs><clipPath id="a"><path fill="#fff" d="M0 0h16v16H0z"/></clipPath></defs><symbol id="amex" viewBox="0 0 25 24"><path fill-rule="evenodd" clip-rule="evenodd" d="M23.047 11.545h-1.814l-.427-.582v.53h-2.614l-.213-.584h-.427l-.213.583H15.418c-.106 0-.213 0-.32-.053-.027-.026-.067-.04-.107-.053-.04-.013-.08-.026-.106-.053-.027-.026-.067-.04-.107-.053a.27.27 0 0 1-.107-.053v.318h-2.614l-.373-.53v.53h-9.39l-.213-.582h-.427l-.213.582H.214V9.162l.747-1.8h1.707l.32.74v-.74h2.134l.267.688.267-.689h9.015v.265c.054-.026.094-.04.134-.053.04-.013.08-.026.133-.053.029-.014.053-.028.076-.041.063-.036.113-.065.19-.065a.674.674 0 0 0 .16-.026c.054-.013.108-.027.161-.027H18.672l.32.742V7.36H20.7l.373.583V7.36h1.974v4.184zm-13.55 1.377h14.67v3.919c-.185.11-.397.17-.616.231-.096.027-.193.054-.29.087h-7.95l-.373-.53v.53h-1.92v-1.112a2.601 2.601 0 0 1-.96.158h.106v.9H9.497l-.374-.529-.373.53H4.482v-4.184H8.75l.373.53.374-.53z" fill="#fff"/><path fill-rule="evenodd" clip-rule="evenodd" d="M3.468 10.856h-.693l-.214-.583H1.174l-.266.583H.214L1.441 8.05h.8l1.227 2.806zm2.24 0h-.586l-.747-2.277v2.277h-.64V8.05h1.067l.64 1.906.64-1.906H7.15v2.806h-.64V8.579l-.8 2.277zm15.792 0L20.38 9.16l-.107-.211v1.906h-.64V8.05h.853L21.5 9.638l.16.265V8.05h.64v2.806h-.8zm-10.723 2.701v2.806h.64v-.953h.854c.586 0 1.013-.37 1.013-.953 0-.53-.373-.953-.96-.953l-1.547.053zm3.574 1.8h.32l.854 1.006h.8l-.96-1.059c.48-.106.747-.423.747-.847 0-.53-.374-.9-.96-.9h-1.494v2.806h.64l.053-1.006zm4.428-1.27v-.53h-2.24v2.806h2.24v-.582h-1.6v-.583h1.547v-.582h-1.547v-.53h1.6zm.427 1.747h1.44c.16 0 .32-.106.267-.318 0-.159-.107-.265-.267-.265h-.64c-.533 0-.853-.264-.853-.794 0-.476.373-.847.96-.847h1.44l-.266.583H20.06c-.16 0-.267.106-.267.264 0 .16.107.265.267.265h.64c.533 0 .853.265.853.794 0 .53-.373.9-.96.9h-1.387v-.582zm2.614 0h1.44c.214 0 .32-.106.267-.318 0-.159-.107-.265-.267-.265h-.64c-.533 0-.853-.264-.853-.794 0-.476.373-.847.96-.847h1.44l-.266.583h-1.227c-.16 0-.267.106-.267.264 0 .16.107.265.267.265h.64c.533 0 .853.265.853.794 0 .53-.373.9-.96.9H21.82v-.582zm-6.293-1.376c0-.16-.107-.318-.374-.318l-.802-.053v.689h.801c.268 0 .375-.16.375-.318zm-3.255.423c.267 0 .374-.16.374-.37 0-.212-.16-.371-.428-.371h-.8v.74h.854zm-1.655 1.482h-.8l-.694-.953-.693.9h-.8l1.12-1.376-1.12-1.377h.8l.693.9.694-.9h.8l-1.12 1.377 1.12 1.43zm-3.201-2.276v-.53h-2.24v2.806h2.24v-.582h-1.6v-.583h1.547v-.582H5.816v-.53h1.6zm10.19-4.98l.213-.581.214.582.267.635h-.961l.267-.635zm1.813 1.749h-.693l-.267-.583h-1.387l-.267.583h-.693l1.227-2.806h.853l1.227 2.806zm-3.68 0l.266-.583h-.16c-.48 0-.747-.317-.747-.794v-.053c0-.476.267-.794.747-.794h.694V8.05h-.747c-.854 0-1.334.582-1.334 1.376v.053c0 .847.48 1.377 1.28 1.377zm-1.761 0h-.64V8.101h.64v2.753zm-2.026-2.224c.267 0 .374.159.374.318s-.107.318-.374.318h-.802v-.69l.802.054zM11.47 9.85h-.32l-.053 1.006h-.64V8.05h1.494c.586 0 .96.37.96.9 0 .423-.267.74-.747.847l.96 1.059h-.8L11.47 9.85zM9.977 8.579v-.53h-2.24v2.807h2.24v-.583h-1.6v-.582h1.546v-.583H8.376V8.58h1.6zm-8.32.529l.213-.582.214.582.267.635h-.962l.267-.635z" fill="#000"/></symbol><symbol id="arrow-down" viewBox="0 0 10 6"><path d="M5 5l-.354.354h.708L5 5zM.646 1.354l4 4 .708-.708-4-4-.708.708zm4.708 4l4-4-.708-.708-4 4 .708.708z" fill="#000"/></symbol><symbol id="arrow-left-grey" viewBox="0 0 24 24"><path fill="none" stroke="#bdbcbb" stroke-width="2" stroke-linecap="square" stroke-miterlimit="10" d="M14 16l-4-4 4-4"/></symbol><symbol id="arrow-left" viewBox="0 0 24 24"><path fill="none" stroke="#444" stroke-width="2" stroke-linecap="square" stroke-miterlimit="10" d="M14 16l-4-4 4-4"/></symbol><symbol id="arrow-right" viewBox="0 0 24 24"><path fill="none" stroke="#444" stroke-width="2" stroke-linecap="square" stroke-miterlimit="10" d="M10 8l4 4-4 4"/></symbol><symbol id="cart" viewBox="0 0 13 17"><g stroke="#000"><path d="M.5 4.7h11.7v11.7H.5V4.7z" stroke="var(--site-header-color, &apos;something&apos;)"/><path d="M3.7 6.9V3.4c0-1.1.6-2.2 1.7-2.7.3-.2.6-.2 1-.2.3 0 .7.1 1 .2C8.4 1.2 9 2.3 9 3.4v3.5" stroke="var(--site-header-color)"/></g></symbol><symbol id="double-chevron-black" viewBox="0 0 8.2084 7.771"><g clip-rule="evenodd" fill="#000" fill-rule="evenodd"><path d="M0 0l1.186 3.883L0 7.771h2.686l1.186-3.888L2.686 0zM4.336 0l1.186 3.883-1.186 3.888h2.686l1.186-3.888L7.022 0z"/></g></symbol><symbol id="double-chevron" viewBox="0 0 8.2084 7.771"><g clip-rule="evenodd" fill="#fff" fill-rule="evenodd"><path d="M0 0l1.186 3.883L0 7.771h2.686l1.186-3.888L2.686 0zM4.336 0l1.186 3.883-1.186 3.888h2.686l1.186-3.888L7.022 0z"/></g></symbol><symbol id="facebook" viewBox="0 0 16 16"><path d="M15.117 0H.883A.883.883 0 0 0 0 .883v14.234c0 .488.395.883.883.883h7.662V9.804H6.46V7.39h2.086V5.607c0-2.066 1.263-3.19 3.106-3.19.884 0 1.643.064 1.864.094v2.16h-1.28c-1 0-1.195.48-1.195 1.18v1.541h2.39l-.31 2.42h-2.08V16h4.077a.882.882 0 0 0 .883-.883V.883A.882.882 0 0 0 15.117 0z" fill="#000"/></symbol><symbol id="flag-dk" viewBox="0 0 21 16"><g clip-path="url(#clip0)"><path d="M0 0h21.003v16H0V0z" fill="#C8102E"/><path d="M6.75 0H9v16H6.75V0z" fill="#fff"/><path d="M0 6.856h21.003v2.287H0V6.856z" fill="#fff"/></g></symbol><symbol id="flag-no" viewBox="0 0 21 16"><path d="M0 0h21v16H0V0z" fill="#ED2939"/><path d="M5.906 0h3.938v16H5.906V0z" fill="#fff"/><path d="M0 6h21v4H0V6z" fill="#fff"/><path d="M6.89 0h1.97v16H6.89V0z" fill="#002664"/><path d="M0 7h21v2H0V7z" fill="#002664"/></symbol><symbol id="flag-se" viewBox="0 0 21 16"><path fill-rule="evenodd" clip-rule="evenodd" d="M-2.085.01H5.79v6.4h-7.875V.01zm0 9.59H5.79V16h-7.875V9.6z" fill="#006AA7"/><path fill-rule="evenodd" clip-rule="evenodd" d="M-2.085 6.406H5.79v3.2h-7.875v-3.2z" fill="#FECC00"/><path fill-rule="evenodd" clip-rule="evenodd" d="M5.757 0h3.15v16h-3.15V0z" fill="#FECC00"/><path fill-rule="evenodd" clip-rule="evenodd" d="M8.808 6.406h14.175v3.2H8.808v-3.2z" fill="#FECC00"/><path fill-rule="evenodd" clip-rule="evenodd" d="M8.906 9.6h14.175V16H8.906V9.6zm0-9.59h14.175v6.4H8.906V.01z" fill="#006AA7"/></symbol><symbol id="hamburger" viewBox="0 0 16 11"><g stroke="#000"><path d="M0 .5h16" stroke="var(--site-header-color, &apos;something&apos;)"/><path d="M0 3.7h16M0 6.9h16M0 10.1h16" stroke="var(--site-header-color)"/></g></symbol><symbol id="https" viewBox="0 0 45 13"><path d="M6.56 9.266H4.772V5.44c0-.946-.351-1.418-1.054-1.418-.5 0-.862.17-1.084.51-.223.34-.334.89-.334 1.652v3.082H.513V.149H2.3v1.857c0 .145-.014.484-.041 1.02l-.041.527h.094c.398-.64 1.03-.961 1.898-.961.77 0 1.353.207 1.752.621.398.414.598 1.008.598 1.781v4.272zm4.6-1.307c.312 0 .687-.068 1.124-.205v1.33c-.445.2-.992.3-1.64.3-.715 0-1.237-.18-1.565-.54-.324-.363-.486-.906-.486-1.629V4.057h-.856V3.3l.985-.598.515-1.382h1.143v1.394h1.834v1.342H10.38v3.158c0 .254.07.441.21.563.145.12.335.181.57.181zm5.214 0c.313 0 .688-.068 1.125-.205v1.33c-.445.2-.992.3-1.64.3-.715 0-1.237-.18-1.565-.54-.324-.363-.486-.906-.486-1.629V4.057h-.856V3.3l.985-.598.515-1.382h1.143v1.394h1.834v1.342h-1.834v3.158c0 .254.07.441.21.563.145.12.335.181.569.181zm6.053 1.424c-.77 0-1.373-.28-1.81-.838h-.095c.063.547.094.863.094.95v2.654H18.83V2.715h1.453l.252.85h.082c.418-.649 1.037-.973 1.858-.973.773 0 1.378.299 1.816.897.438.597.656 1.427.656 2.49 0 .699-.103 1.306-.31 1.822-.203.516-.494.908-.873 1.178-.38.27-.825.404-1.336.404zm-.528-5.361c-.441 0-.763.136-.966.41-.203.27-.309.717-.317 1.342v.193c0 .703.104 1.207.31 1.512.212.304.544.457.997.457.8 0 1.201-.66 1.201-1.98 0-.645-.1-1.128-.299-1.448-.195-.324-.504-.486-.926-.486zm9.094 3.299c0 .671-.234 1.183-.703 1.535-.465.351-1.162.527-2.092.527a6.39 6.39 0 0 1-1.218-.1 4.49 4.49 0 0 1-.944-.28V7.525c.332.156.705.287 1.12.392.417.106.784.158 1.1.158.65 0 .974-.187.974-.562a.46.46 0 0 0-.13-.34c-.085-.09-.234-.19-.445-.299a10.389 10.389 0 0 0-.844-.392c-.503-.211-.875-.407-1.113-.586a1.695 1.695 0 0 1-.515-.616c-.106-.234-.159-.521-.159-.86 0-.583.225-1.032.674-1.348.453-.32 1.094-.481 1.922-.481.79 0 1.557.172 2.303.516l-.54 1.289a9.917 9.917 0 0 0-.92-.346 2.889 2.889 0 0 0-.872-.135c-.527 0-.791.143-.791.428 0 .16.084.299.252.416.172.117.545.291 1.119.521.512.208.887.4 1.125.58.238.18.414.387.527.622.113.234.17.513.17.838zm1.143 1.107c0-.328.088-.576.263-.744.176-.168.432-.252.768-.252.324 0 .574.086.75.258.18.172.27.418.27.738 0 .309-.09.553-.27.732-.18.176-.43.264-.75.264-.328 0-.582-.086-.762-.258-.18-.176-.27-.422-.27-.738zm0-4.84c0-.328.088-.576.263-.744.176-.168.432-.252.768-.252.324 0 .574.086.75.258.18.172.27.418.27.738 0 .317-.092.563-.276.738-.18.172-.428.258-.744.258-.328 0-.582-.086-.762-.258-.18-.171-.27-.418-.27-.738zM39.77.7l-3.193 8.567h-1.623L38.148.699h1.622zm4.957 0l-3.193 8.567h-1.623L43.105.699h1.623z" fill="#DADADA"/></symbol><symbol id="locator" viewBox="0 0 16 16"><path d="M15.553 7.567h-1.95a5.636 5.636 0 0 0-5.154-5.14V.434A.442.442 0 0 0 8 0a.442.442 0 0 0-.448.433v1.995a5.636 5.636 0 0 0-5.155 5.139H.448A.442.442 0 0 0 0 8c0 .238.202.433.448.433h1.948a5.636 5.636 0 0 0 5.155 5.14v1.994c0 .238.202.433.448.433a.442.442 0 0 0 .448-.433v-1.995a5.636 5.636 0 0 0 5.155-5.139h1.95A.442.442 0 0 0 16 8a.44.44 0 0 0-.447-.433zm-5.2.866h2.354c-.224 2.255-2.017 4.055-4.258 4.272l-.001-2.363A.442.442 0 0 0 8 9.908a.442.442 0 0 0-.448.434v2.363c-2.24-.217-4.034-2.016-4.258-4.272h2.353A.442.442 0 0 0 6.095 8a.442.442 0 0 0-.448-.433H3.293c.224-2.255 2.017-4.055 4.258-4.272v2.363c0 .239.202.434.448.434a.442.442 0 0 0 .448-.434V3.294c2.242.217 4.035 2.017 4.26 4.272h-2.354A.442.442 0 0 0 9.907 8c-.001.238.201.433.447.433z" fill="#000"/></symbol><symbol id="logo" viewBox="0 0 60 21"><g fill="#9b0c00"><path d="M54.99 14.931c-.515.95-1.306 1.524-2.386 1.66a1.95 1.95 0 0 1-1.218-.242c-.538-.303-.748-.783-.73-1.38.019-.562.305-.961.774-1.244.434-.264.907-.44 1.397-.552.784-.182 1.575-.333 2.364-.496.012-.003.025 0 .06.002 0 .384 0 .76.002 1.138 0 .392-.075.77-.263 1.114zm4.058 2.876c-.28-.237-.357-.562-.357-.913 0-2.016.004-4.032-.003-6.05a7.894 7.894 0 0 0-.074-1.023c-.086-.658-.305-1.27-.71-1.805-.52-.68-1.227-1.074-2.035-1.3-1.263-.351-2.553-.364-3.847-.248-1.106.098-2.177.368-3.225.73-.09.032-.119.07-.12.164-.023.858-.052 1.716-.076 2.573-.006.241 0 .483 0 .735.127 0 .253.008.377-.003a.192.192 0 0 0 .126-.08c.096-.158.177-.328.272-.487.315-.523.692-.987 1.23-1.298.455-.263.954-.383 1.473-.434.558-.053 1.117-.079 1.67.037 1.069.224 1.602.927 1.487 1.956-.023.216-.123.38-.326.463-.155.064-.316.13-.48.154-.867.13-1.735.245-2.6.37-.796.114-1.583.268-2.33.577-.753.312-1.401.759-1.822 1.481-.294.502-.422 1.05-.451 1.624-.037.746.071 1.464.454 2.117.596 1.016 1.529 1.504 2.665 1.637.714.083 1.43.044 2.141-.052.71-.097 1.358-.344 1.917-.804.395-.325.72-.712 1.016-1.127.032-.047.07-.088.106-.132l.028.014v1.88l.14-.008.842-.08a13.701 13.701 0 0 1 2.495.003c.323.03.645.067.969.102v-.494c-.345.003-.678-.047-.952-.279z" fill="var(--logo-color, &apos;something&apos;)"/><path d="M6.403 1.283v.454c-.133.02-.27.033-.405.059-.473.093-.721.386-.739.867a12.5 12.5 0 0 0-.005.403c0 4.037.005 8.074-.004 12.11-.003 1.035-.17 2.046-.605 2.997-.63 1.376-1.703 2.223-3.149 2.616-.3.08-.61.124-.915.186-.03.005-.058.016-.086.025h-.13c-.018-.052-.03-.106-.052-.157L0 20.115v-.052c.77-.246 1.223-.762 1.367-1.561.114-.626.143-1.257.143-1.889.004-4.444.003-8.889.002-13.332 0-.13-.01-.26-.03-.388-.082-.553-.385-.92-.93-1.062-.18-.046-.368-.06-.552-.087v-.469c.49.03.978.062 1.467.086.446.021.892.037 1.339.05 1.124.037 2.244-.048 3.365-.128.072-.005.146 0 .232 0zM24.61 0c-.02.402-.043.805-.058 1.207-.014.364-.026.728-.026 1.092-.002 4.757-.003 9.515.002 14.272 0 .25.022.505.078.747.108.476.387.697.878.744.163.015.327.024.497.036v.479c-2.016-.177-4.03-.234-6.051.001-.003-.052-.006-.082-.006-.111v-.368c.128-.013.248-.02.366-.037a.779.779 0 0 0 .655-.524c.11-.289.138-.591.139-.895.002-4.298.004-8.595-.004-12.893 0-.348-.054-.7-.115-1.043-.077-.435-.363-.685-.79-.78-.08-.017-.16-.038-.245-.06v-.473c.269-.043.538-.081.804-.13 1.14-.211 2.232-.572 3.296-1.021.179-.075.352-.162.527-.243h.052z" fill="var(--logo-color)"/><path d="M0 20.115c.104.243.21.485.313.728.021.05.035.105.052.157H0v-.885zM14.538 14.607c-.381 1.13-1.595 2.011-2.768 1.99-.461-.008-.888-.134-1.25-.443-.586-.502-.68-1.756.17-2.33.419-.284.882-.46 1.36-.603.842-.248 1.703-.405 2.567-.546.009-.001.017.002.053.006-.046.646.08 1.295-.132 1.926zm4.518 3.455c-.494-.068-.818-.353-.92-.826a2.108 2.108 0 0 1-.037-.438c-.002-1.973.002-3.946-.005-5.92a7.525 7.525 0 0 0-.08-1.125c-.212-1.383-.948-2.366-2.269-2.881-.895-.35-1.833-.44-2.782-.463a12.376 12.376 0 0 0-2.256.15 14.73 14.73 0 0 0-2.527.65c-.064.022-.085.054-.085.12 0 .126-.011.252-.015.377-.022.79-.045 1.577-.066 2.366-.005.197 0 .394 0 .598.123 0 .244-.004.365.002.077.005.114-.027.149-.093.1-.19.202-.383.315-.567.389-.631.886-1.143 1.596-1.41.523-.198 1.07-.253 1.621-.273.471-.017.938.006 1.39.153.949.31 1.308 1.031 1.192 1.916-.026.203-.131.358-.319.425-.243.087-.494.17-.749.207-.886.134-1.778.24-2.665.371-.773.116-1.532.296-2.244.633-.851.402-1.508.998-1.823 1.912-.243.704-.269 1.427-.132 2.155.116.628.383 1.184.831 1.646.704.727 1.59 1.039 2.577 1.062.587.013 1.179-.022 1.765-.082a3.536 3.536 0 0 0 1.838-.725c.448-.346.807-.772 1.131-1.23.024-.035.054-.066.08-.1l.033.016v1.892a16.156 16.156 0 0 1 4.44-.004v-.479c-.126-.013-.237-.02-.349-.035zM40.656 16.053l-.116.927c-.048.383-.103.765-.144 1.148-.01.095-.053.134-.129.17a5.49 5.49 0 0 1-1.759.483c-.658.07-1.317.065-1.967-.082-1.232-.279-1.967-1.05-2.24-2.274a6.377 6.377 0 0 1-.136-1.394V8.226h-1.351v-1.56h1.344c.003-.063.007-.109.007-.155 0-.477.002-.954-.002-1.43 0-.08.023-.121.1-.156.998-.447 1.855-1.093 2.616-1.875a.27.27 0 0 1 .165-.073c.173-.009.347-.002.52 0 .008 0 .016.006.034.014v3.663h2.316v1.564h-2.312v.147c0 2.138-.003 4.276.004 6.414.001.253.035.512.096.757.17.681.655 1.05 1.358 1.065a2.355 2.355 0 0 0 1.463-.456l.133-.092zM46.948 18.083v.495a26.83 26.83 0 0 0-5.74 0V18.1c.12-.018.238-.026.35-.054.521-.13.796-.486.801-1.039.004-.342.001-.685.001-1.028l-.001-7.052c0-.12-.007-.243-.03-.362-.099-.502-.381-.747-.893-.784l-.227-.013v-.473c1.574-.226 3.116-.573 4.591-1.258v.144c0 3.569 0 7.138.002 10.707 0 .143.011.288.04.426.106.49.4.734.913.769.06.004.12 0 .193 0zM26.751 7.13v-.478c1.877.205 3.749.208 5.636 0l-4.433 4.442.836 1.337c.887 1.418 1.77 2.838 2.666 4.25.2.317.436.616.683.9.295.34.689.5 1.142.506.02 0 .042.003.071.006v.471c-.18-.015-.359-.029-.537-.047-.791-.08-1.584-.126-2.378-.082-.523.029-1.046.078-1.568.125-.083.008-.124-.015-.166-.082a3555.254 3555.254 0 0 0-4.014-6.429c-.056-.09-.051-.14.019-.22.956-1.089 1.91-2.179 2.859-3.272.124-.143.222-.31.33-.466.019-.028.03-.062.043-.094.158-.403.047-.649-.373-.756-.233-.06-.479-.07-.719-.102l-.097-.01zM43.971 5.551c-.57-.007-1.068-.142-1.472-.52-.483-.453-.627-1.031-.586-1.669.03-.441.157-.852.443-1.198.442-.537 1.035-.697 1.701-.641.645.054 1.165.328 1.48.915.392.732.377 1.888-.254 2.558-.364.387-.818.552-1.312.555z" fill="var(--logo-color)"/></g></symbol><symbol id="mastercard" viewBox="0 0 36 23"><path fill-rule="evenodd" clip-rule="evenodd" d="M28.832 19.402v-1.767h-.395v1.022a.782.782 0 0 0-.638-.286 1.03 1.03 0 0 0-1.034 1.026 1.03 1.03 0 0 0 1.034 1.026.783.783 0 0 0 .638-.285v.236h.395v-.972zm-12.782-.978h.716l-.002.351h-.716v.938c0 .196.095.326.3.326a.796.796 0 0 0 .379-.11l.123.347c-.16.1-.346.152-.535.151-.506 0-.666-.27-.666-.723v-.925h-.412v-.355h.412v-.593h.4v.593zm-5.695.724v1.226l-.41.002v-1.125c0-.331-.156-.515-.448-.515a.477.477 0 0 0-.37.146.47.47 0 0 0-.128.373v1.121h-.4v-1.125c0-.331-.16-.515-.444-.515a.475.475 0 0 0-.37.145.467.467 0 0 0-.128.374v1.123h-.4v-1.954h.406v.238a.675.675 0 0 1 .593-.285.726.726 0 0 1 .65.347.765.765 0 0 1 .692-.348.721.721 0 0 1 .556.215.71.71 0 0 1 .201.557zm10.067-.773a.62.62 0 0 0-.535.285v-.236h-.392v1.954h.396v-1.103c0-.322.156-.53.437-.53a.705.705 0 0 1 .268.048l.131-.37a.924.924 0 0 0-.305-.053v.005zm-6.33 0c.282-.01.561.06.803.204l-.179.324a1.278 1.278 0 0 0-.617-.167c-.235 0-.391.118-.391.241 0 .122.165.18.35.204l.206.029c.426.061.666.202.666.574 0 .371-.314.633-.883.633a1.478 1.478 0 0 1-.852-.253l.206-.307c.188.14.42.213.655.204.292 0 .465-.098.465-.249 0-.11-.128-.192-.362-.224l-.206-.029c-.44-.061-.663-.253-.663-.572 0-.38.305-.613.803-.613zm6.772 1.02a.97.97 0 0 0 .286.738.986.986 0 0 0 .743.284c.257.013.51-.07.708-.233l-.206-.306a.871.871 0 0 1-.515.175.668.668 0 0 1-.606-.662c0-.343.262-.63.606-.663a.871.871 0 0 1 .515.175l.206-.306a1.034 1.034 0 0 0-.708-.233.986.986 0 0 0-.743.284.97.97 0 0 0-.286.738v.01zm-3.744 0c0-.612.397-1.02.973-1.02l.007-.003c.553 0 .928.409.928 1.022v.163h-1.472a.577.577 0 0 0 .595.5.943.943 0 0 0 .572-.204l.206.29a1.204 1.204 0 0 1-.807.274.974.974 0 0 1-.729-.29.957.957 0 0 1-.273-.731zm1.34-.519a.506.506 0 0 0-.363-.138.526.526 0 0 0-.54.494h1.057a.496.496 0 0 0-.155-.356zm-5.699-.453v1.955h-.395v-.237a.783.783 0 0 1-.638.286 1.03 1.03 0 0 1-1.034-1.026 1.03 1.03 0 0 1 1.034-1.027.783.783 0 0 1 .638.286v-.236h.395zm-1.595.974a.61.61 0 0 1 .163-.465.62.62 0 0 1 .455-.196c.345.033.608.32.608.662 0 .343-.263.63-.607.663a.621.621 0 0 1-.456-.197.61.61 0 0 1-.163-.465v-.002zm14.672-.735a.62.62 0 0 1 .536-.285v-.005c.104 0 .207.019.305.053l-.132.368a.705.705 0 0 0-.268-.049c-.28 0-.436.209-.436.531v1.103h-.396v-1.954h.391v.238zm3.708 1.435a.207.207 0 0 1 .142.055.188.188 0 0 1 0 .274.207.207 0 0 1-.063.04.195.195 0 0 1-.079.016.206.206 0 0 1-.185-.118.19.19 0 0 1 .107-.253.206.206 0 0 1 .078-.02v.006zm.06.332a.148.148 0 0 1-.06.013v-.005a.153.153 0 0 1-.06-.008.156.156 0 0 1-.049-.032.15.15 0 0 1 0-.204.153.153 0 0 1 .169-.033.152.152 0 0 1 .047.033.15.15 0 0 1 0 .204.157.157 0 0 1-.047.032zm-.047-.23c.019-.001.038.005.053.016.013.01.02.026.019.043a.049.049 0 0 1-.015.037.073.073 0 0 1-.043.018l.06.068h-.047l-.056-.068h-.019v.068h-.039v-.18l.087-.002zm-.046.083v-.049l.046.013a.045.045 0 0 1 .024 0 .02.02 0 0 1 0 .018.02.02 0 0 1 0 .018.045.045 0 0 1-.024 0h-.046zm-4.657-.88v-.979h-.395v.237a.783.783 0 0 0-.638-.286 1.03 1.03 0 0 0-1.034 1.027 1.03 1.03 0 0 0 1.034 1.026.783.783 0 0 0 .638-.286v.237h.395v-.976zm-1.432-.466a.61.61 0 0 0-.163.465v.002a.61.61 0 0 0 .163.465.62.62 0 0 0 .456.197.668.668 0 0 0 .607-.663.668.668 0 0 0-.607-.662.621.621 0 0 0-.456.196zm3.976 0a.61.61 0 0 0-.163.465l-.008-.004a.609.609 0 0 0 .163.464.62.62 0 0 0 .455.195.668.668 0 0 0 .578-.654.667.667 0 0 0-.57-.662.621.621 0 0 0-.455.196z" fill="#fff"/><path d="M15.171 9.321a7.323 7.323 0 0 1 2.83-5.781c-3.038-2.37-7.4-2.025-10.021.793a7.315 7.315 0 0 0 0 9.98c2.621 2.817 6.983 3.162 10.02.792a7.323 7.323 0 0 1-2.829-5.784z" stroke="#fff"/><path d="M29.989 9.321a7.35 7.35 0 0 1-4.171 6.615A7.453 7.453 0 0 1 18 15.103a7.335 7.335 0 0 0 2.83-5.783 7.335 7.335 0 0 0-2.83-5.782 7.453 7.453 0 0 1 7.817-.834 7.35 7.35 0 0 1 4.17 6.615v.002z" stroke="#fff"/></symbol><symbol id="minus-circle" viewBox="0 0 25 25"><circle cx="12.5" cy="12.5" r="12.5" fill="#F4F4F4"/><path stroke="#000" d="M6 12.5h13"/></symbol><symbol id="plus-black" viewBox="0 0 16 16"><path d="M8.4 1h-1v6.4h1V1zM8.4 8.4h-1v6.4h1V8.4zM7.4 7.4H1v1h6.4v-1zM14.8 7.4H8.4v1h6.4v-1z" fill="#000"/></symbol><symbol id="plus-circle" viewBox="0 0 25 25"><circle cx="12.5" cy="12.5" r="12.5" fill="#F4F4F4"/><path d="M12.875 5.938h-.938v6h.938v-6zM12.875 12.875h-.938v6h.938v-6z" fill="#000"/><path d="M11.938 11.938h-6v.937h6v-.938zM18.875 11.938h-6v.937h6v-.938z" fill="#000"/></symbol><symbol id="plus" viewBox="0 0 16 16"><path d="M8.4 1h-1v6.4h1V1zM8.4 8.4h-1v6.4h1V8.4zM7.4 7.4H1v1h6.4v-1zM14.8 7.4H8.4v1h6.4v-1z" fill="#fff"/></symbol><symbol id="remove-red" viewBox="0 0 16 16"><g fill="none" stroke="#9b0c00" stroke-linecap="square" stroke-miterlimit="10"><path d="M12 4l-8 8M12 12L4 4"/></g></symbol><symbol id="remove" viewBox="0 0 16 16"><g fill="none" stroke="#000" stroke-linecap="square" stroke-miterlimit="10"><path d="M12 4l-8 8M12 12L4 4"/></g></symbol><symbol id="search" viewBox="0 0 16 15"><g stroke="#000" fill="#000001"><path d="M9.5 1c1.3 0 2.6.5 3.5 1.5.9.9 1.5 2.2 1.5 3.5 0 1.3-.5 2.6-1.5 3.5-.9.9-2.2 1.5-3.5 1.5-1.3 0-2.6-.5-3.5-1.5C5 8.6 4.5 7.3 4.5 6c0-1.3.5-2.6 1.5-3.5.9-1 2.1-1.5 3.5-1.5zm0-1C7.9 0 6.4.6 5.2 1.8c-2.3 2.3-2.3 6.1 0 8.5C6.4 11.4 7.9 12 9.5 12c1.6 0 3.1-.6 4.2-1.8 2.3-2.3 2.3-6.1 0-8.5C12.5.6 11 0 9.5 0z" fill="var(--site-header-color)" stroke="none"/><path d="M5.4 10L1 14.5" stroke="var(--site-header-color)" stroke-miterlimit="10"/></g></symbol><symbol id="share-link" viewBox="0 0 17 17"><g clip-path="url(#a)" stroke="#000" stroke-miterlimit="10"><path d="M15.33 3.977L12 .646l-4.652 4.65 3.332 3.332 4.65-4.651zM8.67 10.658l-3.33-3.33-4.652 4.65L4.02 15.31l4.652-4.652zM10.311 5.6l-4.71 4.711"/></g></symbol><symbol id="tag-borja-jaga-inverted" viewBox="0 0 70 20"><path stroke="#3DAB00" d="M.5.5h69v19H.5z"/><path d="M12.523 11.99c0-.9-.52-1.43-1.07-1.65.48-.19.96-.74.96-1.51 0-1.2-.83-1.95-2.15-1.95h-2.77V14h2.88c1.26 0 2.15-.7 2.15-2.01zm-1.19-3.12c0 .66-.47 1.02-1.16 1.02h-1.6V7.85h1.6c.69 0 1.16.36 1.16 1.02zm.11 3.07c0 .63-.42 1.09-1.17 1.09h-1.7v-2.17h1.7c.75 0 1.17.45 1.17 1.08zm7.54-1.5c0-1.37.02-2.16-.68-2.86-.49-.49-1.12-.76-1.88-.76-.76 0-1.38.27-1.87.76-.7.7-.69 1.49-.69 2.86 0 1.37-.01 2.16.69 2.86.49.49 1.11.76 1.87.76s1.39-.27 1.88-.76c.7-.7.68-1.49.68-2.86zm-1.08 0c0 1.43-.07 1.83-.42 2.21-.25.27-.64.44-1.06.44-.42 0-.81-.17-1.06-.44-.35-.38-.42-.78-.42-2.21s.07-1.83.42-2.21c.25-.27.64-.44 1.06-.44.42 0 .81.17 1.06.44.35.38.42.78.42 2.21zm.06-4.3V5.06h-.92v1.08h.92zm-2.16 0V5.06h-.92v1.08h.92zM25.788 14l-1.64-3.15c.8-.22 1.42-.87 1.42-1.89 0-1.21-.86-2.08-2.21-2.08h-2.76V14h1.08v-3h1.35l1.5 3h1.26zm-1.3-5.03c0 .7-.49 1.11-1.21 1.11h-1.6V7.85h1.6c.72 0 1.21.42 1.21 1.12zm5.806 2.78V6.88h-1.08v4.79c0 .93-.49 1.42-1.29 1.42-.52 0-.76-.18-1.01-.43l-.72.71c.49.49 1 .69 1.73.69 1.31 0 2.37-.83 2.37-2.31zM37.195 14l-2.61-7.12h-.87L31.105 14h1.15l.49-1.43h2.81l.49 1.43h1.15zm-1.94-2.35h-2.19l1.11-3.16 1.08 3.16zm8.653.1V6.88h-1.08v4.79c0 .93-.49 1.42-1.29 1.42-.52 0-.76-.18-1.01-.43l-.72.71c.49.49 1 .69 1.73.69 1.31 0 2.37-.83 2.37-2.31zm6.9 2.25l-2.61-7.12h-.87L44.719 14h1.15l.49-1.43h2.81l.49 1.43h1.15zm-1.94-2.35h-2.19l1.11-3.16 1.08 3.16zm7.753-.41v-1.09h-2.6v.92h1.52v.4c0 .46-.1.82-.36 1.12-.28.32-.69.5-1.16.5-.42 0-.8-.16-1.05-.43-.35-.38-.43-.79-.43-2.22 0-1.43.08-1.83.43-2.21.25-.27.63-.44 1.05-.44.8 0 1.32.46 1.5 1.24h1.09c-.2-1.22-1.08-2.21-2.59-2.21-.76 0-1.38.27-1.87.76-.7.7-.69 1.49-.69 2.86 0 1.37-.01 2.16.69 2.86.49.49 1.13.76 1.87.76.75 0 1.42-.24 1.96-.81.47-.5.64-1.09.64-2.01zM63.357 14l-2.61-7.12h-.87L57.267 14h1.15l.49-1.43h2.81l.49 1.43h1.15zm-1.94-2.35h-2.19l1.11-3.16 1.08 3.16z" fill="#3DAB00"/></symbol><symbol id="tag-club-jaktia-inverted" viewBox="0 0 79 20"><path stroke="#27B4B5" d="M.5.5h78v19H.5z"/><path d="M15.187 11.87h-1.09c-.17.72-.66 1.22-1.45 1.22-.42 0-.8-.16-1.05-.43-.35-.38-.43-.79-.43-2.22 0-1.43.08-1.84.43-2.22.25-.27.63-.43 1.05-.43.79 0 1.27.5 1.44 1.22h1.1c-.25-1.42-1.23-2.19-2.54-2.19-.74 0-1.38.27-1.87.76-.7.7-.69 1.49-.69 2.86 0 1.37-.01 2.16.69 2.86.49.49 1.13.76 1.87.76 1.29 0 2.3-.77 2.54-2.19zm5.95 2.13v-.97h-3.43V6.88h-1.08V14h4.51zm6.017-2.4V6.88h-1.08v4.67c0 .95-.59 1.54-1.48 1.54s-1.47-.59-1.47-1.54V6.88h-1.08v4.72c0 1.47 1.1 2.46 2.55 2.46 1.45 0 2.56-.99 2.56-2.46zm6.778.39c0-.9-.52-1.43-1.07-1.65.48-.19.96-.74.96-1.51 0-1.2-.83-1.95-2.15-1.95h-2.77V14h2.88c1.26 0 2.15-.7 2.15-2.01zm-1.19-3.12c0 .66-.47 1.02-1.16 1.02h-1.6V7.85h1.6c.69 0 1.16.36 1.16 1.02zm.11 3.07c0 .63-.42 1.09-1.17 1.09h-1.7v-2.17h1.7c.75 0 1.17.45 1.17 1.08zm8.383-.19V6.88h-1.08v4.79c0 .93-.49 1.42-1.29 1.42-.52 0-.76-.18-1.01-.43l-.72.71c.49.49 1 .69 1.73.69 1.31 0 2.37-.83 2.37-2.31zm6.9 2.25l-2.61-7.12h-.87L42.046 14h1.15l.49-1.43h2.81l.49 1.43h1.15zm-1.94-2.35h-2.19l1.11-3.16 1.08 3.16zm8.5 2.35l-2.55-4.33 2.31-2.79h-1.32l-2.91 3.58V6.88h-1.08V14h1.08v-2.07l1.2-1.44 2 3.51h1.27zm5.403-6.15v-.97h-5v.97h1.96V14h1.08V7.85h1.96zM62.404 14V6.88h-1.08V14h1.08zm7.099 0l-2.61-7.12h-.87L63.413 14h1.15l.49-1.43h2.81l.49 1.43h1.15zm-1.94-2.35h-2.19l1.11-3.16 1.08 3.16z" fill="#27B4B5"/></symbol><symbol id="tag-fiske-inverted" viewBox="0 0 42 20"><path stroke="#0094C6" d="M.5.5h41v19H.5z"/><path d="M12.832 7.85v-.97h-4.55V14h1.08v-3.01h2.96v-.97h-2.96V7.85h3.47zm2.38 6.15V6.88h-1.08V14h1.08zm6.31-2.03c0-.61-.19-1.12-.58-1.46-.3-.27-.67-.43-1.33-.53l-.81-.12c-.33-.05-.62-.17-.8-.33-.19-.17-.27-.4-.27-.66 0-.63.46-1.11 1.3-1.11.6 0 1.11.13 1.55.55l.69-.68c-.61-.57-1.27-.81-2.21-.81-1.48 0-2.38.85-2.38 2.09 0 .58.17 1.03.52 1.36.31.29.77.49 1.35.57l.84.12c.42.06.6.13.78.3.19.17.28.43.28.74 0 .69-.54 1.09-1.47 1.09-.73 0-1.3-.16-1.82-.68l-.72.71c.68.69 1.45.94 2.52.94 1.49 0 2.56-.78 2.56-2.09zM28.52 14l-2.55-4.33 2.31-2.79h-1.32l-2.91 3.58V6.88h-1.08V14h1.08v-2.07l1.2-1.44 2 3.51h1.27zm5.582 0v-.97h-3.47v-2.14h2.96v-.96h-2.96V7.85h3.47v-.97h-4.55V14h4.55z" fill="#0094C6"/></symbol><symbol id="tag-jakt-inverted" viewBox="0 0 45 20"><path stroke="#D6302A" d="M.5.5h44v19H.5z"/><path d="M15.036 11.75V6.88h-1.08v4.79c0 .93-.49 1.42-1.29 1.42-.52 0-.76-.18-1.01-.43l-.72.71c.49.49 1 .69 1.73.69 1.31 0 2.37-.83 2.37-2.31zm6.9 2.25l-2.61-7.12h-.87L15.847 14h1.15l.49-1.43h2.81l.49 1.43h1.15zm-1.94-2.35h-2.19l1.11-3.16 1.08 3.16zm8.5 2.35l-2.55-4.33 2.31-2.79h-1.32l-2.91 3.58V6.88h-1.08V14h1.08v-2.07l1.2-1.44 2 3.51h1.27zM33.9 7.85v-.97h-5v.97h1.96V14h1.08V7.85h1.96z" fill="#D6302A"/></symbol><symbol id="tag-jakt" viewBox="0 0 45 20"><path fill="#D6302A" stroke="#D6302A" d="M.833.5h43v19h-43z"/><path d="M14.87 11.75V6.88h-1.08v4.79c0 .93-.49 1.42-1.29 1.42-.52 0-.76-.18-1.01-.43l-.72.71c.49.49 1 .69 1.73.69 1.31 0 2.37-.83 2.37-2.31zm6.9 2.25l-2.61-7.12h-.87L15.68 14h1.15l.49-1.43h2.81l.49 1.43h1.15zm-1.94-2.35h-2.19l1.11-3.16 1.08 3.16zm8.5 2.35l-2.55-4.33 2.31-2.79h-1.32l-2.91 3.58V6.88h-1.08V14h1.08v-2.07l1.2-1.44 2 3.51h1.27zm5.402-6.15v-.97h-5v.97h1.96V14h1.08V7.85h1.96z" fill="#fff"/></symbol><symbol id="twitter" viewBox="0 0 16 14"><path d="M15.969 1.549c-.59.259-1.22.436-1.884.516A3.305 3.305 0 0 0 15.527.25c-.634.37-1.336.64-2.084.79a3.28 3.28 0 0 0-5.59 2.988A9.29 9.29 0 0 1 1.094.61 3.214 3.214 0 0 0 .65 2.26c0 1.14.58 2.142 1.459 2.73a3.27 3.27 0 0 1-1.485-.41v.04a3.282 3.282 0 0 0 2.63 3.218 3.33 3.33 0 0 1-1.474.057 3.291 3.291 0 0 0 3.069 2.278A6.578 6.578 0 0 1 0 11.53a9.33 9.33 0 0 0 5.038 1.473c6.035 0 9.332-4.997 9.332-9.323 0-.14 0-.28-.01-.42.64-.46 1.2-1.04 1.64-1.7l-.031-.012z" fill="#000"/></symbol><symbol id="visa" viewBox="0 0 40 14"><path d="M17.32 13.296h-3.246l2.03-12.225h3.248L17.32 13.296zM29.027 1.157a8.073 8.073 0 0 0-2.893-.522c-3.185 0-5.428 1.669-5.442 4.055-.026 1.76 1.606 2.738 2.827 3.325 1.248.6 1.672.99 1.672 1.526-.013.82-1.008 1.2-1.937 1.2-1.288 0-1.978-.196-3.026-.653l-.425-.196-.451 2.752c.756.338 2.15.639 3.597.652 3.384 0 5.588-1.643 5.614-4.186.013-1.395-.85-2.464-2.708-3.338-1.128-.56-1.819-.939-1.819-1.512.014-.522.585-1.056 1.858-1.056a5.563 5.563 0 0 1 2.403.469l.292.13.438-2.646z" fill="#fff"/><path fill-rule="evenodd" clip-rule="evenodd" d="M34.547 1.071h2.465l2.57 12.225h-2.95s-.289-1.405-.38-1.834H32.16l-.668 1.834h-3.344l4.733-11.21c.328-.794.906-1.015 1.666-1.015zm-.197 4.474l-1.272 3.42h2.649c-.131-.61-.734-3.537-.734-3.537l-.223-1.053c-.094.27-.23.644-.321.895l-.099.275z" fill="#fff"/><path d="M11.524 1.071L8.35 9.416l-.347-1.692c-.587-1.953-2.429-4.075-4.484-5.13l2.91 10.702h3.428L14.953 1.07h-3.429z" fill="#fff"/><path d="M5.3 1.071H.054L0 1.314c4.092 1 6.803 3.41 7.916 6.306l-1.14-5.536c-.188-.77-.765-.988-1.476-1.013z" fill="#fff"/></symbol></svg>