<svg width="32" height="33" viewBox="0 0 32 33" fill="none" xmlns="http://www.w3.org/2000/svg">
    <path fill-rule="evenodd" clip-rule="evenodd" d="M0 16.2169C0 7.26096 7.16333 0 16.0003 0C24.8367 0 32 7.26096 32 16.2169C32 16.2716 31.9968 16.3256 31.9961 16.3803H32V32.4339H15.7962V32.428C7.05419 32.3174 0 25.104 0 16.2169Z" fill="#E75F00"/>
    <path d="M20.4661 20.1851V18.9971C20.4661 17.9171 19.6621 17.3531 18.7261 17.3531C17.7781 17.3531 16.9861 17.9171 16.9861 18.9971V20.1851C16.9861 21.2651 17.7781 21.8291 18.7261 21.8291C19.6621 21.8291 20.4661 21.2651 20.4661 20.1851ZM18.6421 13.2131H17.4181L13.3741 21.7571H14.5981L18.6421 13.2131ZM15.0181 15.9731V14.7851C15.0181 13.7051 14.2141 13.1411 13.2781 13.1411C12.3301 13.1411 11.5381 13.7051 11.5381 14.7851V15.9731C11.5381 17.0531 12.3301 17.6171 13.2781 17.6171C14.2141 17.6171 15.0181 17.0531 15.0181 15.9731ZM19.3381 20.1371C19.3381 20.5931 19.1101 20.8211 18.7261 20.8211C18.3301 20.8211 18.1141 20.5931 18.1141 20.1371V19.0451C18.1141 18.5891 18.3301 18.3611 18.7261 18.3611C19.1101 18.3611 19.3381 18.5891 19.3381 19.0451V20.1371ZM13.8901 15.9251C13.8901 16.3811 13.6621 16.6091 13.2781 16.6091C12.8941 16.6091 12.6661 16.3811 12.6661 15.9251V14.8331C12.6661 14.3771 12.8821 14.1491 13.2781 14.1491C13.6621 14.1491 13.8901 14.3771 13.8901 14.8331V15.9251Z" fill="white"/>
</svg>
