<svg width="24" height="24" viewBox="0 0 24 24" fill="none" xmlns="http://www.w3.org/2000/svg">
    <path fill-rule="evenodd" clip-rule="evenodd" d="M0 12C0 5.37287 5.37249 0 12.0002 0C18.6275 0 24 5.37287 24 12C24 12.0404 23.9976 12.0804 23.9971 12.1209H24V24H11.8471V23.9957C5.29064 23.9138 0 18.5761 0 12Z" fill="#E75F00"/>
    <path d="M16.4661 15.428V14.24C16.4661 13.16 15.6621 12.596 14.7261 12.596C13.7781 12.596 12.9861 13.16 12.9861 14.24V15.428C12.9861 16.508 13.7781 17.072 14.7261 17.072C15.6621 17.072 16.4661 16.508 16.4661 15.428ZM14.6421 8.456H13.4181L9.37406 17H10.5981L14.6421 8.456ZM11.0181 11.216V10.028C11.0181 8.948 10.2141 8.384 9.27806 8.384C8.33006 8.384 7.53806 8.948 7.53806 10.028V11.216C7.53806 12.296 8.33006 12.86 9.27806 12.86C10.2141 12.86 11.0181 12.296 11.0181 11.216ZM15.3381 15.38C15.3381 15.836 15.1101 16.064 14.7261 16.064C14.3301 16.064 14.1141 15.836 14.1141 15.38V14.288C14.1141 13.832 14.3301 13.604 14.7261 13.604C15.1101 13.604 15.3381 13.832 15.3381 14.288V15.38ZM9.89006 11.168C9.89006 11.624 9.66206 11.852 9.27806 11.852C8.89406 11.852 8.66606 11.624 8.66606 11.168V10.076C8.66606 9.62 8.88206 9.392 9.27806 9.392C9.66206 9.392 9.89006 9.62 9.89006 10.076V11.168Z" fill="white"/>
</svg>
